AtkinsonHyperlegibleNext-LightItalic.sfdir
StartChar: exclam
Encoding: 33 33 263
Width: 274
GlyphClass: 1
Flags: W
LayerCount: 2
Fore
SplineSet
154 497 m 1,0,-1
 190 668 l 1,1,-1
 261 668 l 1,2,-1
 225 497 l 1,3,-1
 143 182 l 1,4,-1
 102 182 l 1,5,-1
 154 497 l 1,0,-1
54.5 4.5 m 128,-1,7
 38 21 38 21 38 43 c 0,8,9
 38 66 38 66 54 82.5 c 128,-1,10
 70 99 70 99 93 99 c 256,11,12
 116 99 116 99 132 82.5 c 128,-1,13
 148 66 148 66 149 43 c 0,14,15
 149 20 149 20 132.5 4 c 128,-1,16
 116 -12 116 -12 93 -12 c 0,17,6
 71 -12 71 -12 54.5 4.5 c 128,-1,7
EndSplineSet
EndChar
StartChar: quotedbl
Encoding: 34 34 293
Width: 270
GlyphClass: 1
Flags: W
LayerCount: 2
Fore
SplineSet
256 668 m 1,0,-1
 319 668 l 1,1,-1
 258 451 l 1,2,-1
 224 451 l 1,3,-1
 256 668 l 1,0,-1
129 668 m 1,4,-1
 192 668 l 1,5,-1
 131 451 l 1,6,-1
 97 451 l 1,7,-1
 129 668 l 1,4,-1
EndSplineSet
EndChar
StartChar: numbersign
Encoding: 35 35 270
Width: 602
GlyphClass: 1
Flags: W
LayerCount: 2
Fore
SplineSet
146 188 m 1,0,-1
 25 188 l 1,1,-1
 45 245 l 1,2,-1
 165 245 l 1,3,-1
 228 423 l 1,4,-1
 108 423 l 1,5,-1
 128 480 l 1,6,-1
 248 480 l 1,7,-1
 314 668 l 1,8,-1
 377 668 l 1,9,-1
 311 480 l 1,10,-1
 436 480 l 1,11,-1
 502 668 l 1,12,-1
 564 668 l 1,13,-1
 499 480 l 1,14,-1
 614 480 l 1,15,-1
 594 423 l 1,16,-1
 477 423 l 1,17,-1
 416 245 l 1,18,-1
 532 245 l 1,19,-1
 511 188 l 1,20,-1
 395 188 l 1,21,-1
 329 0 l 1,22,-1
 266 0 l 1,23,-1
 332 188 l 1,24,-1
 207 188 l 1,25,-1
 141 0 l 1,26,-1
 78 0 l 1,27,-1
 146 188 l 1,0,-1
354 245 m 1,28,-1
 415 423 l 1,29,-1
 290 423 l 1,30,-1
 228 245 l 1,31,-1
 354 245 l 1,28,-1
EndSplineSet
EndChar
StartChar: dollar
Encoding: 36 36 313
Width: 585
GlyphClass: 1
Flags: W
LayerCount: 2
Fore
SplineSet
93 45 m 128,-1,1
 44 84 44 84 30 146 c 1,2,-1
 98 170 l 1,3,4
 107 125 107 125 140.5 95.5 c 128,-1,5
 174 66 174 66 223 54 c 1,6,-1
 281 324 l 1,7,-1
 250 336 l 2,8,9
 185 359 185 359 148 394.5 c 128,-1,10
 111 430 111 430 111 486 c 0,11,12
 111 540 111 540 142.5 584.5 c 128,-1,13
 174 629 174 629 229.5 654.5 c 128,-1,14
 285 680 285 680 355 680 c 1,15,-1
 372 758 l 1,16,-1
 416 758 l 1,17,-1
 399 677 l 1,18,19
 459 668 459 668 505 638 c 128,-1,20
 551 608 551 608 572 557 c 1,21,-1
 504 532 l 1,22,23
 490 566 490 566 458 587.5 c 128,-1,24
 426 609 426 609 386 616 c 1,25,-1
 335 377 l 1,26,-1
 367 366 l 2,27,28
 447 336 447 336 489 298.5 c 128,-1,29
 531 261 531 261 531 199 c 0,30,31
 531 139 531 139 497 90.5 c 128,-1,32
 463 42 463 42 400 14.5 c 128,-1,33
 337 -13 337 -13 253 -11 c 1,34,-1
 236 -90 l 1,35,-1
 192 -90 l 1,36,-1
 210 -7 l 1,37,0
 142 6 142 6 93 45 c 128,-1,1
369 66 m 128,-1,39
 413 85 413 85 436 117 c 128,-1,40
 459 149 459 149 459 188 c 0,41,42
 459 226 459 226 431.5 252.5 c 128,-1,43
 404 279 404 279 336 303 c 2,44,-1
 321 309 l 1,45,-1
 265 48 l 1,46,38
 325 47 325 47 369 66 c 128,-1,39
230 585.5 m 128,-1,48
 183 552 183 552 183 499 c 0,49,50
 183 433 183 433 278 398 c 2,51,-1
 295 392 l 1,52,-1
 343 620 l 1,53,47
 277 619 277 619 230 585.5 c 128,-1,48
EndSplineSet
EndChar
StartChar: ampersand
Encoding: 38 38 298
Width: 732
GlyphClass: 1
Flags: W
LayerCount: 2
Fore
SplineSet
110 34 m 128,-1,1
 48 79 48 79 48 160 c 0,2,3
 48 250 48 250 113.5 308.5 c 128,-1,4
 179 367 179 367 284 392 c 1,5,6
 230 467 230 467 230 524 c 0,7,8
 230 570 230 570 254.5 605.5 c 128,-1,9
 279 641 279 641 320 661 c 128,-1,10
 361 681 361 681 410 681 c 0,11,12
 477 681 477 681 524 646 c 128,-1,13
 571 611 571 611 571 549 c 0,14,15
 571 481 571 481 520 435 c 128,-1,16
 469 389 469 389 388 366 c 1,17,-1
 512 195 l 1,18,19
 551 261 551 261 570 345 c 1,20,-1
 639 345 l 1,21,22
 615 224 615 224 551 140 c 1,23,-1
 653 0 l 1,24,-1
 568 0 l 1,25,-1
 505 85 l 1,26,27
 409 -11 409 -11 270 -11 c 0,28,0
 172 -11 172 -11 110 34 c 128,-1,1
470 135 m 1,30,-1
 317 348 l 1,31,32
 119 293 119 293 119 169 c 0,33,34
 119 112 119 112 163.5 80.5 c 128,-1,35
 208 49 208 49 273 49 c 0,36,29
 390 49 390 49 470 135 c 1,30,-1
460 459.5 m 128,-1,38
 503 493 503 493 503 543 c 0,39,40
 503 579 503 579 475 601 c 128,-1,41
 447 623 447 623 407 623 c 0,42,43
 361 623 361 623 330 597 c 128,-1,44
 299 571 299 571 299 530 c 0,45,46
 299 504 299 504 313 476 c 128,-1,47
 327 448 327 448 354 410 c 1,48,37
 417 426 417 426 460 459.5 c 128,-1,38
EndSplineSet
EndChar
StartChar: quotesingle
Encoding: 39 39 294
Width: 143
GlyphClass: 1
Flags: W
LayerCount: 2
Fore
SplineSet
129 668 m 1,0,-1
 192 668 l 1,1,-1
 131 451 l 1,2,-1
 97 451 l 1,3,-1
 129 668 l 1,0,-1
EndSplineSet
EndChar
StartChar: parenleft
Encoding: 40 40 277
Width: 285
GlyphClass: 1
Flags: W
LayerCount: 2
Fore
SplineSet
56 121 m 0,1,2
 56 277 56 277 114.5 426 c 128,-1,3
 173 575 173 575 288 708 c 1,4,-1
 363 708 l 1,5,6
 244 579 244 579 182.5 427 c 128,-1,7
 121 275 121 275 121 120 c 0,8,9
 121 -29 121 -29 172 -162 c 1,10,-1
 106 -162 l 1,11,0
 56 -32 56 -32 56 121 c 0,1,2
EndSplineSet
EndChar
StartChar: parenright
Encoding: 41 41 278
Width: 285
GlyphClass: 1
Flags: W
LayerCount: 2
Fore
SplineSet
113.5 120 m 128,-1,1
 175 272 175 272 175 427 c 0,2,3
 175 576 175 576 124 709 c 1,4,-1
 190 709 l 1,5,6
 240 579 240 579 240 426 c 0,7,8
 240 270 240 270 181.5 121 c 128,-1,9
 123 -28 123 -28 8 -161 c 1,10,-1
 -67 -161 l 1,11,0
 52 -32 52 -32 113.5 120 c 128,-1,1
EndSplineSet
EndChar
StartChar: asterisk
Encoding: 42 42 269
Width: 480
GlyphClass: 1
Flags: W
LayerCount: 2
Fore
SplineSet
153 398 m 1,0,-1
 251 495 l 1,1,-1
 136 546 l 1,2,-1
 162 592 l 1,3,-1
 276 539 l 1,4,-1
 304 668 l 1,5,-1
 354 668 l 1,6,-1
 325 535 l 1,7,-1
 456 561 l 1,8,-1
 462 511 l 1,9,-1
 329 487 l 1,10,-1
 383 373 l 1,11,-1
 340 349 l 1,12,-1
 284 461 l 1,13,-1
 187 363 l 1,14,-1
 153 398 l 1,0,-1
EndSplineSet
EndChar
StartChar: plus
Encoding: 43 43 320
Width: 606
GlyphClass: 1
Flags: W
LayerCount: 2
Fore
SplineSet
264 216 m 1,0,-1
 48 216 l 1,1,-1
 62 280 l 1,2,-1
 278 280 l 1,3,-1
 324 496 l 1,4,-1
 388 496 l 1,5,-1
 342 280 l 1,6,-1
 558 280 l 1,7,-1
 544 216 l 1,8,-1
 328 216 l 1,9,-1
 282 0 l 1,10,-1
 218 0 l 1,11,-1
 264 216 l 1,0,-1
EndSplineSet
EndChar
StartChar: comma
Encoding: 44 44 259
Width: 187
GlyphClass: 1
Flags: W
LayerCount: 2
Fore
SplineSet
5 10 m 128,-1,1
 -5 24 -5 24 -5 43 c 0,2,3
 -5 66 -5 66 11 82.5 c 128,-1,4
 27 99 27 99 49 99 c 0,5,6
 74 99 74 99 89.5 83 c 128,-1,7
 105 67 105 67 105 45 c 0,8,9
 105 26 105 26 92 6 c 2,10,-1
 10 -129 l 1,11,-1
 -36 -129 l 1,12,-1
 33 -11 l 1,13,0
 15 -4 15 -4 5 10 c 128,-1,1
EndSplineSet
EndChar
StartChar: period
Encoding: 46 46 258
Width: 187
GlyphClass: 1
Flags: W
LayerCount: 2
Fore
SplineSet
11.5 4.5 m 128,-1,1
 -5 21 -5 21 -5 43 c 0,2,3
 -5 66 -5 66 11 82.5 c 128,-1,4
 27 99 27 99 50 99 c 256,5,6
 73 99 73 99 89.5 82.5 c 128,-1,7
 106 66 106 66 106 43 c 256,8,9
 106 20 106 20 89.5 4 c 128,-1,10
 73 -12 73 -12 50 -12 c 0,11,0
 28 -12 28 -12 11.5 4.5 c 128,-1,1
EndSplineSet
EndChar
StartChar: slash
Encoding: 47 47 271
Width: 367
GlyphClass: 5
Flags: W
LayerCount: 2
Fore
SplineSet
379 708 m 1,0,-1
 445 708 l 1,1,-1
 14 -90 l 1,2,-1
 -52 -90 l 1,3,-1
 379 708 l 1,0,-1
EndSplineSet
EndChar
StartChar: zero
Encoding: 48 48 229
Width: 636
GlyphClass: 1
Flags: W
LayerCount: 2
Fore
SplineSet
125 55.5 m 128,-1,1
 70 124 70 124 70 238 c 0,2,3
 70 335 70 335 103.5 438.5 c 128,-1,4
 137 542 137 542 208 612.5 c 128,-1,5
 279 683 279 683 384 683 c 0,6,7
 495 683 495 683 549.5 614.5 c 128,-1,8
 604 546 604 546 604 432 c 0,9,10
 604 335 604 335 570.5 231.5 c 128,-1,11
 537 128 537 128 466 57.5 c 128,-1,12
 395 -13 395 -13 290 -13 c 0,13,0
 180 -13 180 -13 125 55.5 c 128,-1,1
418 99 m 1,15,-1
 220 529 l 1,16,17
 179 470 179 470 158 388.5 c 128,-1,18
 137 307 137 307 137 235 c 0,19,20
 137 149 137 149 174.5 98.5 c 128,-1,21
 212 48 212 48 292 48 c 0,22,14
 365 48 365 48 418 99 c 1,15,-1
516 282.5 m 128,-1,24
 536 363 536 363 536 434 c 0,25,26
 536 521 536 521 499 571.5 c 128,-1,27
 462 622 462 622 382 622 c 0,28,29
 310 622 310 622 257 572 c 1,30,-1
 456 143 l 1,31,23
 496 202 496 202 516 282.5 c 128,-1,24
EndSplineSet
Substitution2: "'tnum' Tabular Numbers in Latin lookup 10 subtable" zero.tf
AlternateSubs2: "'aalt' Access All Alternates in Latin lookup 0 subtable" zero.tf
EndChar
StartChar: two
Encoding: 50 50 231
Width: 542
GlyphClass: 5
Flags: W
LayerCount: 2
Fore
SplineSet
49 96 m 2,0,1
 175 177 175 177 256.5 237 c 128,-1,2
 338 297 338 297 398.5 368.5 c 128,-1,3
 459 440 459 440 459 510 c 0,4,5
 459 560 459 560 424.5 591 c 128,-1,6
 390 622 390 622 333 622 c 0,7,8
 279 622 279 622 235 593.5 c 128,-1,9
 191 565 191 565 170 501 c 1,10,-1
 102 524 l 1,11,12
 132 600 132 600 193.5 640 c 128,-1,13
 255 680 255 680 335 680 c 0,14,15
 422 680 422 680 477 636 c 128,-1,16
 532 592 532 592 532 518 c 0,17,18
 532 432 532 432 467 350.5 c 128,-1,19
 402 269 402 269 320 209 c 128,-1,20
 238 149 238 149 132 84 c 2,21,-1
 102 65 l 1,22,-1
 464 65 l 1,23,-1
 450 0 l 1,24,-1
 -17 0 l 1,25,-1
 -4 62 l 1,26,-1
 49 96 l 2,0,1
EndSplineSet
Substitution2: "'tnum' Tabular Numbers in Latin lookup 10 subtable" two.tf
Substitution2: "'sups' Superscript in Latin lookup 6 subtable" uni00B2
AlternateSubs2: "'aalt' Access All Alternates in Latin lookup 0 subtable" uni00B2 two.tf
EndChar
StartChar: three
Encoding: 51 51 232
Width: 568
GlyphClass: 5
Flags: W
LayerCount: 2
Fore
SplineSet
96.5 32 m 128,-1,1
 37 76 37 76 32 156 c 1,2,-1
 100 170 l 1,3,4
 106 108 106 108 147.5 77 c 128,-1,5
 189 46 189 46 251 46 c 0,6,7
 299 46 299 46 338 65 c 128,-1,8
 377 84 377 84 400 118.5 c 128,-1,9
 423 153 423 153 423 199 c 0,10,11
 423 260 423 260 375.5 292 c 128,-1,12
 328 324 328 324 265 324 c 2,13,-1
 249 324 l 1,14,-1
 262 385 l 1,15,-1
 317 385 l 2,16,17
 364 385 364 385 398.5 403.5 c 128,-1,18
 433 422 433 422 451 452.5 c 128,-1,19
 469 483 469 483 469 518 c 0,20,21
 469 565 469 565 431.5 593.5 c 128,-1,22
 394 622 394 622 339 622 c 0,23,24
 283 622 283 622 237.5 591 c 128,-1,25
 192 560 192 560 174 503 c 1,26,-1
 107 524 l 1,27,28
 140 601 140 601 202 640.5 c 128,-1,29
 264 680 264 680 342 680 c 0,30,31
 426 680 426 680 481.5 639 c 128,-1,32
 537 598 537 598 537 527 c 0,33,34
 537 486 537 486 519.5 447 c 128,-1,35
 502 408 502 408 467 381 c 128,-1,36
 432 354 432 354 383 347 c 1,37,38
 435 332 435 332 464 291.5 c 128,-1,39
 493 251 493 251 493 199 c 0,40,41
 493 137 493 137 460 89 c 128,-1,42
 427 41 427 41 371 14.5 c 128,-1,43
 315 -12 315 -12 247 -12 c 0,44,0
 156 -12 156 -12 96.5 32 c 128,-1,1
EndSplineSet
Substitution2: "'tnum' Tabular Numbers in Latin lookup 10 subtable" three.tf
Substitution2: "'sups' Superscript in Latin lookup 6 subtable" uni00B3
AlternateSubs2: "'aalt' Access All Alternates in Latin lookup 0 subtable" uni00B3 three.tf
EndChar
StartChar: five
Encoding: 53 53 234
Width: 576
GlyphClass: 1
Flags: W
LayerCount: 2
Fore
SplineSet
110 32.5 m 128,-1,1
 59 77 59 77 49 156 c 1,2,-1
 116 173 l 1,3,4
 119 115 119 115 155 80.5 c 128,-1,5
 191 46 191 46 257 46 c 0,6,7
 314 46 314 46 356 76.5 c 128,-1,8
 398 107 398 107 419.5 154 c 128,-1,9
 441 201 441 201 441 251 c 0,10,11
 441 316 441 316 402.5 353 c 128,-1,12
 364 390 364 390 310 390 c 0,13,14
 263 390 263 390 223 365.5 c 128,-1,15
 183 341 183 341 163 312 c 1,16,-1
 101 330 l 1,17,-1
 213 668 l 1,18,-1
 577 668 l 1,19,-1
 563 603 l 1,20,-1
 255 603 l 1,21,-1
 184 392 l 1,22,23
 214 421 214 421 251.5 435 c 128,-1,24
 289 449 289 449 328 449 c 0,25,26
 380 449 380 449 421.5 425.5 c 128,-1,27
 463 402 463 402 487 359 c 128,-1,28
 511 316 511 316 511 258 c 0,29,30
 511 185 511 185 479.5 123 c 128,-1,31
 448 61 448 61 389.5 24.5 c 128,-1,32
 331 -12 331 -12 255 -12 c 0,33,0
 161 -12 161 -12 110 32.5 c 128,-1,1
EndSplineSet
Substitution2: "'tnum' Tabular Numbers in Latin lookup 10 subtable" five.tf
AlternateSubs2: "'aalt' Access All Alternates in Latin lookup 0 subtable" five.tf
EndChar
StartChar: six
Encoding: 54 54 235
Width: 590
GlyphClass: 1
Flags: W
LayerCount: 2
Fore
SplineSet
121.5 45.5 m 128,-1,1
 69 103 69 103 69 207 c 0,2,3
 69 298 69 298 103.5 409 c 128,-1,4
 138 520 138 520 209 600 c 128,-1,5
 280 680 280 680 384 680 c 0,6,7
 447 680 447 680 495 651.5 c 128,-1,8
 543 623 543 623 561 570 c 1,9,-1
 494 547 l 1,10,11
 482 582 482 582 451.5 601 c 128,-1,12
 421 620 421 620 380 620 c 0,13,14
 300 620 300 620 241.5 543 c 128,-1,15
 183 466 183 466 156 352 c 1,16,17
 186 395 186 395 233 418 c 128,-1,18
 280 441 280 441 331 441 c 0,19,20
 419 441 419 441 472.5 388 c 128,-1,21
 526 335 526 335 526 249 c 0,22,23
 526 180 526 180 493.5 120 c 128,-1,24
 461 60 461 60 403.5 24 c 128,-1,25
 346 -12 346 -12 273 -12 c 0,26,0
 174 -12 174 -12 121.5 45.5 c 128,-1,1
371.5 75 m 128,-1,28
 411 102 411 102 432.5 146.5 c 128,-1,29
 454 191 454 191 454 241 c 0,30,31
 454 305 454 305 416 342.5 c 128,-1,32
 378 380 378 380 315 380 c 0,33,34
 262 380 262 380 222 353 c 128,-1,35
 182 326 182 326 160 281.5 c 128,-1,36
 138 237 138 237 138 186 c 0,37,38
 138 121 138 121 177.5 84.5 c 128,-1,39
 217 48 217 48 280 48 c 0,40,27
 332 48 332 48 371.5 75 c 128,-1,28
EndSplineSet
Substitution2: "'tnum' Tabular Numbers in Latin lookup 10 subtable" six.tf
AlternateSubs2: "'aalt' Access All Alternates in Latin lookup 0 subtable" six.tf
EndChar
StartChar: seven
Encoding: 55 55 236
Width: 500
GlyphClass: 1
Flags: W
LayerCount: 2
Fore
SplineSet
464 603 m 1,0,-1
 93 603 l 1,1,-1
 107 668 l 1,2,-1
 554 668 l 1,3,-1
 541 603 l 1,4,-1
 132 0 l 1,5,-1
 49 0 l 1,6,-1
 464 603 l 1,0,-1
EndSplineSet
Substitution2: "'tnum' Tabular Numbers in Latin lookup 10 subtable" seven.tf
AlternateSubs2: "'aalt' Access All Alternates in Latin lookup 0 subtable" seven.tf
EndChar
StartChar: eight
Encoding: 56 56 237
Width: 612
GlyphClass: 1
Flags: W
LayerCount: 2
Fore
SplineSet
170 10.5 m 128,-1,1
 117 32 117 32 85 73.5 c 128,-1,2
 53 115 53 115 53 171 c 0,3,4
 53 244 53 244 100 299.5 c 128,-1,5
 147 355 147 355 224 376 c 1,6,7
 203 397 203 397 192 425 c 128,-1,8
 181 453 181 453 181 485 c 0,9,10
 181 537 181 537 208.5 582.5 c 128,-1,11
 236 628 236 628 281.5 655 c 128,-1,12
 327 682 327 682 380 682 c 0,13,14
 426 682 426 682 462.5 661 c 128,-1,15
 499 640 499 640 519.5 603.5 c 128,-1,16
 540 567 540 567 540 523 c 0,17,18
 540 472 540 472 512.5 426.5 c 128,-1,19
 485 381 485 381 438 354 c 1,20,21
 483 330 483 330 508.5 291 c 128,-1,22
 534 252 534 252 534 203 c 0,23,24
 534 139 534 139 500.5 90.5 c 128,-1,25
 467 42 467 42 410 15.5 c 128,-1,26
 353 -11 353 -11 286 -11 c 0,27,0
 223 -11 223 -11 170 10.5 c 128,-1,1
375.5 67.5 m 128,-1,29
 415 86 415 86 438.5 120.5 c 128,-1,30
 462 155 462 155 462 200 c 0,31,32
 462 259 462 259 415 292.5 c 128,-1,33
 368 326 368 326 300 326 c 0,34,35
 253 326 253 326 213 307.5 c 128,-1,36
 173 289 173 289 149 254.5 c 128,-1,37
 125 220 125 220 125 175 c 0,38,39
 125 115 125 115 172.5 82 c 128,-1,40
 220 49 220 49 288 49 c 0,41,28
 336 49 336 49 375.5 67.5 c 128,-1,29
411 404.5 m 128,-1,43
 441 422 441 422 459.5 451.5 c 128,-1,44
 478 481 478 481 478 516 c 0,45,46
 478 560 478 560 449 589.5 c 128,-1,47
 420 619 420 619 374 619 c 0,48,49
 341 619 341 619 310.5 602 c 128,-1,50
 280 585 280 585 261.5 555.5 c 128,-1,51
 243 526 243 526 243 491 c 0,52,53
 243 446 243 446 272 416.5 c 128,-1,54
 301 387 301 387 347 387 c 0,55,42
 381 387 381 387 411 404.5 c 128,-1,43
EndSplineSet
Substitution2: "'tnum' Tabular Numbers in Latin lookup 10 subtable" eight.tf
AlternateSubs2: "'aalt' Access All Alternates in Latin lookup 0 subtable" eight.tf
EndChar
StartChar: nine
Encoding: 57 57 238
Width: 603
GlyphClass: 1
Flags: W
LayerCount: 2
Fore
SplineSet
310 208 m 0,1,2
 254 208 254 208 205.5 235 c 128,-1,3
 157 262 157 262 128.5 309.5 c 128,-1,4
 100 357 100 357 100 416 c 0,5,6
 100 484 100 484 135.5 545.5 c 128,-1,7
 171 607 171 607 231.5 644 c 128,-1,8
 292 681 292 681 365 681 c 0,9,10
 427 681 427 681 476 653 c 128,-1,11
 525 625 525 625 552 576.5 c 128,-1,12
 579 528 579 528 579 470 c 0,13,14
 579 407 579 407 548.5 351.5 c 128,-1,15
 518 296 518 296 459 228 c 2,16,-1
 259 0 l 1,17,-1
 170 0 l 1,18,-1
 366 215 l 1,19,0
 339 208 339 208 310 208 c 0,1,2
414 299.5 m 128,-1,21
 458 325 458 325 484.5 368 c 128,-1,22
 511 411 511 411 511 461 c 0,23,24
 511 504 511 504 491 538.5 c 128,-1,25
 471 573 471 573 436 593 c 128,-1,26
 401 613 401 613 359 613 c 0,27,28
 310 613 310 613 266 587.5 c 128,-1,29
 222 562 222 562 195 518.5 c 128,-1,30
 168 475 168 475 168 424 c 0,31,32
 168 381 168 381 188.5 346.5 c 128,-1,33
 209 312 209 312 244 293 c 128,-1,34
 279 274 279 274 321 274 c 0,35,20
 370 274 370 274 414 299.5 c 128,-1,21
EndSplineSet
Substitution2: "'tnum' Tabular Numbers in Latin lookup 10 subtable" nine.tf
AlternateSubs2: "'aalt' Access All Alternates in Latin lookup 0 subtable" nine.tf
EndChar
StartChar: less
Encoding: 60 60 327
Width: 547
GlyphClass: 1
Flags: W
LayerCount: 2
Fore
SplineSet
34 219 m 1,0,-1
 46 277 l 1,1,-1
 559 490 l 1,2,-1
 542 412 l 1,3,-1
 127 243 l 1,4,-1
 470 75 l 1,5,-1
 455 5 l 1,6,-1
 34 219 l 1,0,-1
EndSplineSet
EndChar
StartChar: equal
Encoding: 61 61 324
Width: 628
GlyphClass: 1
Flags: W
LayerCount: 2
Fore
SplineSet
93 375 m 1,0,-1
 588 375 l 1,1,-1
 575 311 l 1,2,-1
 80 311 l 1,3,-1
 93 375 l 1,0,-1
55 192 m 1,4,-1
 550 192 l 1,5,-1
 537 128 l 1,6,-1
 42 128 l 1,7,-1
 55 192 l 1,4,-1
EndSplineSet
EndChar
StartChar: greater
Encoding: 62 62 326
Width: 547
GlyphClass: 1
Flags: W
LayerCount: 2
Fore
SplineSet
5 84 m 1,0,-1
 420 251 l 1,1,-1
 77 420 l 1,2,-1
 92 490 l 1,3,-1
 513 276 l 1,4,-1
 501 219 l 1,5,-1
 -12 5 l 1,6,-1
 5 84 l 1,0,-1
EndSplineSet
EndChar
StartChar: question
Encoding: 63 63 265
Width: 457
GlyphClass: 1
Flags: W
LayerCount: 2
Fore
SplineSet
204 300.5 m 128,-1,1
 231 334 231 334 292 367 c 0,2,3
 356 403 356 403 390.5 439.5 c 128,-1,4
 425 476 425 476 425 525 c 0,5,6
 425 569 425 569 391 596 c 128,-1,7
 357 623 357 623 304 623 c 0,8,9
 249 623 249 623 207.5 590.5 c 128,-1,10
 166 558 166 558 152 505 c 1,11,-1
 86 522 l 1,12,13
 109 598 109 598 170 640 c 128,-1,14
 231 682 231 682 308 682 c 0,15,16
 358 682 358 682 401 663.5 c 128,-1,17
 444 645 444 645 469 611 c 128,-1,18
 494 577 494 577 494 531 c 0,19,20
 494 482 494 482 474 445 c 128,-1,21
 454 408 454 408 418.5 379 c 128,-1,22
 383 350 383 350 326 315 c 0,23,24
 277 286 277 286 260 266.5 c 128,-1,25
 243 247 243 247 235 212 c 2,26,-1
 226 175 l 1,27,-1
 157 175 l 1,28,-1
 164 209 l 2,29,0
 177 267 177 267 204 300.5 c 128,-1,1
124.5 4.5 m 128,-1,31
 108 21 108 21 108 43 c 0,32,33
 108 66 108 66 124 82.5 c 128,-1,34
 140 99 140 99 163 99 c 256,35,36
 186 99 186 99 202.5 82.5 c 128,-1,37
 219 66 219 66 219 43 c 256,38,39
 219 20 219 20 202.5 4 c 128,-1,40
 186 -12 186 -12 163 -12 c 0,41,30
 141 -12 141 -12 124.5 4.5 c 128,-1,31
EndSplineSet
EndChar
StartChar: at
Encoding: 64 64 297
Width: 770
GlyphClass: 1
Flags: W
LayerCount: 2
Fore
SplineSet
195.5 -54.5 m 128,-1,1
 124 -15 124 -15 83.5 54.5 c 128,-1,2
 43 124 43 124 43 213 c 0,3,4
 43 318 43 318 94.5 407 c 128,-1,5
 146 496 146 496 234.5 549 c 128,-1,6
 323 602 323 602 428 602 c 0,7,8
 516 602 516 602 586.5 566 c 128,-1,9
 657 530 657 530 697 466 c 128,-1,10
 737 402 737 402 737 321 c 0,11,12
 737 269 737 269 716.5 212 c 128,-1,13
 696 155 696 155 654.5 116 c 128,-1,14
 613 77 613 77 555 77 c 0,15,16
 520 77 520 77 494.5 95 c 128,-1,17
 469 113 469 113 461 139 c 1,18,19
 432 105 432 105 401 90 c 128,-1,20
 370 75 370 75 334 75 c 0,21,22
 276 75 276 75 242.5 114 c 128,-1,23
 209 153 209 153 209 213 c 0,24,25
 209 269 209 269 234.5 321.5 c 128,-1,26
 260 374 260 374 308 407 c 128,-1,27
 356 440 356 440 420 440 c 0,28,29
 452 440 452 440 487.5 430 c 128,-1,30
 523 420 523 420 555 405 c 1,31,-1
 512 202 l 2,32,33
 510 188 510 188 510 182 c 0,34,35
 510 159 510 159 523 145 c 128,-1,36
 536 131 536 131 565 131 c 0,37,38
 603 131 603 131 629.5 162 c 128,-1,39
 656 193 656 193 669.5 236.5 c 128,-1,40
 683 280 683 280 683 315 c 0,41,42
 683 379 683 379 649.5 433 c 128,-1,43
 616 487 616 487 557.5 518 c 128,-1,44
 499 549 499 549 426 549 c 0,45,46
 334 549 334 549 259 503.5 c 128,-1,47
 184 458 184 458 141 381 c 128,-1,48
 98 304 98 304 98 214 c 0,49,50
 98 138 98 138 132.5 80 c 128,-1,51
 167 22 167 22 226.5 -9.5 c 128,-1,52
 286 -41 286 -41 358 -41 c 0,53,54
 385 -41 385 -41 415.5 -35 c 128,-1,55
 446 -29 446 -29 472 -18 c 1,56,-1
 459 -78 l 1,57,58
 406 -94 406 -94 355 -94 c 0,59,0
 267 -94 267 -94 195.5 -54.5 c 128,-1,1
416 156.5 m 128,-1,61
 448 184 448 184 457 224 c 2,62,-1
 487 369 l 1,63,64
 457 384 457 384 419 384 c 0,65,66
 374 384 374 384 340.5 360.5 c 128,-1,67
 307 337 307 337 289 299.5 c 128,-1,68
 271 262 271 262 271 221 c 0,69,70
 271 181 271 181 291.5 155 c 128,-1,71
 312 129 312 129 347 129 c 0,72,60
 384 129 384 129 416 156.5 c 128,-1,61
EndSplineSet
EndChar
StartChar: A
Encoding: 65 65 2
Width: 603
GlyphClass: 2
Flags: W
AnchorPoint: "Anchor-2" 542 10 basechar 0
AnchorPoint: "Anchor-1" 391 668 basechar 0
AnchorPoint: "Anchor-0" 249 0 basechar 0
LayerCount: 2
Fore
SplineSet
352 668 m 1,0,-1
 431 668 l 1,1,-1
 540 0 l 1,2,-1
 466 0 l 1,3,-1
 442 158 l 1,4,-1
 128 158 l 1,5,-1
 37 0 l 1,6,-1
 -43 0 l 1,7,-1
 352 668 l 1,0,-1
433 221 m 1,8,-1
 378 593 l 1,9,-1
 164 221 l 1,10,-1
 433 221 l 1,8,-1
EndSplineSet
Substitution2: "Single Substitution lookup 15 subtable" ordfeminine
AlternateSubs2: "'aalt' Access All Alternates in Latin lookup 0 subtable" ordfeminine
EndChar
StartChar: B
Encoding: 66 66 13
Width: 598
GlyphClass: 2
Flags: W
AnchorPoint: "Anchor-1" 390 668 basechar 0
AnchorPoint: "Anchor-0" 248 0 basechar 0
LayerCount: 2
Fore
SplineSet
169 668 m 1,0,-1
 384 668 l 2,1,2
 485 668 485 668 535.5 625.5 c 128,-1,3
 586 583 586 583 586 516 c 0,4,5
 586 457 586 457 555.5 409 c 128,-1,6
 525 361 525 361 467 340 c 1,7,8
 509 318 509 318 529.5 283.5 c 128,-1,9
 550 249 550 249 550 206 c 0,10,11
 550 150 550 150 524.5 103 c 128,-1,12
 499 56 499 56 448.5 28 c 128,-1,13
 398 0 398 0 328 0 c 2,14,-1
 27 0 l 1,15,-1
 169 668 l 1,0,-1
434.5 104 m 128,-1,17
 475 145 475 145 475 207 c 0,18,19
 475 255 475 255 438.5 285 c 128,-1,20
 402 315 402 315 334 315 c 2,21,-1
 168 315 l 1,22,-1
 114 63 l 1,23,-1
 322 63 l 2,24,16
 394 63 394 63 434.5 104 c 128,-1,17
479 412.5 m 128,-1,26
 512 449 512 449 512 505 c 0,27,28
 512 550 512 550 480.5 577.5 c 128,-1,29
 449 605 449 605 382 605 c 2,30,-1
 230 605 l 1,31,-1
 180 376 l 1,32,-1
 383 376 l 2,33,25
 446 376 446 376 479 412.5 c 128,-1,26
EndSplineSet
EndChar
StartChar: C
Encoding: 67 67 14
Width: 638
GlyphClass: 2
Flags: W
AnchorPoint: "Anchor-1" 432 668 basechar 0
AnchorPoint: "Anchor-0" 325 0 basechar 0
LayerCount: 2
Fore
SplineSet
180.5 23.5 m 128,-1,1
 120 59 120 59 89 122.5 c 128,-1,2
 58 186 58 186 58 268 c 0,3,4
 58 367 58 367 100 462.5 c 128,-1,5
 142 558 142 558 222 619 c 128,-1,6
 302 680 302 680 411 680 c 0,7,8
 495 680 495 680 557 640.5 c 128,-1,9
 619 601 619 601 643 527 c 1,10,-1
 578 504 l 1,11,12
 559 558 559 558 514 587.5 c 128,-1,13
 469 617 469 617 407 617 c 0,14,15
 318 617 318 617 256 563.5 c 128,-1,16
 194 510 194 510 163.5 430 c 128,-1,17
 133 350 133 350 133 272 c 0,18,19
 133 174 133 174 184 112.5 c 128,-1,20
 235 51 235 51 331 51 c 0,21,22
 390 51 390 51 436 77 c 128,-1,23
 482 103 482 103 520 159 c 1,24,-1
 585 133 l 1,25,26
 496 -12 496 -12 325 -12 c 0,27,0
 241 -12 241 -12 180.5 23.5 c 128,-1,1
EndSplineSet
EndChar
StartChar: D
Encoding: 68 68 19
Width: 654
GlyphClass: 2
Flags: W
AnchorPoint: "Anchor-1" 425 668 basechar 0
AnchorPoint: "Anchor-0" 278 0 basechar 0
LayerCount: 2
Fore
SplineSet
169 668 m 1,0,-1
 283 668 l 2,1,2
 450 668 450 668 540 600.5 c 128,-1,3
 630 533 630 533 630 400 c 0,4,5
 630 300 630 300 593.5 209 c 128,-1,6
 557 118 557 118 476.5 59 c 128,-1,7
 396 0 396 0 271 0 c 2,8,-1
 27 0 l 1,9,-1
 169 668 l 1,0,-1
436 112 m 128,-1,11
 499 161 499 161 527 236.5 c 128,-1,12
 555 312 555 312 555 395 c 0,13,14
 555 605 555 605 279 605 c 2,15,-1
 230 605 l 1,16,-1
 114 63 l 1,17,-1
 273 63 l 2,18,10
 373 63 373 63 436 112 c 128,-1,11
EndSplineSet
EndChar
StartChar: E
Encoding: 69 69 23
Width: 555
GlyphClass: 2
Flags: W
AnchorPoint: "Anchor-2" 465 10 basechar 0
AnchorPoint: "Anchor-1" 388 668 basechar 0
AnchorPoint: "Anchor-0" 225 0 basechar 0
LayerCount: 2
Fore
SplineSet
169 668 m 1,0,-1
 601 668 l 1,1,-1
 587 604 l 1,2,-1
 230 604 l 1,3,-1
 181 376 l 1,4,-1
 461 376 l 1,5,-1
 448 312 l 1,6,-1
 167 312 l 1,7,-1
 114 64 l 1,8,-1
 476 64 l 1,9,-1
 463 0 l 1,10,-1
 27 0 l 1,11,-1
 169 668 l 1,0,-1
EndSplineSet
EndChar
StartChar: F
Encoding: 70 70 32
Width: 543
GlyphClass: 2
Flags: W
AnchorPoint: "Anchor-1" 359 668 basechar 0
AnchorPoint: "Anchor-0" 217 0 basechar 0
LayerCount: 2
Fore
SplineSet
169 668 m 1,0,-1
 590 668 l 1,1,-1
 577 604 l 1,2,-1
 230 604 l 1,3,-1
 181 376 l 1,4,-1
 524 376 l 1,5,-1
 511 312 l 1,6,-1
 167 312 l 1,7,-1
 101 0 l 1,8,-1
 27 0 l 1,9,-1
 169 668 l 1,0,-1
EndSplineSet
EndChar
StartChar: G
Encoding: 71 71 33
Width: 681
GlyphClass: 2
Flags: W
AnchorPoint: "Anchor-1" 431 668 basechar 0
AnchorPoint: "Anchor-0" 291 0 basechar 0
LayerCount: 2
Fore
SplineSet
173 23 m 128,-1,1
 116 58 116 58 86.5 120 c 128,-1,2
 57 182 57 182 57 262 c 0,3,4
 57 361 57 361 97.5 457.5 c 128,-1,5
 138 554 138 554 218 617 c 128,-1,6
 298 680 298 680 410 680 c 0,7,8
 498 680 498 680 562 638.5 c 128,-1,9
 626 597 626 597 650 523 c 1,10,-1
 583 500 l 1,11,12
 566 557 566 557 518 587 c 128,-1,13
 470 617 470 617 407 617 c 0,14,15
 316 617 316 617 254 561.5 c 128,-1,16
 192 506 192 506 162 424.5 c 128,-1,17
 132 343 132 343 132 267 c 0,18,19
 132 170 132 170 181 110.5 c 128,-1,20
 230 51 230 51 320 51 c 0,21,22
 365 51 365 51 412 68.5 c 128,-1,23
 459 86 459 86 498 130.5 c 128,-1,24
 537 175 537 175 552 249 c 2,25,-1
 556 272 l 1,26,-1
 350 272 l 1,27,-1
 364 335 l 1,28,-1
 642 335 l 1,29,-1
 570 0 l 1,30,-1
 519 0 l 1,31,-1
 524 85 l 1,32,33
 479 35 479 35 423 11.5 c 128,-1,34
 367 -12 367 -12 309 -12 c 0,35,0
 230 -12 230 -12 173 23 c 128,-1,1
EndSplineSet
EndChar
StartChar: H
Encoding: 72 72 37
Width: 679
GlyphClass: 2
Flags: W
AnchorPoint: "Anchor-1" 428 668 basechar 0
AnchorPoint: "Anchor-0" 286 0 basechar 0
LayerCount: 2
Fore
SplineSet
169 668 m 1,0,-1
 243 668 l 1,1,-1
 181 376 l 1,2,-1
 552 376 l 1,3,-1
 614 668 l 1,4,-1
 688 668 l 1,5,-1
 546 0 l 1,6,-1
 472 0 l 1,7,-1
 538 313 l 1,8,-1
 167 313 l 1,9,-1
 101 0 l 1,10,-1
 27 0 l 1,11,-1
 169 668 l 1,0,-1
EndSplineSet
EndChar
StartChar: I
Encoding: 73 73 39
Width: 374
GlyphClass: 2
Flags: W
AnchorPoint: "Anchor-2" 267 10 basechar 0
AnchorPoint: "Anchor-1" 276 668 basechar 0
AnchorPoint: "Anchor-0" 135 0 basechar 0
LayerCount: 2
Fore
SplineSet
15 55 m 1,0,-1
 109 55 l 1,1,-1
 227 613 l 1,2,-1
 133 613 l 1,3,-1
 145 668 l 1,4,-1
 407 668 l 1,5,-1
 395 613 l 1,6,-1
 301 613 l 1,7,-1
 183 55 l 1,8,-1
 277 55 l 1,9,-1
 265 0 l 1,10,-1
 3 0 l 1,11,-1
 15 55 l 1,0,-1
EndSplineSet
EndChar
StartChar: J
Encoding: 74 74 48
Width: 491
GlyphClass: 2
Flags: W
AnchorPoint: "Anchor-1" 462 668 basechar 0
AnchorPoint: "Anchor-0" 194 0 basechar 0
LayerCount: 2
Fore
SplineSet
48.5 33 m 128,-1,1
 1 78 1 78 1 158 c 0,2,3
 1 168 1 168 3 192 c 1,4,-1
 74 210 l 1,5,6
 70 190 70 190 70 168 c 0,7,8
 70 113 70 113 100 81.5 c 128,-1,9
 130 50 130 50 184 50 c 0,10,11
 241 50 241 50 275.5 85.5 c 128,-1,12
 310 121 310 121 323 184 c 2,13,-1
 426 668 l 1,14,-1
 500 668 l 1,15,-1
 394 176 l 2,16,17
 374 85 374 85 320.5 36.5 c 128,-1,18
 267 -12 267 -12 182 -12 c 0,19,0
 96 -12 96 -12 48.5 33 c 128,-1,1
EndSplineSet
Substitution2: "Single Substitution lookup 14 subtable" uni004A0301
AlternateSubs2: "'aalt' Access All Alternates in Latin lookup 0 subtable" uni004A0301
EndChar
StartChar: K
Encoding: 75 75 50
Width: 615
GlyphClass: 2
Flags: W
AnchorPoint: "Anchor-1" 391 668 basechar 0
AnchorPoint: "Anchor-0" 249 0 basechar 0
LayerCount: 2
Fore
SplineSet
169 668 m 1,0,-1
 243 668 l 1,1,-1
 167 312 l 1,2,-1
 555 668 l 1,3,-1
 656 668 l 1,4,-1
 340 385 l 1,5,-1
 547 0 l 1,6,-1
 463 0 l 1,7,-1
 286 336 l 1,8,-1
 146 209 l 1,9,-1
 101 0 l 1,10,-1
 27 0 l 1,11,-1
 169 668 l 1,0,-1
EndSplineSet
EndChar
StartChar: L
Encoding: 76 76 52
Width: 531
GlyphClass: 2
Flags: W
AnchorPoint: "Anchor-3" 271 459 basechar 0
AnchorPoint: "Anchor-1" 351 668 basechar 0
AnchorPoint: "Anchor-0" 209 0 basechar 0
LayerCount: 2
Fore
SplineSet
169 668 m 1,0,-1
 243 668 l 1,1,-1
 114 64 l 1,2,-1
 484 64 l 1,3,-1
 471 0 l 1,4,-1
 27 0 l 1,5,-1
 169 668 l 1,0,-1
EndSplineSet
EndChar
StartChar: M
Encoding: 77 77 56
Width: 798
GlyphClass: 2
Flags: W
AnchorPoint: "Anchor-1" 487 668 basechar 0
AnchorPoint: "Anchor-0" 345 0 basechar 0
LayerCount: 2
Fore
SplineSet
169 668 m 1,0,-1
 287 668 l 1,1,-1
 362 86 l 1,2,-1
 681 668 l 1,3,-1
 806 668 l 1,4,-1
 664 0 l 1,5,-1
 591 0 l 1,6,-1
 719 604 l 1,7,-1
 381 0 l 1,8,-1
 311 0 l 1,9,-1
 229 604 l 1,10,-1
 100 0 l 1,11,-1
 27 0 l 1,12,-1
 169 668 l 1,0,-1
EndSplineSet
EndChar
StartChar: N
Encoding: 78 78 57
Width: 676
GlyphClass: 2
Flags: W
AnchorPoint: "Anchor-1" 428 668 basechar 0
AnchorPoint: "Anchor-0" 286 0 basechar 0
LayerCount: 2
Fore
SplineSet
169 668 m 1,0,-1
 272 668 l 1,1,-1
 486 76 l 1,2,-1
 612 668 l 1,3,-1
 685 668 l 1,4,-1
 543 0 l 1,5,-1
 441 0 l 1,6,-1
 226 595 l 1,7,-1
 100 0 l 1,8,-1
 27 0 l 1,9,-1
 169 668 l 1,0,-1
EndSplineSet
EndChar
StartChar: O
Encoding: 79 79 62
Width: 697
GlyphClass: 2
Flags: W
AnchorPoint: "Anchor-3" 778 668 basechar 0
AnchorPoint: "Anchor-2" 586 10 basechar 0
AnchorPoint: "Anchor-1" 429 668 basechar 0
AnchorPoint: "Anchor-0" 298 0 basechar 0
LayerCount: 2
Fore
SplineSet
186.5 22.5 m 128,-1,1
 126 57 126 57 92.5 121 c 128,-1,2
 59 185 59 185 59 270 c 0,3,4
 59 373 59 373 102 467.5 c 128,-1,5
 145 562 145 562 224 621 c 128,-1,6
 303 680 303 680 407 680 c 0,7,8
 487 680 487 680 547.5 645.5 c 128,-1,9
 608 611 608 611 641.5 547 c 128,-1,10
 675 483 675 483 675 398 c 0,11,12
 675 295 675 295 632 200.5 c 128,-1,13
 589 106 589 106 509.5 47 c 128,-1,14
 430 -12 430 -12 326 -12 c 0,15,0
 247 -12 247 -12 186.5 22.5 c 128,-1,1
477 105 m 128,-1,17
 538 159 538 159 568.5 239.5 c 128,-1,18
 599 320 599 320 599 396 c 0,19,20
 599 496 599 496 547.5 556.5 c 128,-1,21
 496 617 496 617 406 617 c 0,22,23
 318 617 318 617 256.5 563 c 128,-1,24
 195 509 195 509 164.5 428.5 c 128,-1,25
 134 348 134 348 134 272 c 0,26,27
 134 172 134 172 186 111.5 c 128,-1,28
 238 51 238 51 328 51 c 0,29,16
 416 51 416 51 477 105 c 128,-1,17
EndSplineSet
Substitution2: "Single Substitution lookup 15 subtable" ordmasculine
AlternateSubs2: "'aalt' Access All Alternates in Latin lookup 0 subtable" ordmasculine
EndChar
StartChar: P
Encoding: 80 80 71
Width: 575
GlyphClass: 2
Flags: W
AnchorPoint: "Anchor-1" 380 668 basechar 0
AnchorPoint: "Anchor-0" 238 0 basechar 0
LayerCount: 2
Fore
SplineSet
169 668 m 1,0,-1
 362 668 l 2,1,2
 470 668 470 668 532 622.5 c 128,-1,3
 594 577 594 577 594 496 c 0,4,5
 594 429 594 429 564 379 c 128,-1,6
 534 329 534 329 481.5 302.5 c 128,-1,7
 429 276 429 276 361 276 c 2,8,-1
 160 276 l 1,9,-1
 101 0 l 1,10,-1
 27 0 l 1,11,-1
 169 668 l 1,0,-1
474 379 m 128,-1,13
 518 418 518 418 518 491 c 0,14,15
 518 547 518 547 475.5 575.5 c 128,-1,16
 433 604 433 604 354 604 c 2,17,-1
 230 604 l 1,18,-1
 173 340 l 1,19,-1
 352 340 l 2,20,12
 430 340 430 340 474 379 c 128,-1,13
EndSplineSet
EndChar
StartChar: Q
Encoding: 81 81 73
Width: 708
GlyphClass: 1
Flags: W
LayerCount: 2
Fore
SplineSet
186.5 22.5 m 128,-1,1
 126 57 126 57 92.5 121 c 128,-1,2
 59 185 59 185 59 270 c 0,3,4
 59 373 59 373 102 467.5 c 128,-1,5
 145 562 145 562 224 621 c 128,-1,6
 303 680 303 680 407 680 c 0,7,8
 487 680 487 680 547.5 645.5 c 128,-1,9
 608 611 608 611 641.5 547 c 128,-1,10
 675 483 675 483 675 398 c 0,11,12
 675 321 675 321 649.5 246 c 128,-1,13
 624 171 624 171 578 113 c 1,14,-1
 669 6 l 1,15,-1
 616 -39 l 1,16,-1
 530 63 l 1,17,18
 440 -12 440 -12 326 -12 c 0,19,0
 247 -12 247 -12 186.5 22.5 c 128,-1,1
487 114 m 1,21,-1
 338 290 l 1,22,-1
 391 336 l 1,23,-1
 532 169 l 1,24,25
 565 219 565 219 582 279.5 c 128,-1,26
 599 340 599 340 599 396 c 0,27,28
 599 496 599 496 547.5 556.5 c 128,-1,29
 496 617 496 617 406 617 c 0,30,31
 318 617 318 617 256.5 563 c 128,-1,32
 195 509 195 509 164.5 428.5 c 128,-1,33
 134 348 134 348 134 272 c 0,34,35
 134 172 134 172 186 111.5 c 128,-1,36
 238 51 238 51 328 51 c 0,37,20
 419 51 419 51 487 114 c 1,21,-1
EndSplineSet
EndChar
StartChar: R
Encoding: 82 82 74
Width: 598
GlyphClass: 2
Flags: W
AnchorPoint: "Anchor-1" 362 668 basechar 0
AnchorPoint: "Anchor-0" 244 0 basechar 0
LayerCount: 2
Fore
SplineSet
169 668 m 1,0,-1
 376 668 l 2,1,2
 482 668 482 668 542 624 c 128,-1,3
 602 580 602 580 602 501 c 0,4,5
 602 439 602 439 574.5 390 c 128,-1,6
 547 341 547 341 496 313.5 c 128,-1,7
 445 286 445 286 375 286 c 2,8,-1
 356 286 l 1,9,-1
 513 0 l 1,10,-1
 429 0 l 1,11,-1
 277 284 l 1,12,-1
 162 284 l 1,13,-1
 101 0 l 1,14,-1
 27 0 l 1,15,-1
 169 668 l 1,0,-1
482 386 m 128,-1,17
 525 424 525 424 525 494 c 0,18,19
 525 549 525 549 484 576.5 c 128,-1,20
 443 604 443 604 366 604 c 2,21,-1
 230 604 l 1,22,-1
 175 348 l 1,23,-1
 368 348 l 2,24,16
 439 348 439 348 482 386 c 128,-1,17
EndSplineSet
EndChar
StartChar: S
Encoding: 83 83 77
Width: 586
GlyphClass: 2
Flags: W
AnchorPoint: "Anchor-1" 374 668 basechar 0
AnchorPoint: "Anchor-0" 270 0 basechar 0
LayerCount: 2
Fore
SplineSet
113.5 30 m 128,-1,1
 46 72 46 72 30 147 c 1,2,-1
 99 170 l 1,3,4
 110 114 110 114 160.5 82.5 c 128,-1,5
 211 51 211 51 279 51 c 0,6,7
 354 51 354 51 405.5 89 c 128,-1,8
 457 127 457 127 457 191 c 0,9,10
 457 226 457 226 429.5 252 c 128,-1,11
 402 278 402 278 336 302 c 2,12,-1
 250 334 l 2,13,14
 190 356 190 356 151 394 c 128,-1,15
 112 432 112 432 112 489 c 256,16,17
 112 546 112 546 145.5 589.5 c 128,-1,18
 179 633 179 633 234.5 656.5 c 128,-1,19
 290 680 290 680 353 680 c 0,20,21
 429 680 429 680 488.5 648.5 c 128,-1,22
 548 617 548 617 573 556 c 1,23,-1
 503 532 l 1,24,25
 487 572 487 572 441.5 594.5 c 128,-1,26
 396 617 396 617 344 617 c 0,27,28
 279 617 279 617 232.5 584.5 c 128,-1,29
 186 552 186 552 186 497 c 0,30,31
 186 464 186 464 211.5 439.5 c 128,-1,32
 237 415 237 415 279 399 c 2,33,-1
 368 367 l 2,34,35
 445 337 445 337 488 299.5 c 128,-1,36
 531 262 531 262 531 199 c 256,37,38
 531 136 531 136 495.5 88 c 128,-1,39
 460 40 460 40 400.5 14 c 128,-1,40
 341 -12 341 -12 270 -12 c 0,41,0
 181 -12 181 -12 113.5 30 c 128,-1,1
EndSplineSet
EndChar
StartChar: U
Encoding: 85 85 87
Width: 681
GlyphClass: 2
Flags: W
AnchorPoint: "Anchor-3" 756 668 basechar 0
AnchorPoint: "Anchor-2" 487 10 basechar 0
AnchorPoint: "Anchor-1" 430 668 basechar 0
AnchorPoint: "Anchor-0" 287 0 basechar 0
LayerCount: 2
Fore
SplineSet
78 198 m 0,1,2
 78 244 78 244 90 301 c 2,3,-1
 168 668 l 1,4,-1
 242 668 l 1,5,-1
 161 286 l 2,6,7
 151 236 151 236 151 205 c 0,8,9
 151 52 151 52 327 52 c 0,10,11
 409 52 409 52 458.5 100.5 c 128,-1,12
 508 149 508 149 529 250 c 2,13,-1
 618 668 l 1,14,-1
 692 668 l 1,15,-1
 602 248 l 2,16,17
 573 115 573 115 507.5 51.5 c 128,-1,18
 442 -12 442 -12 328 -12 c 0,19,0
 78 -12 78 -12 78 198 c 0,1,2
EndSplineSet
EndChar
StartChar: V
Encoding: 86 86 96
Width: 578
GlyphClass: 2
Flags: W
AnchorPoint: "Anchor-1" 378 668 basechar 0
AnchorPoint: "Anchor-0" 236 0 basechar 0
LayerCount: 2
Fore
SplineSet
103 668 m 1,0,-1
 176 668 l 1,1,-1
 250 86 l 1,2,-1
 574 668 l 1,3,-1
 653 668 l 1,4,-1
 275 0 l 1,5,-1
 194 0 l 1,6,-1
 103 668 l 1,0,-1
EndSplineSet
EndChar
StartChar: W
Encoding: 87 87 97
Width: 857
GlyphClass: 2
Flags: W
AnchorPoint: "Anchor-1" 515 668 basechar 0
AnchorPoint: "Anchor-0" 376 0 basechar 0
LayerCount: 2
Fore
SplineSet
110 668 m 1,0,-1
 183 668 l 1,1,-1
 201 89 l 1,2,-1
 477 668 l 1,3,-1
 553 668 l 1,4,-1
 582 89 l 1,5,-1
 846 668 l 1,6,-1
 924 668 l 1,7,-1
 608 0 l 1,8,-1
 524 0 l 1,9,-1
 493 557 l 1,10,-1
 226 0 l 1,11,-1
 141 0 l 1,12,-1
 110 668 l 1,0,-1
EndSplineSet
EndChar
StartChar: X
Encoding: 88 88 102
Width: 606
GlyphClass: 2
Flags: W
AnchorPoint: "Anchor-1" 392 668 basechar 0
AnchorPoint: "Anchor-0" 250 0 basechar 0
LayerCount: 2
Fore
SplineSet
277 346 m 1,0,-1
 115 668 l 1,1,-1
 200 668 l 1,2,-1
 332 403 l 1,3,-1
 578 668 l 1,4,-1
 668 668 l 1,5,-1
 368 343 l 1,6,-1
 540 0 l 1,7,-1
 455 0 l 1,8,-1
 312 285 l 1,9,-1
 49 0 l 1,10,-1
 -41 0 l 1,11,-1
 277 346 l 1,0,-1
EndSplineSet
EndChar
StartChar: Y
Encoding: 89 89 103
Width: 549
GlyphClass: 2
Flags: W
AnchorPoint: "Anchor-1" 360 668 basechar 0
AnchorPoint: "Anchor-0" 222 0 basechar 0
LayerCount: 2
Fore
SplineSet
242 267 m 1,0,-1
 89 668 l 1,1,-1
 171 668 l 1,2,-1
 290 341 l 1,3,-1
 547 668 l 1,4,-1
 638 668 l 1,5,-1
 316 267 l 1,6,-1
 259 0 l 1,7,-1
 185 0 l 1,8,-1
 242 267 l 1,0,-1
EndSplineSet
EndChar
StartChar: bracketleft
Encoding: 91 91 281
Width: 304
GlyphClass: 1
Flags: W
LayerCount: 2
Fore
SplineSet
178 708 m 1,0,-1
 369 708 l 1,1,-1
 357 652 l 1,2,-1
 234 652 l 1,3,-1
 72 -106 l 1,4,-1
 196 -106 l 1,5,-1
 185 -162 l 1,6,-1
 -6 -162 l 1,7,-1
 178 708 l 1,0,-1
EndSplineSet
EndChar
StartChar: bracketright
Encoding: 93 93 282
Width: 301
GlyphClass: 1
Flags: W
LayerCount: 2
Fore
SplineSet
-45 -106 m 1,0,-1
 79 -106 l 1,1,-1
 240 652 l 1,2,-1
 116 652 l 1,3,-1
 128 708 l 1,4,-1
 318 708 l 1,5,-1
 134 -162 l 1,6,-1
 -56 -162 l 1,7,-1
 -45 -106 l 1,0,-1
EndSplineSet
EndChar
StartChar: asciicircum
Encoding: 94 94 334
Width: 541
GlyphClass: 1
Flags: W
LayerCount: 2
Fore
SplineSet
328 668 m 1,0,-1
 392 668 l 1,1,-1
 502 311 l 1,2,-1
 433 311 l 1,3,-1
 347 593 l 1,4,-1
 143 311 l 1,5,-1
 66 311 l 1,6,-1
 328 668 l 1,0,-1
EndSplineSet
EndChar
StartChar: a
Encoding: 97 97 112
Width: 514
GlyphClass: 2
Flags: W
AnchorPoint: "Anchor-2" 404 10 basechar 0
AnchorPoint: "Anchor-1" 298 496 basechar 0
AnchorPoint: "Anchor-0" 199 0 basechar 0
LayerCount: 2
Fore
SplineSet
52 20.5 m 128,-1,1
 7 53 7 53 7 114 c 0,2,3
 7 212 7 212 100 256.5 c 128,-1,4
 193 301 193 301 382 300 c 1,5,-1
 384 310 l 2,6,7
 389 335 389 335 389 352 c 0,8,9
 389 398 389 398 362 423.5 c 128,-1,10
 335 449 335 449 281 449 c 0,11,12
 236 449 236 449 201 429 c 128,-1,13
 166 409 166 409 153 368 c 1,14,-1
 86 386 l 1,15,16
 112 446 112 446 165.5 475.5 c 128,-1,17
 219 505 219 505 284 505 c 0,18,19
 366 505 366 505 410 466.5 c 128,-1,20
 454 428 454 428 454 355 c 0,21,22
 454 325 454 325 447 294 c 2,23,-1
 426 193 l 2,24,25
 402 84 402 84 402 0 c 1,26,-1
 344 0 l 1,27,-1
 342 77 l 1,28,29
 315 38 315 38 268.5 13 c 128,-1,30
 222 -12 222 -12 161 -12 c 0,31,0
 97 -12 97 -12 52 20.5 c 128,-1,1
293.5 82 m 128,-1,33
 344 120 344 120 360 197 c 2,34,-1
 371 247 l 1,35,36
 219 247 219 247 148.5 217.5 c 128,-1,37
 78 188 78 188 78 124 c 0,38,39
 78 85 78 85 107.5 64.5 c 128,-1,40
 137 44 137 44 182 44 c 0,41,32
 243 44 243 44 293.5 82 c 128,-1,33
EndSplineSet
Substitution2: "Single Substitution lookup 15 subtable" ordfeminine
AlternateSubs2: "'aalt' Access All Alternates in Latin lookup 0 subtable" ordfeminine
EndChar
StartChar: b
Encoding: 98 98 123
Width: 555
GlyphClass: 2
Flags: W
AnchorPoint: "Anchor-1" 334 496 basechar 0
AnchorPoint: "Anchor-0" 229 0 basechar 0
LayerCount: 2
Fore
SplineSet
163 16 m 128,-1,1
 121 44 121 44 110 91 c 1,2,-1
 72 0 l 1,3,-1
 22 0 l 1,4,-1
 172 708 l 1,5,-1
 240 708 l 1,6,-1
 177 417 l 1,7,8
 204 457 204 457 249.5 481 c 128,-1,9
 295 505 295 505 347 505 c 0,10,11
 428 505 428 505 474.5 449 c 128,-1,12
 521 393 521 393 521 301 c 0,13,14
 521 228 521 228 491.5 156 c 128,-1,15
 462 84 462 84 403 36 c 128,-1,16
 344 -12 344 -12 260 -12 c 0,17,0
 205 -12 205 -12 163 16 c 128,-1,1
366.5 87 m 128,-1,19
 409 127 409 127 429 185 c 128,-1,20
 449 243 449 243 449 298 c 0,21,22
 449 366 449 366 416.5 406 c 128,-1,23
 384 446 384 446 325 446 c 0,24,25
 263 446 263 446 220.5 403 c 128,-1,26
 178 360 178 360 157 299 c 128,-1,27
 136 238 136 238 136 184 c 0,28,29
 136 118 136 118 167.5 82.5 c 128,-1,30
 199 47 199 47 259 47 c 0,31,18
 324 47 324 47 366.5 87 c 128,-1,19
EndSplineSet
EndChar
StartChar: c
Encoding: 99 99 124
Width: 477
GlyphClass: 2
Flags: W
AnchorPoint: "Anchor-1" 314 496 basechar 0
AnchorPoint: "Anchor-0" 216 0 basechar 0
LayerCount: 2
Fore
SplineSet
86.5 47 m 128,-1,1
 35 106 35 106 35 197 c 0,2,3
 35 275 35 275 68.5 346 c 128,-1,4
 102 417 102 417 162 461 c 128,-1,5
 222 505 222 505 298 505 c 0,6,7
 362 505 362 505 407 474.5 c 128,-1,8
 452 444 452 444 472 391 c 1,9,-1
 410 370 l 1,10,11
 397 406 397 406 366.5 425.5 c 128,-1,12
 336 445 336 445 295 445 c 0,13,14
 232 445 232 445 188.5 405.5 c 128,-1,15
 145 366 145 366 124.5 309 c 128,-1,16
 104 252 104 252 104 199 c 0,17,18
 104 131 104 131 138 89.5 c 128,-1,19
 172 48 172 48 237 48 c 0,20,21
 278 48 278 48 312.5 65 c 128,-1,22
 347 82 347 82 368 117 c 1,23,-1
 431 92 l 1,24,25
 392 38 392 38 340 13 c 128,-1,26
 288 -12 288 -12 231 -12 c 0,27,0
 138 -12 138 -12 86.5 47 c 128,-1,1
EndSplineSet
EndChar
StartChar: d
Encoding: 100 100 129
Width: 556
GlyphClass: 2
Flags: W
AnchorPoint: "Anchor-3" 576 498 basechar 0
AnchorPoint: "Anchor-1" 388 796 basechar 0
AnchorPoint: "Anchor-0" 219 0 basechar 0
LayerCount: 2
Fore
SplineSet
80.5 44 m 128,-1,1
 34 100 34 100 34 192 c 0,2,3
 34 264 34 264 63.5 336.5 c 128,-1,4
 93 409 93 409 152 457 c 128,-1,5
 211 505 211 505 295 505 c 0,6,7
 349 505 349 505 390.5 477.5 c 128,-1,8
 432 450 432 450 445 404 c 1,9,-1
 511 708 l 1,10,-1
 579 708 l 1,11,-1
 468 185 l 2,12,13
 448 92 448 92 445 0 c 1,14,-1
 382 0 l 1,15,-1
 376 73 l 1,16,17
 348 34 348 34 303.5 11 c 128,-1,18
 259 -12 259 -12 208 -12 c 0,19,0
 127 -12 127 -12 80.5 44 c 128,-1,1
333 89.5 m 128,-1,21
 376 132 376 132 397.5 193.5 c 128,-1,22
 419 255 419 255 419 310 c 0,23,24
 419 375 419 375 387 410.5 c 128,-1,25
 355 446 355 446 296 446 c 0,26,27
 231 446 231 446 188.5 406 c 128,-1,28
 146 366 146 366 126 308 c 128,-1,29
 106 250 106 250 106 195 c 0,30,31
 106 128 106 128 138.5 87.5 c 128,-1,32
 171 47 171 47 230 47 c 0,33,20
 290 47 290 47 333 89.5 c 128,-1,21
EndSplineSet
EndChar
StartChar: e
Encoding: 101 101 133
Width: 530
GlyphClass: 2
Flags: W
AnchorPoint: "Anchor-2" 394 10 basechar 0
AnchorPoint: "Anchor-1" 317 496 basechar 0
AnchorPoint: "Anchor-0" 211 0 basechar 0
LayerCount: 2
Fore
SplineSet
92 46 m 128,-1,1
 35 104 35 104 35 199 c 0,2,3
 35 276 35 276 68.5 346.5 c 128,-1,4
 102 417 102 417 163 461 c 128,-1,5
 224 505 224 505 301 505 c 0,6,7
 360 505 360 505 405 478 c 128,-1,8
 450 451 450 451 474 404.5 c 128,-1,9
 498 358 498 358 498 299 c 0,10,11
 498 266 498 266 491 235 c 1,12,-1
 105 235 l 1,13,14
 104 227 104 227 104 211 c 0,15,16
 104 135 104 135 144 91.5 c 128,-1,17
 184 48 184 48 250 48 c 0,18,19
 334 48 334 48 379 107 c 1,20,-1
 444 81 l 1,21,22
 402 31 402 31 355 9.5 c 128,-1,23
 308 -12 308 -12 248 -12 c 0,24,0
 149 -12 149 -12 92 46 c 128,-1,1
433 308 m 0,26,27
 433 368 433 368 396.5 407 c 128,-1,28
 360 446 360 446 297 446 c 0,29,30
 227 446 227 446 182 401 c 128,-1,31
 137 356 137 356 117 290 c 1,32,-1
 432 290 l 1,33,25
 433 296 433 296 433 308 c 0,26,27
EndSplineSet
EndChar
StartChar: f
Encoding: 102 102 142
Width: 299
GlyphClass: 2
Flags: W
AnchorPoint: "Anchor-1" 246 796 basechar 0
AnchorPoint: "Anchor-0" 77 0 basechar 0
LayerCount: 2
Fore
SplineSet
142 441 m 1,0,-1
 58 441 l 1,1,-1
 70 496 l 1,2,-1
 154 496 l 1,3,-1
 177 605 l 2,4,5
 187 651 187 651 200.5 674.5 c 128,-1,6
 214 698 214 698 234 707 c 128,-1,7
 254 716 254 716 287 716 c 2,8,-1
 370 716 l 1,9,-1
 358 658 l 1,10,-1
 299 658 l 2,11,12
 273 658 273 658 262.5 646.5 c 128,-1,13
 252 635 252 635 244 601 c 2,14,-1
 222 496 l 1,15,-1
 323 496 l 1,16,-1
 311 441 l 1,17,-1
 210 441 l 1,18,-1
 117 0 l 1,19,-1
 49 0 l 1,20,-1
 142 441 l 1,0,-1
EndSplineSet
EndChar
StartChar: g
Encoding: 103 103 143
Width: 548
GlyphClass: 2
Flags: W
AnchorPoint: "Anchor-1" 318 496 basechar 0
AnchorPoint: "Anchor-0" 164 -251 basechar 0
LayerCount: 2
Fore
SplineSet
83 -159 m 128,-1,1
 28 -129 28 -129 17 -71 c 1,2,-1
 85 -53 l 1,3,4
 93 -90 93 -90 127.5 -109.5 c 128,-1,5
 162 -129 162 -129 210 -129 c 0,6,7
 326 -129 326 -129 352 -9 c 2,8,-1
 372 86 l 1,9,10
 344 51 344 51 305 28.5 c 128,-1,11
 266 6 266 6 216 6 c 0,12,13
 132 6 132 6 84 61 c 128,-1,14
 36 116 36 116 36 205 c 0,15,16
 36 282 36 282 67.5 351 c 128,-1,17
 99 420 99 420 157 462.5 c 128,-1,18
 215 505 215 505 291 505 c 0,19,20
 340 505 340 505 381 480 c 128,-1,21
 422 455 422 455 441 409 c 1,22,-1
 478 496 l 1,23,-1
 528 496 l 1,24,-1
 419 -19 l 2,25,26
 401 -101 401 -101 344.5 -145 c 128,-1,27
 288 -189 288 -189 205 -189 c 0,28,0
 138 -189 138 -189 83 -159 c 128,-1,1
334 106 m 128,-1,30
 375 147 375 147 395 205 c 128,-1,31
 415 263 415 263 415 314 c 0,32,33
 415 376 415 376 383 411 c 128,-1,34
 351 446 351 446 295 446 c 0,35,36
 230 446 230 446 188 407 c 128,-1,37
 146 368 146 368 126.5 312.5 c 128,-1,38
 107 257 107 257 107 207 c 0,39,40
 107 143 107 143 141.5 104 c 128,-1,41
 176 65 176 65 233 65 c 0,42,29
 293 65 293 65 334 106 c 128,-1,30
EndSplineSet
EndChar
StartChar: h
Encoding: 104 104 147
Width: 544
GlyphClass: 2
Flags: W
AnchorPoint: "Anchor-1" 384 796 basechar 0
AnchorPoint: "Anchor-0" 215 0 basechar 0
LayerCount: 2
Fore
SplineSet
172 708 m 1,0,-1
 240 708 l 1,1,-1
 179 420 l 1,2,3
 204 457 204 457 248 481 c 128,-1,4
 292 505 292 505 347 505 c 0,5,6
 410 505 410 505 450 468.5 c 128,-1,7
 490 432 490 432 490 363 c 0,8,9
 490 337 490 337 484 307 c 2,10,-1
 418 0 l 1,11,-1
 350 0 l 1,12,-1
 413 295 l 2,13,14
 419 324 419 324 419 346 c 0,15,16
 419 394 419 394 394.5 419.5 c 128,-1,17
 370 445 370 445 323 445 c 0,18,19
 256 445 256 445 210 399 c 128,-1,20
 164 353 164 353 147 270 c 2,21,-1
 90 0 l 1,22,-1
 22 0 l 1,23,-1
 172 708 l 1,0,-1
EndSplineSet
EndChar
StartChar: l
Encoding: 108 108 163
Width: 248
GlyphClass: 2
Flags: W
AnchorPoint: "Anchor-3" 232 499 basechar 0
AnchorPoint: "Anchor-1" 224 796 basechar 0
AnchorPoint: "Anchor-0" 71 0 basechar 0
LayerCount: 2
Fore
SplineSet
60.5 16.5 m 128,-1,1
 36 33 36 33 36 70 c 0,2,3
 36 85 36 85 41 112 c 2,4,-1
 168 708 l 1,5,-1
 236 708 l 1,6,-1
 110 115 l 2,7,8
 106 95 106 95 106 90 c 0,9,10
 106 73 106 73 118 66 c 128,-1,11
 130 59 130 59 157 59 c 2,12,-1
 186 59 l 1,13,-1
 174 0 l 1,14,-1
 144 0 l 2,15,0
 85 0 85 0 60.5 16.5 c 128,-1,1
EndSplineSet
EndChar
StartChar: m
Encoding: 109 109 167
Width: 836
GlyphClass: 2
Flags: W
AnchorPoint: "Anchor-1" 463 496 basechar 0
AnchorPoint: "Anchor-0" 357 0 basechar 0
LayerCount: 2
Fore
SplineSet
127 496 m 1,0,-1
 177 496 l 1,1,-1
 175 419 l 1,2,3
 203 458 203 458 245 481.5 c 128,-1,4
 287 505 287 505 338 505 c 0,5,6
 386 505 386 505 421.5 479 c 128,-1,7
 457 453 457 453 468 402 c 1,8,9
 505 455 505 455 548.5 480 c 128,-1,10
 592 505 592 505 647 505 c 0,11,12
 705 505 705 505 743.5 468.5 c 128,-1,13
 782 432 782 432 782 363 c 0,14,15
 782 337 782 337 776 307 c 2,16,-1
 710 0 l 1,17,-1
 642 0 l 1,18,-1
 706 295 l 2,19,20
 712 324 712 324 712 347 c 0,21,22
 712 394 712 394 689.5 419.5 c 128,-1,23
 667 445 667 445 624 445 c 0,24,25
 566 445 566 445 521.5 400.5 c 128,-1,26
 477 356 477 356 458 270 c 2,27,-1
 400 0 l 1,28,-1
 332 0 l 1,29,-1
 395 295 l 2,30,31
 401 324 401 324 401 347 c 0,32,33
 401 394 401 394 378 419.5 c 128,-1,34
 355 445 355 445 313 445 c 0,35,36
 253 445 253 445 208 398.5 c 128,-1,37
 163 352 163 352 146 270 c 2,38,-1
 89 0 l 1,39,-1
 21 0 l 1,40,-1
 127 496 l 1,0,-1
EndSplineSet
EndChar
StartChar: n
Encoding: 110 110 168
Width: 543
GlyphClass: 2
Flags: W
AnchorPoint: "Anchor-1" 325 496 basechar 0
AnchorPoint: "Anchor-0" 219 0 basechar 0
LayerCount: 2
Fore
SplineSet
127 496 m 1,0,-1
 177 496 l 1,1,-1
 175 419 l 1,2,3
 202 457 202 457 246.5 481 c 128,-1,4
 291 505 291 505 346 505 c 0,5,6
 409 505 409 505 449 468.5 c 128,-1,7
 489 432 489 432 489 364 c 0,8,9
 489 344 489 344 482 307 c 2,10,-1
 417 0 l 1,11,-1
 349 0 l 1,12,-1
 412 295 l 2,13,14
 418 324 418 324 418 346 c 0,15,16
 418 394 418 394 393.5 419.5 c 128,-1,17
 369 445 369 445 322 445 c 0,18,19
 256 445 256 445 210 399.5 c 128,-1,20
 164 354 164 354 146 270 c 2,21,-1
 89 0 l 1,22,-1
 21 0 l 1,23,-1
 127 496 l 1,0,-1
EndSplineSet
EndChar
StartChar: o
Encoding: 111 111 173
Width: 538
GlyphClass: 2
Flags: W
AnchorPoint: "Anchor-3" 575 496 basechar 0
AnchorPoint: "Anchor-2" 437 10 basechar 0
AnchorPoint: "Anchor-1" 319 496 basechar 0
AnchorPoint: "Anchor-0" 216 0 basechar 0
LayerCount: 2
Fore
SplineSet
128 15.5 m 128,-1,1
 83 43 83 43 59 91.5 c 128,-1,2
 35 140 35 140 35 201 c 0,3,4
 35 278 35 278 68.5 348 c 128,-1,5
 102 418 102 418 163 461.5 c 128,-1,6
 224 505 224 505 303 505 c 0,7,8
 364 505 364 505 409 477.5 c 128,-1,9
 454 450 454 450 478 401.5 c 128,-1,10
 502 353 502 353 502 292 c 0,11,12
 502 215 502 215 468.5 145 c 128,-1,13
 435 75 435 75 374 31.5 c 128,-1,14
 313 -12 313 -12 234 -12 c 0,15,0
 173 -12 173 -12 128 15.5 c 128,-1,1
346.5 86.5 m 128,-1,17
 390 125 390 125 411 181.5 c 128,-1,18
 432 238 432 238 432 292 c 0,19,20
 432 360 432 360 398 402.5 c 128,-1,21
 364 445 364 445 298 445 c 0,22,23
 234 445 234 445 190.5 406.5 c 128,-1,24
 147 368 147 368 126 311.5 c 128,-1,25
 105 255 105 255 105 201 c 0,26,27
 105 133 105 133 139 90.5 c 128,-1,28
 173 48 173 48 239 48 c 0,29,16
 303 48 303 48 346.5 86.5 c 128,-1,17
EndSplineSet
Substitution2: "Single Substitution lookup 15 subtable" ordmasculine
AlternateSubs2: "'aalt' Access All Alternates in Latin lookup 0 subtable" ordmasculine
EndChar
StartChar: p
Encoding: 112 112 182
Width: 555
GlyphClass: 2
Flags: W
AnchorPoint: "Anchor-1" 331 496 basechar 0
AnchorPoint: "Anchor-0" 225 0 basechar 0
LayerCount: 2
Fore
SplineSet
127 496 m 1,0,-1
 176 496 l 1,1,-1
 177 418 l 1,2,3
 204 457 204 457 249.5 481 c 128,-1,4
 295 505 295 505 347 505 c 0,5,6
 428 505 428 505 474 449 c 128,-1,7
 520 393 520 393 520 301 c 0,8,9
 520 228 520 228 490.5 156 c 128,-1,10
 461 84 461 84 402 36 c 128,-1,11
 343 -12 343 -12 259 -12 c 0,12,13
 205 -12 205 -12 163 16 c 128,-1,14
 121 44 121 44 109 91 c 1,15,-1
 55 -162 l 1,16,-1
 -13 -162 l 1,17,-1
 127 496 l 1,0,-1
366.5 87 m 128,-1,19
 409 127 409 127 428.5 185 c 128,-1,20
 448 243 448 243 448 298 c 0,21,22
 448 366 448 366 416 406 c 128,-1,23
 384 446 384 446 324 446 c 0,24,25
 263 446 263 446 220 403 c 128,-1,26
 177 360 177 360 156 299 c 128,-1,27
 135 238 135 238 135 184 c 0,28,29
 135 118 135 118 167 82.5 c 128,-1,30
 199 47 199 47 259 47 c 0,31,18
 324 47 324 47 366.5 87 c 128,-1,19
EndSplineSet
EndChar
StartChar: q
Encoding: 113 113 184
Width: 562
GlyphClass: 2
Flags: W
AnchorPoint: "Anchor-1" 327 496 basechar 0
AnchorPoint: "Anchor-0" 222 0 basechar 0
LayerCount: 2
Fore
SplineSet
347 -81 m 0,1,2
 347 -64 347 -64 352 -37 c 2,3,-1
 374 71 l 1,4,5
 345 31 345 31 301 9.5 c 128,-1,6
 257 -12 257 -12 208 -12 c 0,7,8
 127 -12 127 -12 80.5 44 c 128,-1,9
 34 100 34 100 34 192 c 0,10,11
 34 264 34 264 63.5 336.5 c 128,-1,12
 93 409 93 409 152 457 c 128,-1,13
 211 505 211 505 295 505 c 0,14,15
 349 505 349 505 390.5 478 c 128,-1,16
 432 451 432 451 445 406 c 1,17,-1
 483 496 l 1,18,-1
 533 496 l 1,19,-1
 421 -33 l 2,20,21
 418 -47 418 -47 418 -60 c 0,22,23
 418 -111 418 -111 479 -111 c 0,24,25
 510 -111 510 -111 532 -102 c 1,26,-1
 519 -164 l 1,27,28
 491 -174 491 -174 462 -174 c 0,29,0
 347 -174 347 -174 347 -81 c 0,1,2
333 89.5 m 128,-1,31
 376 132 376 132 397.5 193.5 c 128,-1,32
 419 255 419 255 419 310 c 0,33,34
 419 375 419 375 387 410.5 c 128,-1,35
 355 446 355 446 296 446 c 0,36,37
 231 446 231 446 188.5 406 c 128,-1,38
 146 366 146 366 126 308 c 128,-1,39
 106 250 106 250 106 195 c 0,40,41
 106 128 106 128 138.5 87.5 c 128,-1,42
 171 47 171 47 230 47 c 0,43,30
 290 47 290 47 333 89.5 c 128,-1,31
EndSplineSet
EndChar
StartChar: r
Encoding: 114 114 185
Width: 336
GlyphClass: 2
Flags: W
AnchorPoint: "Anchor-1" 239 496 basechar 0
AnchorPoint: "Anchor-0" 111 0 basechar 0
LayerCount: 2
Fore
SplineSet
127 496 m 1,0,-1
 178 496 l 1,1,-1
 176 402 l 1,2,3
 206 445 206 445 260 475 c 128,-1,4
 314 505 314 505 374 502 c 1,5,-1
 359 436 l 1,6,7
 182 436 182 436 138 228 c 2,8,-1
 90 0 l 1,9,-1
 22 0 l 1,10,-1
 127 496 l 1,0,-1
EndSplineSet
EndChar
StartChar: s
Encoding: 115 115 188
Width: 458
GlyphClass: 2
Flags: W
AnchorPoint: "Anchor-1" 276 496 basechar 0
AnchorPoint: "Anchor-0" 193 0 basechar 0
LayerCount: 2
Fore
SplineSet
84 22.5 m 128,-1,1
 28 57 28 57 12 115 c 1,2,-1
 79 139 l 1,3,4
 87 95 87 95 124.5 71 c 128,-1,5
 162 47 162 47 213 47 c 256,6,7
 264 47 264 47 299 72 c 128,-1,8
 334 97 334 97 334 138 c 0,9,10
 334 169 334 169 309.5 188 c 128,-1,11
 285 207 285 207 235 225 c 2,12,-1
 188 241 l 2,13,14
 131 262 131 262 102 289.5 c 128,-1,15
 73 317 73 317 73 359 c 0,16,17
 73 405 73 405 99 438 c 128,-1,18
 125 471 125 471 167.5 488.5 c 128,-1,19
 210 506 210 506 260 506 c 0,20,21
 319 506 319 506 368 479 c 128,-1,22
 417 452 417 452 434 404 c 1,23,-1
 369 379 l 1,24,25
 359 412 359 412 326.5 429.5 c 128,-1,26
 294 447 294 447 254 447 c 0,27,28
 208 447 208 447 173.5 428 c 128,-1,29
 139 409 139 409 139 371 c 0,30,31
 139 344 139 344 158.5 327.5 c 128,-1,32
 178 311 178 311 219 296 c 2,33,-1
 265 280 l 2,34,35
 334 255 334 255 367.5 225.5 c 128,-1,36
 401 196 401 196 401 150 c 0,37,38
 401 101 401 101 375 64 c 128,-1,39
 349 27 349 27 305 7.5 c 128,-1,40
 261 -12 261 -12 208 -12 c 0,41,0
 140 -12 140 -12 84 22.5 c 128,-1,1
EndSplineSet
EndChar
StartChar: t
Encoding: 116 116 194
Width: 309
GlyphClass: 2
Flags: W
AnchorPoint: "Anchor-3" 264 543 basechar 0
AnchorPoint: "Anchor-1" 209 496 basechar 0
AnchorPoint: "Anchor-0" 139 0 basechar 0
LayerCount: 2
Fore
SplineSet
100 17 m 128,-1,1
 72 34 72 34 72 76 c 0,2,3
 72 94 72 94 79 131 c 2,4,-1
 145 441 l 1,5,-1
 61 441 l 1,6,-1
 72 496 l 1,7,-1
 157 496 l 1,8,-1
 184 620 l 1,9,-1
 252 620 l 1,10,-1
 225 496 l 1,11,-1
 327 496 l 1,12,-1
 315 441 l 1,13,-1
 213 441 l 1,14,-1
 148 132 l 2,15,16
 143 109 143 109 143 96 c 0,17,18
 143 76 143 76 156 68 c 128,-1,19
 169 60 169 60 204 60 c 2,20,-1
 234 60 l 1,21,-1
 221 0 l 1,22,-1
 197 0 l 2,23,0
 128 0 128 0 100 17 c 128,-1,1
EndSplineSet
EndChar
StartChar: u
Encoding: 117 117 198
Width: 533
GlyphClass: 2
Flags: W
AnchorPoint: "Anchor-3" 550 496 basechar 0
AnchorPoint: "Anchor-2" 408 10 basechar 0
AnchorPoint: "Anchor-1" 309 496 basechar 0
AnchorPoint: "Anchor-0" 203 0 basechar 0
LayerCount: 2
Fore
SplineSet
92 24 m 128,-1,1
 53 60 53 60 53 129 c 0,2,3
 53 150 53 150 60 187 c 2,4,-1
 126 496 l 1,5,-1
 194 496 l 1,6,-1
 130 199 l 2,7,8
 125 177 125 177 125 148 c 0,9,10
 125 100 125 100 148 74 c 128,-1,11
 171 48 171 48 216 48 c 0,12,13
 278 48 278 48 323.5 96 c 128,-1,14
 369 144 369 144 386 226 c 2,15,-1
 443 496 l 1,16,-1
 511 496 l 1,17,-1
 406 0 l 1,18,-1
 352 0 l 1,19,-1
 357 77 l 1,20,21
 330 38 330 38 286.5 13 c 128,-1,22
 243 -12 243 -12 190 -12 c 0,23,0
 131 -12 131 -12 92 24 c 128,-1,1
EndSplineSet
EndChar
StartChar: v
Encoding: 118 118 207
Width: 437
GlyphClass: 2
Flags: W
AnchorPoint: "Anchor-1" 272 496 basechar 0
AnchorPoint: "Anchor-0" 166 0 basechar 0
LayerCount: 2
Fore
SplineSet
63 496 m 1,0,-1
 131 496 l 1,1,-1
 184 95 l 1,2,-1
 407 496 l 1,3,-1
 480 496 l 1,4,-1
 196 0 l 1,5,-1
 135 0 l 1,6,-1
 63 496 l 1,0,-1
EndSplineSet
EndChar
StartChar: w
Encoding: 119 119 208
Width: 664
GlyphClass: 2
Flags: W
AnchorPoint: "Anchor-1" 384 496 basechar 0
AnchorPoint: "Anchor-0" 279 0 basechar 0
LayerCount: 2
Fore
SplineSet
68 496 m 1,0,-1
 137 496 l 1,1,-1
 161 112 l 1,2,-1
 350 496 l 1,3,-1
 416 496 l 1,4,-1
 444 110 l 1,5,-1
 630 496 l 1,6,-1
 702 496 l 1,7,-1
 453 0 l 1,8,-1
 395 0 l 1,9,-1
 367 413 l 1,10,-1
 163 0 l 1,11,-1
 107 0 l 1,12,-1
 68 496 l 1,0,-1
EndSplineSet
EndChar
StartChar: x
Encoding: 120 120 213
Width: 461
GlyphClass: 2
Flags: W
AnchorPoint: "Anchor-1" 284 496 basechar 0
AnchorPoint: "Anchor-0" 178 0 basechar 0
LayerCount: 2
Fore
SplineSet
190 258 m 1,0,-1
 70 496 l 1,1,-1
 142 496 l 1,2,-1
 238 303 l 1,3,-1
 413 496 l 1,4,-1
 496 496 l 1,5,-1
 271 249 l 1,6,-1
 398 0 l 1,7,-1
 325 0 l 1,8,-1
 222 203 l 1,9,-1
 41 0 l 1,10,-1
 -43 0 l 1,11,-1
 190 258 l 1,0,-1
EndSplineSet
EndChar
StartChar: y
Encoding: 121 121 214
Width: 428
GlyphClass: 2
Flags: W
AnchorPoint: "Anchor-1" 263 496 basechar 0
AnchorPoint: "Anchor-0" 159 0 basechar 0
LayerCount: 2
Fore
SplineSet
-35 -102 m 1,0,-1
 19 -102 l 2,1,2
 55 -102 55 -102 74.5 -86.5 c 128,-1,3
 94 -71 94 -71 112 -33 c 2,4,-1
 134 13 l 1,5,-1
 63 496 l 1,6,-1
 132 496 l 1,7,-1
 186 96 l 1,8,-1
 398 496 l 1,9,-1
 471 496 l 1,10,-1
 174 -44 l 2,11,12
 147 -92 147 -92 126.5 -117 c 128,-1,13
 106 -142 106 -142 83.5 -152 c 128,-1,14
 61 -162 61 -162 27 -162 c 2,15,-1
 -48 -162 l 1,16,-1
 -35 -102 l 1,0,-1
EndSplineSet
EndChar
StartChar: z
Encoding: 122 122 219
Width: 441
GlyphClass: 2
Flags: W
AnchorPoint: "Anchor-1" 282 496 basechar 0
AnchorPoint: "Anchor-0" 165 0 basechar 0
LayerCount: 2
Fore
SplineSet
-1 60 m 1,0,-1
 356 436 l 1,1,-1
 88 436 l 1,2,-1
 100 496 l 1,3,-1
 455 496 l 1,4,-1
 442 436 l 1,5,-1
 87 60 l 1,6,-1
 371 60 l 1,7,-1
 358 0 l 1,8,-1
 -14 0 l 1,9,-1
 -1 60 l 1,0,-1
EndSplineSet
EndChar
StartChar: braceleft
Encoding: 123 123 279
Width: 326
GlyphClass: 1
Flags: W
LayerCount: 2
Fore
SplineSet
90.5 -146 m 128,-1,1
 66 -130 66 -130 66 -93 c 0,2,3
 66 -70 66 -70 76 -23 c 2,4,-1
 114 149 l 2,5,6
 119 172 119 172 119 187 c 0,7,8
 119 212 119 212 102 226.5 c 128,-1,9
 85 241 85 241 42 245 c 1,10,-1
 53 301 l 1,11,12
 93 301 93 301 114.5 311 c 128,-1,13
 136 321 136 321 146 338.5 c 128,-1,14
 156 356 156 356 163 389 c 2,15,-1
 208 591 l 2,16,17
 220 643 220 643 230.5 666 c 128,-1,18
 241 689 241 689 261.5 698.5 c 128,-1,19
 282 708 282 708 326 708 c 2,20,-1
 389 708 l 1,21,-1
 378 652 l 1,22,-1
 333 652 l 2,23,24
 310 652 310 652 300 647 c 128,-1,25
 290 642 290 642 285 630 c 128,-1,26
 280 618 280 618 273 587 c 2,27,-1
 230 386 l 2,28,29
 218 328 218 328 195 302 c 128,-1,30
 172 276 172 276 134 269 c 1,31,-1
 133 264 l 1,32,33
 158 255 158 255 171 236.5 c 128,-1,34
 184 218 184 218 184 186 c 0,35,36
 184 161 184 161 177 132 c 2,37,-1
 141 -32 l 2,38,39
 134 -65 134 -65 134 -77 c 0,40,41
 134 -93 134 -93 143.5 -99.5 c 128,-1,42
 153 -106 153 -106 178 -106 c 2,43,-1
 216 -106 l 1,44,-1
 205 -162 l 1,45,-1
 178 -162 l 2,46,0
 115 -162 115 -162 90.5 -146 c 128,-1,1
EndSplineSet
EndChar
StartChar: braceright
Encoding: 125 125 280
Width: 326
GlyphClass: 1
Flags: W
LayerCount: 2
Fore
SplineSet
-41 -106 m 1,0,-1
 4 -106 l 2,1,2
 27 -106 27 -106 37 -101 c 128,-1,3
 47 -96 47 -96 52 -84 c 128,-1,4
 57 -72 57 -72 64 -41 c 2,5,-1
 107 160 l 2,6,7
 119 218 119 218 142 244 c 128,-1,8
 165 270 165 270 203 277 c 1,9,-1
 204 282 l 1,10,11
 179 291 179 291 166 309.5 c 128,-1,12
 153 328 153 328 153 360 c 0,13,14
 153 385 153 385 160 414 c 2,15,-1
 196 578 l 2,16,17
 203 611 203 611 203 623 c 0,18,19
 203 639 203 639 193.5 645.5 c 128,-1,20
 184 652 184 652 159 652 c 2,21,-1
 121 652 l 1,22,-1
 132 708 l 1,23,-1
 160 708 l 2,24,25
 223 708 223 708 247 692 c 128,-1,26
 271 676 271 676 271 639 c 0,27,28
 271 616 271 616 261 569 c 2,29,-1
 223 397 l 2,30,31
 218 374 218 374 218 359 c 0,32,33
 218 334 218 334 235 319.5 c 128,-1,34
 252 305 252 305 295 301 c 1,35,-1
 284 245 l 1,36,37
 244 245 244 245 222.5 235 c 128,-1,38
 201 225 201 225 191 207.5 c 128,-1,39
 181 190 181 190 174 157 c 2,40,-1
 129 -45 l 2,41,42
 117 -97 117 -97 106.5 -120 c 128,-1,43
 96 -143 96 -143 75.5 -152.5 c 128,-1,44
 55 -162 55 -162 11 -162 c 2,45,-1
 -52 -162 l 1,46,-1
 -41 -106 l 1,0,-1
EndSplineSet
EndChar
StartChar: asciitilde
Encoding: 126 126 333
Width: 561
GlyphClass: 1
Flags: W
LayerCount: 2
Fore
SplineSet
85.5 290.5 m 128,-1,1
 122 323 122 323 176 323 c 0,2,3
 206 323 206 323 232 314 c 128,-1,4
 258 305 258 305 292 289 c 0,5,6
 327 273 327 273 347.5 266 c 128,-1,7
 368 259 368 259 390 259 c 0,8,9
 424 259 424 259 445 277.5 c 128,-1,10
 466 296 466 296 477 333 c 1,11,-1
 534 318 l 1,12,13
 516 261 516 261 480 228.5 c 128,-1,14
 444 196 444 196 390 196 c 0,15,16
 360 196 360 196 336 204 c 128,-1,17
 312 212 312 212 272 230 c 0,18,19
 243 245 243 245 220.5 252.5 c 128,-1,20
 198 260 198 260 176 260 c 0,21,22
 142 260 142 260 120.5 241.5 c 128,-1,23
 99 223 99 223 88 186 c 1,24,-1
 32 201 l 1,25,0
 49 258 49 258 85.5 290.5 c 128,-1,1
EndSplineSet
EndChar
StartChar: exclamdown
Encoding: 161 161 264
Width: 274
GlyphClass: 1
Flags: W
LayerCount: 2
Fore
SplineSet
49 1 m 1,0,-1
 132 316 l 1,1,-1
 172 316 l 1,2,-1
 120 1 l 1,3,-1
 84 -170 l 1,4,-1
 13 -170 l 1,5,-1
 49 1 l 1,0,-1
142 415.5 m 128,-1,7
 126 432 126 432 125 455 c 0,8,9
 125 478 125 478 141.5 494 c 128,-1,10
 158 510 158 510 181 510 c 256,11,12
 204 510 204 510 220 493 c 128,-1,13
 236 476 236 476 236 453 c 0,14,15
 236 431 236 431 220 415 c 128,-1,16
 204 399 204 399 181 399 c 256,17,6
 158 399 158 399 142 415.5 c 128,-1,7
EndSplineSet
EndChar
StartChar: cent
Encoding: 162 162 311
Width: 476
GlyphClass: 1
Flags: W
LayerCount: 2
Fore
SplineSet
71 63.5 m 128,-1,1
 34 117 34 117 34 195 c 0,2,3
 34 271 34 271 66 340.5 c 128,-1,4
 98 410 98 410 155 455 c 128,-1,5
 212 500 212 500 284 504 c 1,6,-1
 302 586 l 1,7,-1
 344 586 l 1,8,-1
 326 502 l 1,9,10
 374 496 374 496 412 468.5 c 128,-1,11
 450 441 450 441 470 394 c 1,12,-1
 408 372 l 1,13,14
 395 402 395 402 370.5 419.5 c 128,-1,15
 346 437 346 437 314 441 c 1,16,-1
 230 48 l 1,17,18
 273 48 273 48 309 65.5 c 128,-1,19
 345 83 345 83 371 118 c 1,20,-1
 431 94 l 1,21,22
 393 40 393 40 338.5 14 c 128,-1,23
 284 -12 284 -12 217 -12 c 1,24,-1
 200 -90 l 1,25,-1
 158 -90 l 1,26,-1
 176 -6 l 1,27,0
 108 10 108 10 71 63.5 c 128,-1,1
180.5 395 m 128,-1,29
 143 356 143 356 124 302.5 c 128,-1,30
 105 249 105 249 105 200 c 0,31,32
 105 147 105 147 126.5 108 c 128,-1,33
 148 69 148 69 189 56 c 1,34,-1
 271 442 l 1,35,28
 218 434 218 434 180.5 395 c 128,-1,29
EndSplineSet
EndChar
StartChar: sterling
Encoding: 163 163 316
Width: 589
GlyphClass: 1
Flags: W
LayerCount: 2
Fore
SplineSet
160.5 138.5 m 128,-1,1
 209 199 209 199 209 273 c 0,2,3
 209 292 209 292 205 324 c 1,4,-1
 91 324 l 1,5,-1
 101 369 l 1,6,-1
 197 369 l 1,7,-1
 192 390 l 2,8,9
 184 427 184 427 180 449.5 c 128,-1,10
 176 472 176 472 176 494 c 0,11,12
 176 545 176 545 200 587.5 c 128,-1,13
 224 630 224 630 271.5 655.5 c 128,-1,14
 319 681 319 681 387 681 c 0,15,16
 466 681 466 681 522.5 644 c 128,-1,17
 579 607 579 607 591 542 c 1,18,-1
 520 525 l 1,19,20
 513 572 513 572 478 597 c 128,-1,21
 443 622 443 622 386 622 c 0,22,23
 321 622 321 622 283 588 c 128,-1,24
 245 554 245 554 245 492 c 0,25,26
 245 473 245 473 250 446.5 c 128,-1,27
 255 420 255 420 262 392 c 2,28,-1
 268 369 l 1,29,-1
 470 369 l 1,30,-1
 460 324 l 1,31,-1
 276 324 l 1,32,33
 279 306 279 306 279 284 c 0,34,35
 279 149 279 149 171 83 c 1,36,37
 186 88 186 88 202 88 c 0,38,39
 221 88 221 88 237.5 84 c 128,-1,40
 254 80 254 80 283 70 c 0,41,42
 316 60 316 60 336.5 55 c 128,-1,43
 357 50 357 50 383 50 c 0,44,45
 404 50 404 50 424.5 55 c 128,-1,46
 445 60 445 60 483 74 c 1,47,-1
 491 16 l 1,48,49
 418 -12 418 -12 371 -12 c 0,50,51
 345 -12 345 -12 325 -7 c 128,-1,52
 305 -2 305 -2 275 8 c 0,53,54
 244 18 244 18 225 22.5 c 128,-1,55
 206 27 206 27 181 27 c 0,56,57
 151 27 151 27 119.5 18.5 c 128,-1,58
 88 10 88 10 45 -10 c 1,59,-1
 32 40 l 1,60,0
 112 78 112 78 160.5 138.5 c 128,-1,1
EndSplineSet
EndChar
StartChar: currency
Encoding: 164 164 312
Width: 576
GlyphClass: 1
Flags: W
LayerCount: 2
Fore
SplineSet
68 117 m 1,0,-1
 133 183 l 1,1,2
 85 242 85 242 85 321 c 256,3,4
 85 400 85 400 133 459 c 1,5,-1
 68 525 l 1,6,-1
 100 555 l 1,7,-1
 165 490 l 1,8,9
 224 538 224 538 303 538 c 0,10,11
 383 538 383 538 441 490 c 1,12,-1
 506 555 l 1,13,-1
 538 525 l 1,14,-1
 472 459 l 1,15,16
 521 399 521 399 521 321 c 256,17,18
 521 243 521 243 472 183 c 1,19,-1
 538 117 l 1,20,-1
 506 87 l 1,21,-1
 441 152 l 1,22,23
 383 104 383 104 303 104 c 0,24,25
 224 104 224 104 165 152 c 1,26,-1
 100 87 l 1,27,-1
 68 117 l 1,0,-1
380.5 187 m 128,-1,29
 416 208 416 208 436.5 243.5 c 128,-1,30
 457 279 457 279 457 321 c 256,31,32
 457 363 457 363 436.5 398.5 c 128,-1,33
 416 434 416 434 380.5 455 c 128,-1,34
 345 476 345 476 303 476 c 256,35,36
 261 476 261 476 225.5 455 c 128,-1,37
 190 434 190 434 169.5 398.5 c 128,-1,38
 149 363 149 363 149 321 c 256,39,40
 149 279 149 279 169.5 243.5 c 128,-1,41
 190 208 190 208 225.5 187 c 128,-1,42
 261 166 261 166 303 166 c 256,43,28
 345 166 345 166 380.5 187 c 128,-1,29
EndSplineSet
EndChar
StartChar: yen
Encoding: 165 165 317
Width: 549
GlyphClass: 1
Flags: W
LayerCount: 2
Fore
SplineSet
203 89 m 1,0,-1
 46 89 l 1,1,-1
 56 134 l 1,2,-1
 213 134 l 1,3,-1
 232 226 l 1,4,-1
 76 226 l 1,5,-1
 85 271 l 1,6,-1
 234 271 l 1,7,-1
 89 668 l 1,8,-1
 165 668 l 1,9,-1
 287 326 l 1,10,-1
 554 668 l 1,11,-1
 638 668 l 1,12,-1
 324 271 l 1,13,-1
 472 271 l 1,14,-1
 463 226 l 1,15,-1
 308 226 l 1,16,-1
 289 134 l 1,17,-1
 443 134 l 1,18,-1
 433 89 l 1,19,-1
 279 89 l 1,20,-1
 260 0 l 1,21,-1
 184 0 l 1,22,-1
 203 89 l 1,0,-1
EndSplineSet
EndChar
StartChar: brokenbar
Encoding: 166 166 306
Width: 227
GlyphClass: 1
Flags: W
LayerCount: 2
Fore
SplineSet
77 233 m 1,0,-1
 144 233 l 1,1,-1
 60 -162 l 1,2,-1
 -7 -162 l 1,3,-1
 77 233 l 1,0,-1
205 838 m 1,4,-1
 272 838 l 1,5,-1
 188 443 l 1,6,-1
 121 443 l 1,7,-1
 205 838 l 1,4,-1
EndSplineSet
EndChar
StartChar: section
Encoding: 167 167 300
Width: 519
GlyphClass: 1
Flags: W
LayerCount: 2
Fore
SplineSet
76.5 -138.5 m 128,-1,1
 30 -104 30 -104 19 -46 c 1,2,-1
 89 -30 l 1,3,4
 101 -116 101 -116 201 -116 c 0,5,6
 249 -116 249 -116 283 -92 c 128,-1,7
 317 -68 317 -68 317 -33 c 0,8,9
 317 -8 317 -8 297.5 14 c 128,-1,10
 278 36 278 36 232 70 c 2,11,-1
 148 132 l 2,12,13
 96 171 96 171 72.5 202.5 c 128,-1,14
 49 234 49 234 49 272 c 0,15,16
 49 333 49 333 90 371 c 128,-1,17
 131 409 131 409 201 431 c 1,18,19
 172 457 172 457 159 481 c 128,-1,20
 146 505 146 505 146 531 c 0,21,22
 146 575 146 575 172.5 609 c 128,-1,23
 199 643 199 643 242.5 661.5 c 128,-1,24
 286 680 286 680 334 680 c 0,25,26
 405 680 405 680 452 646 c 128,-1,27
 499 612 499 612 510 554 c 1,28,-1
 439 538 l 1,29,30
 427 624 427 624 327 624 c 0,31,32
 278 624 278 624 244.5 600.5 c 128,-1,33
 211 577 211 577 211 541 c 0,34,35
 211 516 211 516 230.5 494.5 c 128,-1,36
 250 473 250 473 296 438 c 2,37,-1
 381 376 l 2,38,39
 433 336 433 336 456 305 c 128,-1,40
 479 274 479 274 479 236 c 0,41,42
 479 175 479 175 438 137 c 128,-1,43
 397 99 397 99 327 77 c 1,44,45
 356 51 356 51 369 27 c 128,-1,46
 382 3 382 3 382 -23 c 0,47,48
 382 -67 382 -67 355.5 -101 c 128,-1,49
 329 -135 329 -135 285.5 -154 c 128,-1,50
 242 -173 242 -173 194 -173 c 0,51,0
 123 -173 123 -173 76.5 -138.5 c 128,-1,1
415 223 m 0,53,54
 415 250 415 250 395 274.5 c 128,-1,55
 375 299 375 299 333 330 c 2,56,-1
 243 397 l 1,57,58
 113 356 113 356 113 285 c 0,59,60
 113 258 113 258 133.5 233.5 c 128,-1,61
 154 209 154 209 196 178 c 2,62,-1
 285 112 l 1,63,52
 415 151 415 151 415 223 c 0,53,54
EndSplineSet
EndChar
StartChar: copyright
Encoding: 169 169 301
Width: 799
GlyphClass: 1
Flags: W
LayerCount: 2
Fore
SplineSet
244 33.5 m 128,-1,1
 164 80 164 80 117.5 160 c 128,-1,2
 71 240 71 240 71 334 c 256,3,4
 71 428 71 428 117.5 508 c 128,-1,5
 164 588 164 588 244 634.5 c 128,-1,6
 324 681 324 681 418 681 c 256,7,8
 512 681 512 681 592 634.5 c 128,-1,9
 672 588 672 588 718.5 508 c 128,-1,10
 765 428 765 428 765 334 c 256,11,12
 765 240 765 240 718.5 160 c 128,-1,13
 672 80 672 80 592 33.5 c 128,-1,14
 512 -13 512 -13 418 -13 c 256,15,0
 324 -13 324 -13 244 33.5 c 128,-1,1
293 194.5 m 128,-1,17
 246 246 246 246 246 336 c 0,18,19
 246 425 246 425 294.5 475.5 c 128,-1,20
 343 526 343 526 423 526 c 0,21,22
 474 526 474 526 508.5 503.5 c 128,-1,23
 543 481 543 481 563 445 c 1,24,-1
 504 423 l 1,25,26
 477 474 477 474 418 474 c 0,27,28
 371 474 371 474 342 439 c 128,-1,29
 313 404 313 404 313 336 c 256,30,31
 313 268 313 268 343 232 c 128,-1,32
 373 196 373 196 420 196 c 0,33,34
 451 196 451 196 472.5 207 c 128,-1,35
 494 218 494 218 508 245 c 1,36,-1
 565 223 l 1,37,38
 546 189 546 189 510.5 166 c 128,-1,39
 475 143 475 143 421 143 c 0,40,16
 340 143 340 143 293 194.5 c 128,-1,17
564.5 81.5 m 128,-1,42
 631 121 631 121 670 188 c 128,-1,43
 709 255 709 255 709 334 c 256,44,45
 709 413 709 413 670 480 c 128,-1,46
 631 547 631 547 564.5 586.5 c 128,-1,47
 498 626 498 626 418 626 c 256,48,49
 338 626 338 626 271 586.5 c 128,-1,50
 204 547 204 547 165 480 c 128,-1,51
 126 413 126 413 126 334 c 256,52,53
 126 255 126 255 165 188 c 128,-1,54
 204 121 204 121 271 81.5 c 128,-1,55
 338 42 338 42 418 42 c 256,56,41
 498 42 498 42 564.5 81.5 c 128,-1,42
EndSplineSet
EndChar
StartChar: ordfeminine
Encoding: 170 170 223
Width: 365
GlyphClass: 1
Flags: W
LayerCount: 2
Fore
SplineSet
126.5 414 m 128,-1,1
 101 434 101 434 101 465 c 0,2,3
 101 521 101 521 162 546 c 128,-1,4
 223 571 223 571 311 570 c 1,5,6
 314 587 314 587 314 598 c 0,7,8
 314 623 314 623 300 633.5 c 128,-1,9
 286 644 286 644 257 644 c 0,10,11
 234 644 234 644 215.5 634 c 128,-1,12
 197 624 197 624 191 605 c 1,13,-1
 142 621 l 1,14,15
 156 652 156 652 187.5 670 c 128,-1,16
 219 688 219 688 261 688 c 0,17,18
 313 688 313 688 341 664 c 128,-1,19
 369 640 369 640 369 596 c 0,20,21
 369 576 369 576 365 559 c 2,22,-1
 350 495 l 2,23,24
 340 448 340 448 340 420 c 0,25,26
 340 407 340 407 341 400 c 1,27,-1
 291 400 l 1,28,-1
 289 443 l 1,29,30
 272 418 272 418 247 406 c 128,-1,31
 222 394 222 394 194 394 c 0,32,0
 152 394 152 394 126.5 414 c 128,-1,1
267 460.5 m 128,-1,34
 292 483 292 483 300 517 c 2,35,-1
 303 531 l 1,36,37
 232 531 232 531 196.5 515 c 128,-1,38
 161 499 161 499 161 470 c 0,39,40
 161 455 161 455 173.5 446.5 c 128,-1,41
 186 438 186 438 208 438 c 0,42,33
 242 438 242 438 267 460.5 c 128,-1,34
EndSplineSet
EndChar
StartChar: guillemotleft
Encoding: 171 171 289
Width: 532
GlyphClass: 1
Flags: W
LayerCount: 2
Fore
SplineSet
253 245 m 1,0,-1
 443 460 l 1,1,-1
 523 460 l 1,2,-1
 327 239 l 1,3,-1
 433 40 l 1,4,-1
 362 40 l 1,5,-1
 253 245 l 1,0,-1
54 250 m 1,6,-1
 244 460 l 1,7,-1
 323 460 l 1,8,-1
 127 245 l 1,9,-1
 233 40 l 1,10,-1
 163 40 l 1,11,-1
 54 250 l 1,6,-1
EndSplineSet
EndChar
StartChar: logicalnot
Encoding: 172 172 332
Width: 598
GlyphClass: 1
Flags: W
LayerCount: 2
Fore
SplineSet
493 323 m 1,0,-1
 69 323 l 1,1,-1
 82 389 l 1,2,-1
 574 389 l 1,3,-1
 512 100 l 1,4,-1
 445 100 l 1,5,-1
 493 323 l 1,0,-1
EndSplineSet
EndChar
StartChar: registered
Encoding: 174 174 302
Width: 799
GlyphClass: 1
Flags: W
LayerCount: 2
Fore
SplineSet
244 33.5 m 128,-1,1
 164 80 164 80 117.5 160 c 128,-1,2
 71 240 71 240 71 334 c 256,3,4
 71 428 71 428 117.5 508 c 128,-1,5
 164 588 164 588 244 634.5 c 128,-1,6
 324 681 324 681 418 681 c 256,7,8
 512 681 512 681 592 634.5 c 128,-1,9
 672 588 672 588 718.5 508 c 128,-1,10
 765 428 765 428 765 334 c 256,11,12
 765 240 765 240 718.5 160 c 128,-1,13
 672 80 672 80 592 33.5 c 128,-1,14
 512 -13 512 -13 418 -13 c 256,15,0
 324 -13 324 -13 244 33.5 c 128,-1,1
564.5 81.5 m 128,-1,17
 631 121 631 121 670 188 c 128,-1,18
 709 255 709 255 709 334 c 256,19,20
 709 413 709 413 670 480 c 128,-1,21
 631 547 631 547 564.5 586.5 c 128,-1,22
 498 626 498 626 418 626 c 256,23,24
 338 626 338 626 271 586.5 c 128,-1,25
 204 547 204 547 165 480 c 128,-1,26
 126 413 126 413 126 334 c 256,27,28
 126 255 126 255 165 188 c 128,-1,29
 204 121 204 121 271 81.5 c 128,-1,30
 338 42 338 42 418 42 c 256,31,16
 498 42 498 42 564.5 81.5 c 128,-1,17
289 529 m 1,32,-1
 417 529 l 2,33,34
 488 529 488 529 526 500.5 c 128,-1,35
 564 472 564 472 564 415 c 0,36,37
 564 375 564 375 539.5 347.5 c 128,-1,38
 515 320 515 320 476 311 c 1,39,-1
 584 162 l 1,40,-1
 509 162 l 1,41,-1
 408 301 l 1,42,-1
 354 301 l 1,43,-1
 354 162 l 1,44,-1
 289 162 l 1,45,-1
 289 529 l 1,32,-1
479 368 m 128,-1,47
 499 384 499 384 499 415 c 0,48,49
 499 449 499 449 477 463 c 128,-1,50
 455 477 455 477 411 477 c 2,51,-1
 354 477 l 1,52,-1
 354 352 l 1,53,-1
 416 352 l 2,54,46
 459 352 459 352 479 368 c 128,-1,47
EndSplineSet
EndChar
StartChar: degree
Encoding: 176 176 304
Width: 337
GlyphClass: 1
Flags: W
LayerCount: 2
Fore
SplineSet
142.5 460.5 m 128,-1,1
 105 498 105 498 105 551 c 0,2,3
 105 586 105 586 122 615.5 c 128,-1,4
 139 645 139 645 168.5 662.5 c 128,-1,5
 198 680 198 680 233 680 c 256,6,7
 268 680 268 680 297.5 662.5 c 128,-1,8
 327 645 327 645 344.5 615.5 c 128,-1,9
 362 586 362 586 362 551 c 256,10,11
 362 516 362 516 344.5 486.5 c 128,-1,12
 327 457 327 457 297.5 440 c 128,-1,13
 268 423 268 423 233 423 c 0,14,0
 180 423 180 423 142.5 460.5 c 128,-1,1
287 497 m 128,-1,16
 309 519 309 519 309 551 c 256,17,18
 309 583 309 583 287 605 c 128,-1,19
 265 627 265 627 233 627 c 0,20,21
 202 627 202 627 179.5 605 c 128,-1,22
 157 583 157 583 157 551 c 0,23,24
 157 520 157 520 179.5 497.5 c 128,-1,25
 202 475 202 475 233 475 c 0,26,15
 265 475 265 475 287 497 c 128,-1,16
EndSplineSet
EndChar
StartChar: plusminus
Encoding: 177 177 330
Width: 581
GlyphClass: 1
Flags: W
LayerCount: 2
Fore
SplineSet
263 272 m 1,0,-1
 58 272 l 1,1,-1
 72 336 l 1,2,-1
 277 336 l 1,3,-1
 311 496 l 1,4,-1
 376 496 l 1,5,-1
 341 336 l 1,6,-1
 546 336 l 1,7,-1
 533 272 l 1,8,-1
 328 272 l 1,9,-1
 294 111 l 1,10,-1
 230 111 l 1,11,-1
 263 272 l 1,0,-1
14 66 m 1,12,-1
 489 66 l 1,13,-1
 475 0 l 1,14,-1
 0 0 l 1,15,-1
 14 66 l 1,12,-1
EndSplineSet
EndChar
StartChar: uni00B2
Encoding: 178 178 254
Width: 375
GlyphClass: 1
Flags: W
LayerCount: 2
Fore
SplineSet
278.5 583.5 m 128,-1,1
 342 642 342 642 342 692 c 0,2,3
 342 715 342 715 326.5 728.5 c 128,-1,4
 311 742 311 742 287 742 c 0,5,6
 262 742 262 742 241.5 727 c 128,-1,7
 221 712 221 712 212 679 c 1,8,-1
 156 695 l 1,9,10
 171 737 171 737 206 761.5 c 128,-1,11
 241 786 241 786 289 786 c 0,12,13
 339 786 339 786 372 762 c 128,-1,14
 405 738 405 738 405 696 c 0,15,16
 405 630 405 630 336.5 565 c 128,-1,17
 268 500 268 500 179 453 c 1,18,-1
 366 453 l 1,19,-1
 355 403 l 1,20,-1
 85 403 l 1,21,-1
 95 451 l 1,22,0
 215 525 215 525 278.5 583.5 c 128,-1,1
EndSplineSet
EndChar
StartChar: uni00B3
Encoding: 179 179 255
Width: 375
GlyphClass: 1
Flags: W
LayerCount: 2
Fore
SplineSet
148.5 421.5 m 128,-1,1
 114 447 114 447 107 487 c 1,2,-1
 162 500 l 1,3,4
 166 471 166 471 185 455.5 c 128,-1,5
 204 440 204 440 236 440 c 0,6,7
 271 440 271 440 294.5 461.5 c 128,-1,8
 318 483 318 483 318 518 c 0,9,10
 318 578 318 578 216 577 c 1,11,-1
 225 623 l 1,12,-1
 255 621 l 2,13,14
 299 621 299 621 322 639.5 c 128,-1,15
 345 658 345 658 345 691 c 0,16,17
 345 716 345 716 327 729 c 128,-1,18
 309 742 309 742 283 742 c 0,19,20
 227 742 227 742 202 685 c 1,21,-1
 148 699 l 1,22,23
 165 740 165 740 200 763 c 128,-1,24
 235 786 235 786 283 786 c 0,25,26
 334 786 334 786 370 761 c 128,-1,27
 406 736 406 736 406 691 c 0,28,29
 406 659 406 659 385.5 633 c 128,-1,30
 365 607 365 607 332 594 c 1,31,32
 354 582 354 582 365.5 561.5 c 128,-1,33
 377 541 377 541 377 517 c 0,34,35
 377 488 377 488 361 460 c 128,-1,36
 345 432 345 432 313 414 c 128,-1,37
 281 396 281 396 235 396 c 0,38,0
 183 396 183 396 148.5 421.5 c 128,-1,1
EndSplineSet
EndChar
StartChar: paragraph
Encoding: 182 182 299
Width: 494
GlyphClass: 1
Flags: W
LayerCount: 2
Fore
SplineSet
117 357 m 128,-1,1
 86 401 86 401 86 457 c 0,2,3
 86 478 86 478 90 497 c 0,4,5
 101 548 101 548 133 586.5 c 128,-1,6
 165 625 165 625 210 646.5 c 128,-1,7
 255 668 255 668 304 668 c 2,8,-1
 554 668 l 1,9,-1
 542 612 l 1,10,-1
 504 612 l 1,11,-1
 340 -162 l 1,12,-1
 273 -162 l 1,13,-1
 438 612 l 1,14,-1
 333 612 l 1,15,-1
 169 -162 l 1,16,-1
 102 -162 l 1,17,-1
 199 296 l 1,18,0
 148 313 148 313 117 357 c 128,-1,1
EndSplineSet
EndChar
StartChar: ordmasculine
Encoding: 186 186 224
Width: 372
GlyphClass: 1
Flags: W
LayerCount: 2
Fore
SplineSet
146.5 426 m 128,-1,1
 113 458 113 458 113 514 c 0,2,3
 113 559 113 559 132 599 c 128,-1,4
 151 639 151 639 186 663.5 c 128,-1,5
 221 688 221 688 267 688 c 0,6,7
 316 688 316 688 350 656 c 128,-1,8
 384 624 384 624 384 568 c 0,9,10
 384 523 384 523 365 483 c 128,-1,11
 346 443 346 443 311 418.5 c 128,-1,12
 276 394 276 394 230 394 c 0,13,0
 180 394 180 394 146.5 426 c 128,-1,1
285.5 461.5 m 128,-1,15
 306 482 306 482 315.5 511.5 c 128,-1,16
 325 541 325 541 325 567 c 0,17,18
 325 600 325 600 309 620.5 c 128,-1,19
 293 641 293 641 264 641 c 0,20,21
 232 641 232 641 211.5 620.5 c 128,-1,22
 191 600 191 600 181.5 570.5 c 128,-1,23
 172 541 172 541 172 515 c 0,24,25
 172 482 172 482 188 461.5 c 128,-1,26
 204 441 204 441 233 441 c 0,27,14
 265 441 265 441 285.5 461.5 c 128,-1,15
EndSplineSet
EndChar
StartChar: guillemotright
Encoding: 187 187 290
Width: 532
GlyphClass: 1
Flags: W
LayerCount: 2
Fore
SplineSet
405 255 m 1,0,-1
 299 460 l 1,1,-1
 369 460 l 1,2,-1
 478 250 l 1,3,-1
 288 40 l 1,4,-1
 209 40 l 1,5,-1
 405 255 l 1,0,-1
205 261 m 1,6,-1
 99 460 l 1,7,-1
 170 460 l 1,8,-1
 279 255 l 1,9,-1
 89 40 l 1,10,-1
 9 40 l 1,11,-1
 205 261 l 1,6,-1
EndSplineSet
EndChar
StartChar: onequarter
Encoding: 188 188 251
Width: 799
GlyphClass: 3
Flags: W
LayerCount: 2
Fore
SplineSet
665 668 m 1,0,-1
 744 668 l 1,1,-1
 140 0 l 1,2,-1
 61 0 l 1,3,-1
 665 668 l 1,0,-1
206 581 m 1,4,-1
 124 581 l 1,5,-1
 132 617 l 1,6,7
 165 617 165 617 191.5 629.5 c 128,-1,8
 218 642 218 642 233 668 c 1,9,-1
 285 668 l 1,10,-1
 206 297 l 1,11,-1
 146 297 l 1,12,-1
 206 581 l 1,4,-1
596 132 m 1,13,-1
 629 290 l 1,14,-1
 478 132 l 1,15,-1
 596 132 l 1,13,-1
585 84 m 1,16,-1
 399 84 l 1,17,-1
 409 132 l 1,18,-1
 644 371 l 1,19,-1
 706 371 l 1,20,-1
 655 132 l 1,21,-1
 722 132 l 1,22,-1
 711 84 l 1,23,-1
 644 84 l 1,24,-1
 627 0 l 1,25,-1
 568 0 l 1,26,-1
 585 84 l 1,16,-1
EndSplineSet
Ligature2: "'frac' Diagonal Fractions in Latin lookup 7 subtable" one slash four
EndChar
StartChar: onehalf
Encoding: 189 189 250
Width: 820
GlyphClass: 3
Flags: W
LayerCount: 2
Fore
SplineSet
665 668 m 1,0,-1
 744 668 l 1,1,-1
 140 0 l 1,2,-1
 61 0 l 1,3,-1
 665 668 l 1,0,-1
206 581 m 1,4,-1
 124 581 l 1,5,-1
 132 617 l 1,6,7
 165 617 165 617 191.5 629.5 c 128,-1,8
 218 642 218 642 233 668 c 1,9,-1
 285 668 l 1,10,-1
 206 297 l 1,11,-1
 146 297 l 1,12,-1
 206 581 l 1,4,-1
636.5 179.5 m 128,-1,14
 701 236 701 236 701 285 c 0,15,16
 701 308 701 308 687 321 c 128,-1,17
 673 334 673 334 648 334 c 256,18,19
 623 334 623 334 602 318.5 c 128,-1,20
 581 303 581 303 569 272 c 1,21,-1
 514 287 l 1,22,23
 533 329 533 329 568 353 c 128,-1,24
 603 377 603 377 649 377 c 0,25,26
 699 377 699 377 730.5 352 c 128,-1,27
 762 327 762 327 762 288 c 0,28,29
 762 227 762 227 699.5 168 c 128,-1,30
 637 109 637 109 536 50 c 1,31,-1
 724 50 l 1,32,-1
 714 0 l 1,33,-1
 446 0 l 1,34,-1
 456 47 l 1,35,13
 572 123 572 123 636.5 179.5 c 128,-1,14
EndSplineSet
Ligature2: "'frac' Diagonal Fractions in Latin lookup 7 subtable" one slash two
EndChar
StartChar: threequarters
Encoding: 190 190 252
Width: 859
GlyphClass: 3
Flags: W
LayerCount: 2
Fore
SplineSet
725 668 m 1,0,-1
 804 668 l 1,1,-1
 200 0 l 1,2,-1
 121 0 l 1,3,-1
 725 668 l 1,0,-1
129.5 318.5 m 128,-1,5
 95 342 95 342 87 386 c 1,6,-1
 142 399 l 1,7,8
 150 339 150 339 215 339 c 0,9,10
 251 339 251 339 274 360 c 128,-1,11
 297 381 297 381 297 415 c 0,12,13
 297 444 297 444 275 458 c 128,-1,14
 253 472 253 472 216 472 c 0,15,16
 202 472 202 472 194 471 c 1,17,-1
 204 516 l 1,18,19
 212 515 212 515 228 515 c 0,20,21
 324 515 324 515 324 582 c 0,22,23
 324 607 324 607 307 620.5 c 128,-1,24
 290 634 290 634 262 634 c 0,25,26
 205 634 205 634 180 578 c 1,27,-1
 126 592 l 1,28,29
 143 633 143 633 179 655.5 c 128,-1,30
 215 678 215 678 263 678 c 0,31,32
 313 678 313 678 348 653 c 128,-1,33
 383 628 383 628 383 586 c 0,34,35
 383 552 383 552 363.5 526.5 c 128,-1,36
 344 501 344 501 310 489 c 1,37,38
 332 477 332 477 344 457.5 c 128,-1,39
 356 438 356 438 356 414 c 0,40,41
 356 362 356 362 315.5 328.5 c 128,-1,42
 275 295 275 295 215 295 c 0,43,4
 164 295 164 295 129.5 318.5 c 128,-1,5
645 84 m 1,44,-1
 459 84 l 1,45,-1
 469 132 l 1,46,-1
 704 371 l 1,47,-1
 765 371 l 1,48,-1
 714 132 l 1,49,-1
 781 132 l 1,50,-1
 771 84 l 1,51,-1
 704 84 l 1,52,-1
 686 0 l 1,53,-1
 627 0 l 1,54,-1
 645 84 l 1,44,-1
655 132 m 1,55,-1
 688 290 l 1,56,-1
 538 132 l 1,57,-1
 655 132 l 1,55,-1
EndSplineSet
Ligature2: "'frac' Diagonal Fractions in Latin lookup 7 subtable" three slash four
EndChar
StartChar: questiondown
Encoding: 191 191 266
Width: 429
GlyphClass: 1
Flags: W
LayerCount: 2
Fore
SplineSet
56.5 -165.5 m 128,-1,1
 14 -147 14 -147 -11.5 -113 c 128,-1,2
 -37 -79 -37 -79 -37 -33 c 0,3,4
 -37 16 -37 16 -17 53 c 128,-1,5
 3 90 3 90 38.5 119 c 128,-1,6
 74 148 74 148 131 183 c 0,7,8
 181 212 181 212 198 231.5 c 128,-1,9
 215 251 215 251 223 286 c 2,10,-1
 231 323 l 1,11,-1
 300 323 l 1,12,-1
 293 289 l 2,13,14
 280 231 280 231 253 197.5 c 128,-1,15
 226 164 226 164 165 131 c 0,16,17
 102 95 102 95 67 58.5 c 128,-1,18
 32 22 32 22 32 -27 c 0,19,20
 32 -71 32 -71 66.5 -98 c 128,-1,21
 101 -125 101 -125 154 -125 c 0,22,23
 208 -125 208 -125 249.5 -92.5 c 128,-1,24
 291 -60 291 -60 305 -7 c 1,25,-1
 372 -24 l 1,26,27
 349 -100 349 -100 288 -142 c 128,-1,28
 227 -184 227 -184 150 -184 c 0,29,0
 99 -184 99 -184 56.5 -165.5 c 128,-1,1
254.5 415.5 m 128,-1,31
 238 432 238 432 238 455 c 256,32,33
 238 478 238 478 254.5 494 c 128,-1,34
 271 510 271 510 294 510 c 256,35,36
 317 510 317 510 333 494 c 128,-1,37
 349 478 349 478 349 455 c 256,38,39
 349 432 349 432 333 415.5 c 128,-1,40
 317 399 317 399 294 399 c 256,41,30
 271 399 271 399 254.5 415.5 c 128,-1,31
EndSplineSet
EndChar
StartChar: Aring
Encoding: 197 197 10
Width: 603
GlyphClass: 2
Flags: W
AnchorPoint: "Anchor-2" 542 10 basechar 0
AnchorPoint: "Anchor-1" 427 836 basechar 0
AnchorPoint: "Anchor-0" 249 0 basechar 0
LayerCount: 2
Fore
SplineSet
314.5 689.5 m 128,-1,1
 304 710 304 710 304 735 c 0,2,3
 304 776 304 776 333.5 806 c 128,-1,4
 363 836 363 836 405 836 c 0,5,6
 448 836 448 836 477.5 806.5 c 128,-1,7
 507 777 507 777 507 735 c 0,8,9
 507 702 507 702 487 675 c 128,-1,10
 467 648 467 648 436 639 c 1,11,-1
 540 0 l 1,12,-1
 466 0 l 1,13,-1
 442 158 l 1,14,-1
 128 158 l 1,15,-1
 37 0 l 1,16,-1
 -43 0 l 1,17,-1
 344 655 l 1,18,0
 325 669 325 669 314.5 689.5 c 128,-1,1
433 221 m 1,19,-1
 378 593 l 1,20,-1
 164 221 l 1,21,-1
 433 221 l 1,19,-1
443.5 697.5 m 128,-1,23
 459 713 459 713 459 735 c 256,24,25
 459 757 459 757 443 772.5 c 128,-1,26
 427 788 427 788 405 788 c 256,27,28
 383 788 383 788 367.5 772.5 c 128,-1,29
 352 757 352 757 352 735 c 256,30,31
 352 713 352 713 367.5 697.5 c 128,-1,32
 383 682 383 682 405 682 c 0,33,22
 428 682 428 682 443.5 697.5 c 128,-1,23
EndSplineSet
EndChar
StartChar: AE
Encoding: 198 198 12
Width: 877
GlyphClass: 2
Flags: W
AnchorPoint: "Anchor-1" 523 668 basechar 0
AnchorPoint: "Anchor-0" 381 0 basechar 0
LayerCount: 2
Fore
SplineSet
459 668 m 1,0,-1
 925 668 l 1,1,-1
 912 604 l 1,2,-1
 566 604 l 1,3,-1
 518 376 l 1,4,-1
 784 376 l 1,5,-1
 770 312 l 1,6,-1
 504 312 l 1,7,-1
 451 64 l 1,8,-1
 798 64 l 1,9,-1
 785 0 l 1,10,-1
 364 0 l 1,11,-1
 397 158 l 1,12,-1
 150 158 l 1,13,-1
 31 0 l 1,14,-1
 -53 0 l 1,15,-1
 459 668 l 1,0,-1
411 221 m 1,16,-1
 493 609 l 1,17,-1
 198 221 l 1,18,-1
 411 221 l 1,16,-1
EndSplineSet
EndChar
StartChar: Ccedilla
Encoding: 199 199 17
Width: 638
GlyphClass: 2
Flags: W
AnchorPoint: "Anchor-1" 432 668 basechar 0
LayerCount: 2
Fore
SplineSet
205 -150 m 1,1,-1
 225 -122 l 1,2,3
 259 -144 259 -144 287 -144 c 0,4,5
 308 -144 308 -144 322.5 -133 c 128,-1,6
 337 -122 337 -122 337 -106 c 0,7,8
 337 -91 337 -91 325 -84 c 128,-1,9
 313 -77 313 -77 294 -77 c 0,10,11
 282 -78 282 -78 269 -79 c 2,12,-1
 266 -79 l 2,13,14
 251 -79 251 -79 251 -65 c 0,15,16
 251 -57 251 -57 257 -51 c 2,17,-1
 291 -11 l 1,18,19
 180 0 180 0 119 76 c 128,-1,20
 58 152 58 152 58 268 c 0,21,22
 58 367 58 367 100 462.5 c 128,-1,23
 142 558 142 558 222 619 c 128,-1,24
 302 680 302 680 411 680 c 0,25,26
 495 680 495 680 557 640.5 c 128,-1,27
 619 601 619 601 643 527 c 1,28,-1
 578 504 l 1,29,30
 559 558 559 558 514 587.5 c 128,-1,31
 469 617 469 617 407 617 c 0,32,33
 318 617 318 617 256 563.5 c 128,-1,34
 194 510 194 510 163.5 430 c 128,-1,35
 133 350 133 350 133 272 c 0,36,37
 133 174 133 174 184 112.5 c 128,-1,38
 235 51 235 51 331 51 c 0,39,40
 390 51 390 51 436 77 c 128,-1,41
 482 103 482 103 520 159 c 1,42,-1
 585 133 l 1,43,44
 498 -9 498 -9 333 -12 c 1,45,-1
 305 -45 l 1,46,47
 315 -44 315 -44 325 -43 c 0,48,49
 353 -43 353 -43 371 -58 c 128,-1,50
 389 -73 389 -73 389 -98 c 0,51,52
 389 -134 389 -134 361.5 -157 c 128,-1,53
 334 -180 334 -180 293 -180 c 0,54,0
 250 -180 250 -180 205 -150 c 1,1,-1
EndSplineSet
EndChar
StartChar: Eth
Encoding: 208 208 22
Width: 675
GlyphClass: 1
Flags: W
LayerCount: 2
Fore
SplineSet
116 319 m 1,0,-1
 43 319 l 1,1,-1
 56 381 l 1,2,-1
 129 381 l 1,3,-1
 190 668 l 1,4,-1
 304 668 l 2,5,6
 471 668 471 668 561 600.5 c 128,-1,7
 651 533 651 533 651 400 c 0,8,9
 651 300 651 300 615 209 c 128,-1,10
 579 118 579 118 498.5 59 c 128,-1,11
 418 0 418 0 292 0 c 2,12,-1
 48 0 l 1,13,-1
 116 319 l 1,0,-1
457 112 m 128,-1,15
 520 161 520 161 548 236.5 c 128,-1,16
 576 312 576 312 576 395 c 0,17,18
 576 605 576 605 300 605 c 2,19,-1
 251 605 l 1,20,-1
 203 381 l 1,21,-1
 399 381 l 1,22,-1
 387 319 l 1,23,-1
 190 319 l 1,24,-1
 135 63 l 1,25,-1
 294 63 l 2,26,14
 394 63 394 63 457 112 c 128,-1,15
EndSplineSet
EndChar
StartChar: multiply
Encoding: 215 215 322
Width: 523
GlyphClass: 1
Flags: W
LayerCount: 2
Fore
SplineSet
19 89 m 1,0,-1
 218 252 l 1,1,-1
 89 416 l 1,2,-1
 137 455 l 1,3,-1
 266 291 l 1,4,-1
 465 455 l 1,5,-1
 504 407 l 1,6,-1
 305 244 l 1,7,-1
 434 80 l 1,8,-1
 385 41 l 1,9,-1
 257 204 l 1,10,-1
 59 41 l 1,11,-1
 19 89 l 1,0,-1
EndSplineSet
EndChar
StartChar: Oslash
Encoding: 216 216 68
Width: 697
GlyphClass: 2
Flags: W
AnchorPoint: "Anchor-3" 778 668 basechar 0
AnchorPoint: "Anchor-1" 429 668 basechar 0
AnchorPoint: "Anchor-0" 298 0 basechar 0
LayerCount: 2
Fore
SplineSet
211.5 10 m 128,-1,1
 160 32 160 32 125 73 c 1,2,-1
 42 -4 l 1,3,-1
 11 27 l 1,4,-1
 98 109 l 1,5,6
 59 178 59 178 59 270 c 0,7,8
 59 373 59 373 102 467.5 c 128,-1,9
 145 562 145 562 224 621 c 128,-1,10
 303 680 303 680 407 680 c 0,11,12
 471 680 471 680 523.5 657.5 c 128,-1,13
 576 635 576 635 611 593 c 1,14,-1
 694 671 l 1,15,-1
 726 641 l 1,16,-1
 637 556 l 1,17,18
 675 488 675 488 675 398 c 0,19,20
 675 295 675 295 632 200.5 c 128,-1,21
 589 106 589 106 509.5 47 c 128,-1,22
 430 -12 430 -12 326 -12 c 0,23,0
 263 -12 263 -12 211.5 10 c 128,-1,1
477 105 m 128,-1,25
 538 159 538 159 568.5 239.5 c 128,-1,26
 599 320 599 320 599 396 c 0,27,28
 599 458 599 458 580 503 c 1,29,-1
 177 123 l 1,30,31
 229 51 229 51 328 51 c 0,32,24
 416 51 416 51 477 105 c 128,-1,25
155 163 m 1,34,-1
 558 543 l 1,35,36
 533 579 533 579 494.5 598 c 128,-1,37
 456 617 456 617 406 617 c 0,38,39
 318 617 318 617 256.5 563 c 128,-1,40
 195 509 195 509 164.5 428.5 c 128,-1,41
 134 348 134 348 134 272 c 0,42,33
 134 210 134 210 155 163 c 1,34,-1
EndSplineSet
EndChar
StartChar: Thorn
Encoding: 222 222 72
Width: 575
GlyphClass: 2
Flags: W
AnchorPoint: "Anchor-1" 363 668 basechar 0
AnchorPoint: "Anchor-0" 221 0 basechar 0
LayerCount: 2
Fore
SplineSet
169 668 m 1,0,-1
 243 668 l 1,1,-1
 215 536 l 1,2,-1
 334 536 l 2,3,4
 443 536 443 536 504.5 490.5 c 128,-1,5
 566 445 566 445 566 364 c 0,6,7
 566 297 566 297 536 247.5 c 128,-1,8
 506 198 506 198 453 171 c 128,-1,9
 400 144 400 144 333 144 c 2,10,-1
 132 144 l 1,11,-1
 101 0 l 1,12,-1
 27 0 l 1,13,-1
 169 668 l 1,0,-1
446 247 m 128,-1,15
 490 287 490 287 490 360 c 0,16,17
 490 415 490 415 447.5 443.5 c 128,-1,18
 405 472 405 472 327 472 c 2,19,-1
 202 472 l 1,20,-1
 145 207 l 1,21,-1
 324 207 l 2,22,14
 402 207 402 207 446 247 c 128,-1,15
EndSplineSet
EndChar
StartChar: germandbls
Encoding: 223 223 193
Width: 573
GlyphClass: 1
Flags: W
LayerCount: 2
Fore
SplineSet
275 49 m 0,1,2
 331 49 331 49 372.5 72 c 128,-1,3
 414 95 414 95 436 135 c 128,-1,4
 458 175 458 175 458 224 c 0,5,6
 458 268 458 268 432 303 c 128,-1,7
 406 338 406 338 363 357.5 c 128,-1,8
 320 377 320 377 271 377 c 2,9,-1
 269 377 l 1,10,-1
 281 437 l 1,11,12
 354 437 354 437 400.5 465.5 c 128,-1,13
 447 494 447 494 447 542 c 0,14,15
 447 579 447 579 417 600.5 c 128,-1,16
 387 622 387 622 343 622 c 0,17,18
 229 622 229 622 200 488 c 2,19,-1
 96 0 l 1,20,-1
 28 0 l 1,21,-1
 134 498 l 2,22,23
 152 582 152 582 204 631 c 128,-1,24
 256 680 256 680 340 680 c 0,25,26
 411 680 411 680 461 645 c 128,-1,27
 511 610 511 610 511 548 c 0,28,29
 511 497 511 497 478 460 c 128,-1,30
 445 423 445 423 386 406 c 1,31,32
 451 386 451 386 489.5 336.5 c 128,-1,33
 528 287 528 287 528 224 c 0,34,35
 528 156 528 156 495 102.5 c 128,-1,36
 462 49 462 49 403.5 19 c 128,-1,37
 345 -11 345 -11 271 -11 c 0,38,39
 253 -11 253 -11 215 -7 c 1,40,-1
 210 58 l 1,41,0
 245 49 245 49 275 49 c 0,1,2
EndSplineSet
EndChar
StartChar: ae
Encoding: 230 230 122
Width: 853
GlyphClass: 2
Flags: W
AnchorPoint: "Anchor-1" 481 496 basechar 0
AnchorPoint: "Anchor-0" 375 0 basechar 0
LayerCount: 2
Fore
SplineSet
53 20.5 m 128,-1,1
 7 53 7 53 7 111 c 0,2,3
 7 204 7 204 90.5 247 c 128,-1,4
 174 290 174 290 342 290 c 2,5,-1
 379 290 l 1,6,-1
 383 309 l 2,7,8
 388 334 388 334 388 350 c 0,9,10
 388 397 388 397 360.5 423 c 128,-1,11
 333 449 333 449 280 449 c 0,12,13
 236 449 236 449 201 429 c 128,-1,14
 166 409 166 409 153 368 c 1,15,-1
 86 386 l 1,16,17
 112 446 112 446 165 475.5 c 128,-1,18
 218 505 218 505 282 505 c 0,19,20
 345 505 345 505 385.5 482 c 128,-1,21
 426 459 426 459 441 414 c 1,22,23
 476 456 476 456 523.5 480.5 c 128,-1,24
 571 505 571 505 626 505 c 0,25,26
 687 505 687 505 731 478 c 128,-1,27
 775 451 775 451 798.5 404 c 128,-1,28
 822 357 822 357 822 299 c 0,29,30
 822 266 822 266 815 235 c 1,31,-1
 434 235 l 1,32,33
 432 215 432 215 432 205 c 0,34,35
 432 131 432 131 470.5 89.5 c 128,-1,36
 509 48 509 48 574 48 c 0,37,38
 659 48 659 48 702 107 c 1,39,-1
 768 81 l 1,40,41
 727 32 727 32 678.5 10 c 128,-1,42
 630 -12 630 -12 572 -12 c 0,43,44
 500 -12 500 -12 450.5 21 c 128,-1,45
 401 54 401 54 380 112 c 1,46,47
 348 54 348 54 290.5 21 c 128,-1,48
 233 -12 233 -12 164 -12 c 0,49,0
 99 -12 99 -12 53 20.5 c 128,-1,1
293 81.5 m 128,-1,51
 343 119 343 119 359 197 c 2,52,-1
 367 236 l 1,53,-1
 329 237 l 2,54,55
 201 237 201 237 139.5 208.5 c 128,-1,56
 78 180 78 180 78 122 c 0,57,58
 78 85 78 85 108 64.5 c 128,-1,59
 138 44 138 44 181 44 c 0,60,50
 243 44 243 44 293 81.5 c 128,-1,51
757 308 m 0,62,63
 757 368 757 368 720.5 407 c 128,-1,64
 684 446 684 446 621 446 c 0,65,66
 552 446 552 446 508.5 401.5 c 128,-1,67
 465 357 465 357 445 290 c 1,68,-1
 756 290 l 1,69,61
 757 296 757 296 757 308 c 0,62,63
EndSplineSet
EndChar
StartChar: ccedilla
Encoding: 231 231 127
Width: 477
GlyphClass: 2
Flags: W
AnchorPoint: "Anchor-1" 314 496 basechar 0
LayerCount: 2
Fore
SplineSet
95 -150 m 1,1,-1
 115 -122 l 1,2,3
 149 -144 149 -144 177 -144 c 0,4,5
 198 -144 198 -144 212.5 -133 c 128,-1,6
 227 -122 227 -122 227 -106 c 0,7,8
 227 -91 227 -91 215 -84 c 128,-1,9
 203 -77 203 -77 184 -77 c 0,10,11
 172 -78 172 -78 160 -79 c 2,12,-1
 157 -79 l 2,13,14
 141 -79 141 -79 141 -65 c 0,15,16
 141 -57 141 -57 147 -51 c 2,17,-1
 184 -8 l 1,18,19
 113 7 113 7 74 62.5 c 128,-1,20
 35 118 35 118 35 197 c 0,21,22
 35 275 35 275 68.5 346 c 128,-1,23
 102 417 102 417 162 461 c 128,-1,24
 222 505 222 505 298 505 c 0,25,26
 362 505 362 505 407 474.5 c 128,-1,27
 452 444 452 444 472 391 c 1,28,-1
 410 370 l 1,29,30
 397 406 397 406 366.5 425.5 c 128,-1,31
 336 445 336 445 295 445 c 0,32,33
 232 445 232 445 188.5 405.5 c 128,-1,34
 145 366 145 366 124.5 309 c 128,-1,35
 104 252 104 252 104 199 c 0,36,37
 104 131 104 131 138 89.5 c 128,-1,38
 172 48 172 48 237 48 c 0,39,40
 278 48 278 48 312.5 65 c 128,-1,41
 347 82 347 82 368 117 c 1,42,-1
 431 92 l 1,43,44
 393 43 393 43 344.5 15 c 128,-1,45
 296 -13 296 -13 224 -12 c 1,46,-1
 195 -45 l 1,47,48
 205 -44 205 -44 215 -43 c 0,49,50
 243 -43 243 -43 261 -58 c 128,-1,51
 279 -73 279 -73 279 -98 c 0,52,53
 279 -134 279 -134 251.5 -157 c 128,-1,54
 224 -180 224 -180 184 -180 c 0,55,0
 140 -180 140 -180 95 -150 c 1,1,-1
EndSplineSet
EndChar
StartChar: eth
Encoding: 240 240 132
Width: 554
GlyphClass: 2
Flags: W
AnchorPoint: "Anchor-1" 390 796 basechar 0
AnchorPoint: "Anchor-0" 221 0 basechar 0
LayerCount: 2
Fore
SplineSet
123.5 14 m 128,-1,1
 78 40 78 40 54 84.5 c 128,-1,2
 30 129 30 129 30 184 c 0,3,4
 30 249 30 249 61 309 c 128,-1,5
 92 369 92 369 148 406 c 128,-1,6
 204 443 204 443 276 443 c 0,7,8
 340 443 340 443 388 409 c 128,-1,9
 436 375 436 375 449 318 c 1,10,11
 455 390 455 390 455 422 c 0,12,13
 455 525 455 525 419 578 c 1,14,-1
 326 511 l 1,15,-1
 298 547 l 1,16,-1
 387 610 l 1,17,18
 365 627 365 627 329 639.5 c 128,-1,19
 293 652 293 652 250 657 c 1,20,-1
 262 713 l 1,21,22
 372 701 372 701 439 650 c 1,23,-1
 502 696 l 1,24,-1
 530 661 l 1,25,-1
 470 617 l 1,26,27
 517 548 517 548 517 421 c 0,28,29
 517 312 517 312 488 213.5 c 128,-1,30
 459 115 459 115 395 51.5 c 128,-1,31
 331 -12 331 -12 232 -12 c 0,32,0
 169 -12 169 -12 123.5 14 c 128,-1,1
328.5 74.5 m 128,-1,34
 369 102 369 102 391.5 147 c 128,-1,35
 414 192 414 192 414 243 c 0,36,37
 414 305 414 305 377 344 c 128,-1,38
 340 383 340 383 275 383 c 0,39,40
 222 383 222 383 182 354 c 128,-1,41
 142 325 142 325 120.5 279 c 128,-1,42
 99 233 99 233 99 182 c 0,43,44
 99 121 99 121 135.5 84 c 128,-1,45
 172 47 172 47 235 47 c 0,46,33
 288 47 288 47 328.5 74.5 c 128,-1,34
EndSplineSet
EndChar
StartChar: divide
Encoding: 247 247 323
Width: 606
GlyphClass: 1
Flags: W
LayerCount: 2
Fore
SplineSet
62 280 m 1,0,-1
 558 280 l 1,1,-1
 544 216 l 1,2,-1
 48 216 l 1,3,-1
 62 280 l 1,0,-1
223 39 m 128,-1,5
 205 57 205 57 205 82 c 256,6,7
 205 107 205 107 223 124.5 c 128,-1,8
 241 142 241 142 266 142 c 256,9,10
 291 142 291 142 308.5 124.5 c 128,-1,11
 326 107 326 107 326 82 c 0,12,13
 326 56 326 56 308.5 38.5 c 128,-1,14
 291 21 291 21 266 21 c 256,15,4
 241 21 241 21 223 39 c 128,-1,5
294.5 372 m 128,-1,17
 277 389 277 389 277 414 c 0,18,19
 277 440 277 440 295 458 c 128,-1,20
 313 476 313 476 338 476 c 256,21,22
 363 476 363 476 380.5 458 c 128,-1,23
 398 440 398 440 398 414 c 0,24,25
 398 389 398 389 380.5 372 c 128,-1,26
 363 355 363 355 338 355 c 0,27,16
 312 355 312 355 294.5 372 c 128,-1,17
EndSplineSet
EndChar
StartChar: oslash
Encoding: 248 248 179
Width: 538
GlyphClass: 2
Flags: W
AnchorPoint: "Anchor-3" 575 496 basechar 0
AnchorPoint: "Anchor-1" 319 496 basechar 0
AnchorPoint: "Anchor-0" 216 0 basechar 0
LayerCount: 2
Fore
SplineSet
89 48 m 1,1,-1
 32 -5 l 1,2,-1
 1 27 l 1,3,-1
 62 85 l 1,4,5
 35 137 35 137 35 201 c 0,6,7
 35 278 35 278 68.5 348 c 128,-1,8
 102 418 102 418 163 461.5 c 128,-1,9
 224 505 224 505 303 505 c 0,10,11
 393 505 393 505 447 446 c 1,12,-1
 505 501 l 1,13,-1
 536 469 l 1,14,-1
 473 411 l 1,15,16
 502 359 502 359 502 292 c 0,17,18
 502 215 502 215 468.5 145 c 128,-1,19
 435 75 435 75 374 31.5 c 128,-1,20
 313 -12 313 -12 234 -12 c 0,21,0
 144 -12 144 -12 89 48 c 1,1,-1
346.5 86.5 m 128,-1,23
 390 125 390 125 411 181.5 c 128,-1,24
 432 238 432 238 432 292 c 0,25,26
 432 334 432 334 421 361 c 1,27,-1
 137 94 l 1,28,29
 172 48 172 48 239 48 c 0,30,22
 303 48 303 48 346.5 86.5 c 128,-1,23
115 134 m 1,32,-1
 399 401 l 1,33,34
 364 445 364 445 298 445 c 0,35,36
 234 445 234 445 190.5 406.5 c 128,-1,37
 147 368 147 368 126 311.5 c 128,-1,38
 105 255 105 255 105 201 c 0,39,31
 105 163 105 163 115 134 c 1,32,-1
EndSplineSet
EndChar
StartChar: Aogonek
Encoding: 260 260 9
Width: 603
GlyphClass: 2
Flags: W
AnchorPoint: "Anchor-1" 391 668 basechar 0
AnchorPoint: "Anchor-0" 249 0 basechar 0
LayerCount: 2
Fore
SplineSet
402 -152 m 128,-1,1
 377 -134 377 -134 377 -101 c 0,2,3
 377 -67 377 -67 401.5 -39.5 c 128,-1,4
 426 -12 426 -12 465 6 c 1,5,-1
 442 158 l 1,6,-1
 128 158 l 1,7,-1
 37 0 l 1,8,-1
 -43 0 l 1,9,-1
 352 668 l 1,10,-1
 431 668 l 1,11,-1
 540 0 l 1,12,13
 495 -14 495 -14 466 -35.5 c 128,-1,14
 437 -57 437 -57 437 -86 c 0,15,16
 437 -121 437 -121 486 -121 c 0,17,18
 499 -121 499 -121 515 -117 c 1,19,-1
 505 -165 l 1,20,21
 486 -170 486 -170 465 -170 c 0,22,0
 427 -170 427 -170 402 -152 c 128,-1,1
433 221 m 1,23,-1
 378 593 l 1,24,-1
 164 221 l 1,25,-1
 433 221 l 1,23,-1
EndSplineSet
EndChar
StartChar: aogonek
Encoding: 261 261 119
Width: 514
GlyphClass: 2
Flags: W
AnchorPoint: "Anchor-1" 298 496 basechar 0
AnchorPoint: "Anchor-0" 199 0 basechar 0
LayerCount: 2
Fore
SplineSet
263 -152 m 128,-1,1
 239 -134 239 -134 239 -103 c 0,2,3
 239 -64 239 -64 268 -35.5 c 128,-1,4
 297 -7 297 -7 344 11 c 1,5,-1
 342 77 l 1,6,7
 315 38 315 38 268.5 13 c 128,-1,8
 222 -12 222 -12 161 -12 c 0,9,10
 97 -12 97 -12 52 20.5 c 128,-1,11
 7 53 7 53 7 114 c 0,12,13
 7 212 7 212 100 256.5 c 128,-1,14
 193 301 193 301 382 300 c 1,15,-1
 384 310 l 2,16,17
 389 335 389 335 389 352 c 0,18,19
 389 398 389 398 362 423.5 c 128,-1,20
 335 449 335 449 281 449 c 0,21,22
 236 449 236 449 201 429 c 128,-1,23
 166 409 166 409 153 368 c 1,24,-1
 86 386 l 1,25,26
 112 446 112 446 165.5 475.5 c 128,-1,27
 219 505 219 505 284 505 c 0,28,29
 366 505 366 505 410 466.5 c 128,-1,30
 454 428 454 428 454 355 c 0,31,32
 454 325 454 325 447 294 c 2,33,-1
 426 193 l 2,34,35
 402 84 402 84 402 0 c 1,36,37
 361 -13 361 -13 329.5 -35.5 c 128,-1,38
 298 -58 298 -58 298 -86 c 0,39,40
 298 -105 298 -105 313 -113 c 128,-1,41
 328 -121 328 -121 349 -121 c 0,42,43
 366 -121 366 -121 378 -117 c 1,44,-1
 367 -165 l 1,45,46
 348 -170 348 -170 324 -170 c 0,47,0
 287 -170 287 -170 263 -152 c 128,-1,1
293.5 82 m 128,-1,49
 344 120 344 120 360 197 c 2,50,-1
 371 247 l 1,51,52
 219 247 219 247 148.5 217.5 c 128,-1,53
 78 188 78 188 78 124 c 0,54,55
 78 85 78 85 107.5 64.5 c 128,-1,56
 137 44 137 44 182 44 c 0,57,48
 243 44 243 44 293.5 82 c 128,-1,49
EndSplineSet
EndChar
StartChar: dcroat
Encoding: 273 273 131
Width: 556
GlyphClass: 1
Flags: W
LayerCount: 2
Fore
SplineSet
80.5 44 m 128,-1,1
 34 100 34 100 34 192 c 0,2,3
 34 264 34 264 63.5 336.5 c 128,-1,4
 93 409 93 409 152 457 c 128,-1,5
 211 505 211 505 295 505 c 0,6,7
 349 505 349 505 390.5 477.5 c 128,-1,8
 432 450 432 450 445 404 c 1,9,-1
 478 555 l 1,10,-1
 320 555 l 1,11,-1
 331 608 l 1,12,-1
 490 608 l 1,13,-1
 511 708 l 1,14,-1
 579 708 l 1,15,-1
 558 608 l 1,16,-1
 638 608 l 1,17,-1
 627 555 l 1,18,-1
 547 555 l 1,19,-1
 468 185 l 2,20,21
 448 92 448 92 445 0 c 1,22,-1
 382 0 l 1,23,-1
 376 73 l 1,24,25
 348 34 348 34 303.5 11 c 128,-1,26
 259 -12 259 -12 208 -12 c 0,27,0
 127 -12 127 -12 80.5 44 c 128,-1,1
333 89.5 m 128,-1,29
 376 132 376 132 397.5 193.5 c 128,-1,30
 419 255 419 255 419 310 c 0,31,32
 419 375 419 375 387 410.5 c 128,-1,33
 355 446 355 446 296 446 c 0,34,35
 231 446 231 446 188.5 406 c 128,-1,36
 146 366 146 366 126 308 c 128,-1,37
 106 250 106 250 106 195 c 0,38,39
 106 128 106 128 138.5 87.5 c 128,-1,40
 171 47 171 47 230 47 c 0,41,28
 290 47 290 47 333 89.5 c 128,-1,29
EndSplineSet
EndChar
StartChar: Eogonek
Encoding: 280 280 31
Width: 555
GlyphClass: 2
Flags: W
AnchorPoint: "Anchor-1" 282 668 basechar 0
AnchorPoint: "Anchor-0" 225 0 basechar 0
LayerCount: 2
Fore
SplineSet
169 668 m 1,0,-1
 601 668 l 1,1,-1
 587 604 l 1,2,-1
 230 604 l 1,3,-1
 181 376 l 1,4,-1
 461 376 l 1,5,-1
 448 312 l 1,6,-1
 167 312 l 1,7,-1
 114 64 l 1,8,-1
 476 64 l 1,9,-1
 463 0 l 1,10,11
 418 -14 418 -14 388.5 -35.5 c 128,-1,12
 359 -57 359 -57 359 -86 c 0,13,14
 359 -121 359 -121 408 -121 c 0,15,16
 420 -121 420 -121 438 -117 c 1,17,-1
 428 -165 l 1,18,19
 408 -170 408 -170 387 -170 c 0,20,21
 349 -170 349 -170 324.5 -152 c 128,-1,22
 300 -134 300 -134 300 -101 c 0,23,24
 300 -69 300 -69 321 -43.5 c 128,-1,25
 342 -18 342 -18 376 0 c 1,26,-1
 27 0 l 1,27,-1
 169 668 l 1,0,-1
EndSplineSet
EndChar
StartChar: eogonek
Encoding: 281 281 141
Width: 530
GlyphClass: 2
Flags: W
AnchorPoint: "Anchor-1" 317 496 basechar 0
AnchorPoint: "Anchor-0" 211 0 basechar 0
LayerCount: 2
Fore
SplineSet
253 -152 m 128,-1,1
 229 -134 229 -134 229 -102 c 0,2,3
 229 -78 229 -78 242 -53.5 c 128,-1,4
 255 -29 255 -29 277 -10 c 1,5,6
 255 -12 255 -12 246 -12 c 0,7,8
 185 -12 185 -12 137.5 13 c 128,-1,9
 90 38 90 38 62.5 85.5 c 128,-1,10
 35 133 35 133 35 199 c 0,11,12
 35 276 35 276 68.5 346.5 c 128,-1,13
 102 417 102 417 163 461 c 128,-1,14
 224 505 224 505 301 505 c 0,15,16
 360 505 360 505 405 478 c 128,-1,17
 450 451 450 451 474 404.5 c 128,-1,18
 498 358 498 358 498 299 c 0,19,20
 498 266 498 266 491 235 c 1,21,-1
 105 235 l 1,22,23
 104 227 104 227 104 211 c 0,24,25
 104 135 104 135 144 91.5 c 128,-1,26
 184 48 184 48 250 48 c 0,27,28
 334 48 334 48 379 107 c 1,29,-1
 444 81 l 1,30,31
 413 42 413 42 355 9 c 0,32,33
 328 -6 328 -6 308.5 -31 c 128,-1,34
 289 -56 289 -56 289 -81 c 0,35,36
 289 -121 289 -121 340 -121 c 0,37,38
 355 -121 355 -121 368 -117 c 1,39,-1
 357 -165 l 1,40,41
 337 -170 337 -170 316 -170 c 0,42,0
 277 -170 277 -170 253 -152 c 128,-1,1
433 308 m 0,44,45
 433 368 433 368 396.5 407 c 128,-1,46
 360 446 360 446 297 446 c 0,47,48
 227 446 227 446 182 401 c 128,-1,49
 137 356 137 356 117 290 c 1,50,-1
 432 290 l 1,51,43
 433 296 433 296 433 308 c 0,44,45
EndSplineSet
EndChar
StartChar: Hbar
Encoding: 294 294 38
Width: 679
GlyphClass: 1
Flags: W
LayerCount: 2
Fore
SplineSet
136 512 m 1,0,-1
 70 512 l 1,1,-1
 83 572 l 1,2,-1
 149 572 l 1,3,-1
 169 668 l 1,4,-1
 243 668 l 1,5,-1
 223 572 l 1,6,-1
 594 572 l 1,7,-1
 614 668 l 1,8,-1
 688 668 l 1,9,-1
 668 572 l 1,10,-1
 733 572 l 1,11,-1
 721 512 l 1,12,-1
 655 512 l 1,13,-1
 546 0 l 1,14,-1
 472 0 l 1,15,-1
 538 313 l 1,16,-1
 167 313 l 1,17,-1
 101 0 l 1,18,-1
 27 0 l 1,19,-1
 136 512 l 1,0,-1
552 376 m 1,20,-1
 581 512 l 1,21,-1
 210 512 l 1,22,-1
 181 376 l 1,23,-1
 552 376 l 1,20,-1
EndSplineSet
EndChar
StartChar: hbar
Encoding: 295 295 148
Width: 543
GlyphClass: 1
Flags: W
LayerCount: 2
Fore
SplineSet
138 555 m 1,0,-1
 58 555 l 1,1,-1
 68 608 l 1,2,-1
 149 608 l 1,3,-1
 170 708 l 1,4,-1
 238 708 l 1,5,-1
 217 608 l 1,6,-1
 376 608 l 1,7,-1
 365 555 l 1,8,-1
 206 555 l 1,9,-1
 177 420 l 1,10,11
 203 458 203 458 246.5 481.5 c 128,-1,12
 290 505 290 505 345 505 c 0,13,14
 408 505 408 505 448.5 468.5 c 128,-1,15
 489 432 489 432 489 364 c 0,16,17
 489 342 489 342 482 307 c 2,18,-1
 416 0 l 1,19,-1
 348 0 l 1,20,-1
 412 295 l 2,21,22
 418 322 418 322 418 345 c 0,23,24
 418 393 418 393 393.5 419 c 128,-1,25
 369 445 369 445 321 445 c 0,26,27
 255 445 255 445 209 399 c 128,-1,28
 163 353 163 353 146 270 c 2,29,-1
 88 0 l 1,30,-1
 20 0 l 1,31,-1
 138 555 l 1,0,-1
EndSplineSet
EndChar
StartChar: Iogonek
Encoding: 302 302 47
Width: 374
GlyphClass: 2
Flags: W
AnchorPoint: "Anchor-1" 276 668 basechar 0
AnchorPoint: "Anchor-0" 135 0 basechar 0
LayerCount: 2
Fore
SplineSet
15 55 m 1,0,-1
 109 55 l 1,1,-1
 227 613 l 1,2,-1
 133 613 l 1,3,-1
 145 668 l 1,4,-1
 407 668 l 1,5,-1
 395 613 l 1,6,-1
 301 613 l 1,7,-1
 183 55 l 1,8,-1
 277 55 l 1,9,-1
 265 0 l 1,10,11
 220 -14 220 -14 190.5 -35.5 c 128,-1,12
 161 -57 161 -57 161 -86 c 0,13,14
 161 -121 161 -121 211 -121 c 0,15,16
 222 -121 222 -121 240 -117 c 1,17,-1
 230 -165 l 1,18,19
 211 -170 211 -170 189 -170 c 0,20,21
 152 -170 152 -170 127 -152 c 128,-1,22
 102 -134 102 -134 102 -101 c 0,23,24
 102 -69 102 -69 123 -43.5 c 128,-1,25
 144 -18 144 -18 179 0 c 1,26,-1
 3 0 l 1,27,-1
 15 55 l 1,0,-1
EndSplineSet
EndChar
StartChar: iogonek
Encoding: 303 303 156
Width: 235
GlyphClass: 2
Flags: W
AnchorPoint: "Anchor-1" 211 703 basechar 0
AnchorPoint: "Anchor-0" 61 0 basechar 0
LayerCount: 2
Fore
SplineSet
162.5 611.5 m 128,-1,1
 147 627 147 627 147 649 c 256,2,3
 147 671 147 671 162.5 686.5 c 128,-1,4
 178 702 178 702 200 702 c 256,5,6
 222 702 222 702 237.5 686.5 c 128,-1,7
 253 671 253 671 253 649 c 256,8,9
 253 627 253 627 237.5 611.5 c 128,-1,10
 222 596 222 596 200 596 c 256,11,0
 178 596 178 596 162.5 611.5 c 128,-1,1
-33 -152 m 128,-1,13
 -57 -134 -57 -134 -57 -103 c 0,14,15
 -57 -66 -57 -66 -30.5 -38.5 c 128,-1,16
 -4 -11 -4 -11 40 7 c 1,17,-1
 132 441 l 1,18,-1
 67 441 l 1,19,-1
 80 496 l 1,20,-1
 212 496 l 1,21,-1
 106 0 l 1,22,23
 65 -13 65 -13 33.5 -35.5 c 128,-1,24
 2 -58 2 -58 2 -86 c 0,25,26
 2 -121 2 -121 54 -121 c 0,27,28
 70 -121 70 -121 82 -117 c 1,29,-1
 71 -165 l 1,30,31
 52 -170 52 -170 28 -170 c 0,32,12
 -9 -170 -9 -170 -33 -152 c 128,-1,13
EndSplineSet
EndChar
StartChar: dotlessi
Encoding: 305 305 150
Width: 235
GlyphClass: 2
Flags: W
AnchorPoint: "Anchor-2" 108 10 basechar 0
AnchorPoint: "Anchor-1" 167 496 basechar 0
AnchorPoint: "Anchor-0" 61 0 basechar 0
LayerCount: 2
Fore
SplineSet
132 441 m 1,0,-1
 67 441 l 1,1,-1
 80 496 l 1,2,-1
 212 496 l 1,3,-1
 106 0 l 1,4,-1
 38 0 l 1,5,-1
 132 441 l 1,0,-1
EndSplineSet
EndChar
StartChar: Lslash
Encoding: 321 321 55
Width: 561
GlyphClass: 1
Flags: W
LayerCount: 2
Fore
SplineSet
111 253 m 1,0,-1
 -10 191 l 1,1,-1
 5 260 l 1,2,-1
 126 322 l 1,3,-1
 199 668 l 1,4,-1
 273 668 l 1,5,-1
 208 366 l 1,6,-1
 427 478 l 1,7,-1
 411 408 l 1,8,-1
 194 296 l 1,9,-1
 144 64 l 1,10,-1
 514 64 l 1,11,-1
 501 0 l 1,12,-1
 57 0 l 1,13,-1
 111 253 l 1,0,-1
EndSplineSet
EndChar
StartChar: lslash
Encoding: 322 322 166
Width: 284
GlyphClass: 1
Flags: W
LayerCount: 2
Fore
SplineSet
79.5 16.5 m 128,-1,1
 55 33 55 33 55 69 c 0,2,3
 55 88 55 88 61 112 c 2,4,-1
 94 271 l 1,5,-1
 24 233 l 1,6,-1
 37 295 l 1,7,-1
 108 333 l 1,8,-1
 187 708 l 1,9,-1
 255 708 l 1,10,-1
 185 375 l 1,11,-1
 279 426 l 1,12,-1
 266 363 l 1,13,-1
 171 312 l 1,14,-1
 129 115 l 2,15,16
 126 102 126 102 126 91 c 0,17,18
 126 73 126 73 137.5 66 c 128,-1,19
 149 59 149 59 176 59 c 2,20,-1
 205 59 l 1,21,-1
 193 0 l 1,22,-1
 163 0 l 2,23,0
 104 0 104 0 79.5 16.5 c 128,-1,1
EndSplineSet
EndChar
StartChar: OE
Encoding: 338 338 70
Width: 993
GlyphClass: 2
Flags: W
AnchorPoint: "Anchor-1" 593 668 basechar 0
AnchorPoint: "Anchor-0" 451 0 basechar 0
LayerCount: 2
Fore
SplineSet
172.5 23.5 m 128,-1,1
 116 59 116 59 86.5 121.5 c 128,-1,2
 57 184 57 184 57 264 c 0,3,4
 57 361 57 361 96.5 457.5 c 128,-1,5
 136 554 136 554 214.5 617 c 128,-1,6
 293 680 293 680 401 680 c 0,7,8
 481 680 481 680 534 644 c 128,-1,9
 587 608 587 608 610 542 c 1,10,-1
 637 668 l 1,11,-1
 1039 668 l 1,12,-1
 1025 603 l 1,13,-1
 696 603 l 1,14,-1
 648 376 l 1,15,-1
 900 376 l 1,16,-1
 887 311 l 1,17,-1
 634 311 l 1,18,-1
 582 65 l 1,19,-1
 915 65 l 1,20,-1
 901 0 l 1,21,-1
 495 0 l 1,22,-1
 512 83 l 1,23,24
 473 38 473 38 422 13 c 128,-1,25
 371 -12 371 -12 308 -12 c 0,26,0
 229 -12 229 -12 172.5 23.5 c 128,-1,1
458 110 m 128,-1,28
 516 167 516 167 544 249 c 128,-1,29
 572 331 572 331 572 406 c 0,30,31
 572 500 572 500 527.5 557.5 c 128,-1,32
 483 615 483 615 395 615 c 0,33,34
 309 615 309 615 250 559.5 c 128,-1,35
 191 504 191 504 162 423 c 128,-1,36
 133 342 133 342 133 266 c 0,37,38
 133 171 133 171 180.5 112 c 128,-1,39
 228 53 228 53 316 53 c 0,40,27
 400 53 400 53 458 110 c 128,-1,28
EndSplineSet
EndChar
StartChar: oe
Encoding: 339 339 181
Width: 918
GlyphClass: 2
Flags: W
AnchorPoint: "Anchor-1" 527 496 basechar 0
AnchorPoint: "Anchor-0" 421 0 basechar 0
LayerCount: 2
Fore
SplineSet
512.5 20.5 m 128,-1,1
 464 53 464 53 442 109 c 1,2,3
 407 53 407 53 353 20.5 c 128,-1,4
 299 -12 299 -12 233 -12 c 0,5,6
 172 -12 172 -12 127.5 15.5 c 128,-1,7
 83 43 83 43 59 91.5 c 128,-1,8
 35 140 35 140 35 201 c 0,9,10
 35 277 35 277 68 347.5 c 128,-1,11
 101 418 101 418 162 461.5 c 128,-1,12
 223 505 223 505 302 505 c 0,13,14
 368 505 368 505 414 473 c 128,-1,15
 460 441 460 441 480 386 c 1,16,17
 516 441 516 441 570.5 473 c 128,-1,18
 625 505 625 505 689 505 c 0,19,20
 749 505 749 505 794 478.5 c 128,-1,21
 839 452 839 452 863 405 c 128,-1,22
 887 358 887 358 887 299 c 0,23,24
 887 266 887 266 880 235 c 1,25,-1
 496 235 l 1,26,27
 494 215 494 215 494 206 c 0,28,29
 494 138 494 138 530.5 93 c 128,-1,30
 567 48 567 48 639 48 c 0,31,32
 724 48 724 48 767 107 c 1,33,-1
 833 81 l 1,34,35
 791 31 791 31 743.5 9.5 c 128,-1,36
 696 -12 696 -12 636 -12 c 0,37,0
 561 -12 561 -12 512.5 20.5 c 128,-1,1
345.5 85.5 m 128,-1,39
 389 125 389 125 410 182.5 c 128,-1,40
 431 240 431 240 431 294 c 0,41,42
 431 362 431 362 397.5 403.5 c 128,-1,43
 364 445 364 445 298 445 c 0,44,45
 234 445 234 445 190.5 406.5 c 128,-1,46
 147 368 147 368 126 311.5 c 128,-1,47
 105 255 105 255 105 201 c 0,48,49
 105 133 105 133 139.5 89.5 c 128,-1,50
 174 46 174 46 239 46 c 0,51,38
 302 46 302 46 345.5 85.5 c 128,-1,39
822 308 m 0,53,54
 822 368 822 368 785.5 407 c 128,-1,55
 749 446 749 446 685 446 c 0,56,57
 618 446 618 446 573 403.5 c 128,-1,58
 528 361 528 361 506 290 c 1,59,-1
 821 290 l 1,60,52
 822 296 822 296 822 308 c 0,53,54
EndSplineSet
EndChar
StartChar: Scedilla
Encoding: 350 350 80
Width: 586
GlyphClass: 2
Flags: W
AnchorPoint: "Anchor-1" 374 668 basechar 0
LayerCount: 2
Fore
SplineSet
150 -150 m 1,1,-1
 169 -122 l 1,2,3
 204 -144 204 -144 232 -144 c 0,4,5
 253 -144 253 -144 267.5 -133 c 128,-1,6
 282 -122 282 -122 282 -106 c 0,7,8
 282 -91 282 -91 270 -84 c 128,-1,9
 258 -77 258 -77 238 -77 c 0,10,11
 226 -78 226 -78 214 -79 c 2,12,-1
 211 -79 l 2,13,14
 196 -79 196 -79 196 -66 c 0,15,16
 196 -57 196 -57 202 -51 c 2,17,-1
 236 -11 l 1,18,19
 158 -2 158 -2 101 39 c 128,-1,20
 44 80 44 80 30 147 c 1,21,-1
 99 170 l 1,22,23
 110 114 110 114 160.5 82.5 c 128,-1,24
 211 51 211 51 279 51 c 0,25,26
 354 51 354 51 405.5 89 c 128,-1,27
 457 127 457 127 457 191 c 0,28,29
 457 226 457 226 429.5 252 c 128,-1,30
 402 278 402 278 336 302 c 2,31,-1
 250 334 l 2,32,33
 190 356 190 356 151 394 c 128,-1,34
 112 432 112 432 112 489 c 256,35,36
 112 546 112 546 145.5 589.5 c 128,-1,37
 179 633 179 633 234.5 656.5 c 128,-1,38
 290 680 290 680 353 680 c 0,39,40
 429 680 429 680 488.5 648.5 c 128,-1,41
 548 617 548 617 573 556 c 1,42,-1
 503 532 l 1,43,44
 487 572 487 572 441.5 594.5 c 128,-1,45
 396 617 396 617 344 617 c 0,46,47
 279 617 279 617 232.5 584.5 c 128,-1,48
 186 552 186 552 186 497 c 0,49,50
 186 464 186 464 211.5 439.5 c 128,-1,51
 237 415 237 415 279 399 c 2,52,-1
 368 367 l 2,53,54
 445 337 445 337 488 299.5 c 128,-1,55
 531 262 531 262 531 199 c 0,56,57
 531 137 531 137 496.5 89.5 c 128,-1,58
 462 42 462 42 404.5 16 c 128,-1,59
 347 -10 347 -10 278 -12 c 1,60,-1
 250 -45 l 1,61,62
 260 -44 260 -44 270 -43 c 0,63,64
 298 -43 298 -43 315.5 -58 c 128,-1,65
 333 -73 333 -73 333 -98 c 0,66,67
 333 -134 333 -134 305.5 -157 c 128,-1,68
 278 -180 278 -180 238 -180 c 0,69,0
 195 -180 195 -180 150 -150 c 1,1,-1
EndSplineSet
Substitution2: "'locl' Localized Forms in Latin lookup 4 subtable" uni0218
AlternateSubs2: "'aalt' Access All Alternates in Latin lookup 0 subtable" uni0218
EndChar
StartChar: scedilla
Encoding: 351 351 191
Width: 458
GlyphClass: 2
Flags: W
AnchorPoint: "Anchor-1" 276 496 basechar 0
LayerCount: 2
Fore
SplineSet
72 -150 m 1,1,-1
 92 -122 l 1,2,3
 126 -144 126 -144 154 -144 c 0,4,5
 175 -144 175 -144 189.5 -133 c 128,-1,6
 204 -122 204 -122 204 -106 c 0,7,8
 204 -91 204 -91 192 -84 c 128,-1,9
 180 -77 180 -77 161 -77 c 0,10,11
 149 -78 149 -78 137 -79 c 2,12,-1
 134 -79 l 2,13,14
 118 -79 118 -79 118 -65 c 0,15,16
 118 -57 118 -57 124 -51 c 2,17,-1
 161 -8 l 1,18,19
 107 3 107 3 66 35 c 128,-1,20
 25 67 25 67 12 115 c 1,21,-1
 79 139 l 1,22,23
 87 95 87 95 124.5 71 c 128,-1,24
 162 47 162 47 213 47 c 256,25,26
 264 47 264 47 299 72 c 128,-1,27
 334 97 334 97 334 138 c 0,28,29
 334 169 334 169 309.5 188 c 128,-1,30
 285 207 285 207 235 225 c 2,31,-1
 188 241 l 2,32,33
 131 262 131 262 102 289.5 c 128,-1,34
 73 317 73 317 73 359 c 0,35,36
 73 405 73 405 99 438 c 128,-1,37
 125 471 125 471 167.5 488.5 c 128,-1,38
 210 506 210 506 260 506 c 0,39,40
 319 506 319 506 368 479 c 128,-1,41
 417 452 417 452 434 404 c 1,42,-1
 369 379 l 1,43,44
 359 412 359 412 326.5 429.5 c 128,-1,45
 294 447 294 447 254 447 c 0,46,47
 208 447 208 447 173.5 428 c 128,-1,48
 139 409 139 409 139 371 c 0,49,50
 139 344 139 344 158.5 327.5 c 128,-1,51
 178 311 178 311 219 296 c 2,52,-1
 265 280 l 2,53,54
 334 255 334 255 367.5 225.5 c 128,-1,55
 401 196 401 196 401 150 c 0,56,57
 401 107 401 107 379 70 c 128,-1,58
 357 33 357 33 312 10.5 c 128,-1,59
 267 -12 267 -12 201 -12 c 1,60,-1
 172 -45 l 1,61,62
 182 -44 182 -44 192 -43 c 0,63,64
 220 -43 220 -43 238 -58 c 128,-1,65
 256 -73 256 -73 256 -98 c 0,66,67
 256 -134 256 -134 228.5 -157 c 128,-1,68
 201 -180 201 -180 160 -180 c 0,69,0
 117 -180 117 -180 72 -150 c 1,1,-1
EndSplineSet
Substitution2: "'locl' Localized Forms in Latin lookup 4 subtable" uni0219
AlternateSubs2: "'aalt' Access All Alternates in Latin lookup 0 subtable" uni0219
EndChar
StartChar: uni0162
Encoding: 354 354 85
Width: 539
GlyphClass: 2
Flags: W
AnchorPoint: "Anchor-1" 359 668 basechar 0
LayerCount: 2
Fore
SplineSet
308 604 m 1,0,-1
 85 604 l 1,1,-1
 98 668 l 1,2,-1
 619 668 l 1,3,-1
 606 604 l 1,4,-1
 382 604 l 1,5,-1
 253 0 l 1,6,-1
 238 0 l 1,7,-1
 199 -45 l 1,8,-1
 219 -43 l 2,9,10
 248 -43 248 -43 265.5 -58 c 128,-1,11
 283 -73 283 -73 283 -98 c 0,12,13
 283 -134 283 -134 255.5 -157 c 128,-1,14
 228 -180 228 -180 188 -180 c 0,15,16
 163 -180 163 -180 142.5 -172.5 c 128,-1,17
 122 -165 122 -165 100 -150 c 1,18,-1
 119 -122 l 1,19,20
 154 -144 154 -144 181 -144 c 0,21,22
 203 -144 203 -144 217 -133 c 128,-1,23
 231 -122 231 -122 231 -106 c 0,24,25
 231 -91 231 -91 219 -84 c 128,-1,26
 207 -77 207 -77 188 -77 c 0,27,28
 176 -78 176 -78 164 -79 c 2,29,-1
 161 -79 l 2,30,31
 146 -79 146 -79 146 -66 c 0,32,33
 146 -57 146 -57 152 -51 c 2,34,-1
 195 0 l 1,35,-1
 180 0 l 1,36,-1
 308 604 l 1,0,-1
EndSplineSet
Substitution2: "'locl' Localized Forms in Latin lookup 4 subtable" uni021A
AlternateSubs2: "'aalt' Access All Alternates in Latin lookup 0 subtable" uni021A
EndChar
StartChar: uni0163
Encoding: 355 355 196
Width: 309
GlyphClass: 2
Flags: W
AnchorPoint: "Anchor-3" 264 543 basechar 0
AnchorPoint: "Anchor-1" 209 496 basechar 0
LayerCount: 2
Fore
SplineSet
19 -150 m 1,1,-1
 38 -122 l 1,2,3
 73 -144 73 -144 101 -144 c 0,4,5
 122 -144 122 -144 136.5 -133 c 128,-1,6
 151 -122 151 -122 151 -106 c 0,7,8
 151 -91 151 -91 139 -84 c 128,-1,9
 127 -77 127 -77 107 -77 c 0,10,11
 95 -78 95 -78 83 -79 c 2,12,-1
 80 -79 l 2,13,14
 65 -79 65 -79 65 -66 c 0,15,16
 65 -57 65 -57 71 -51 c 2,17,-1
 120 8 l 1,18,19
 95 15 95 15 83.5 31.5 c 128,-1,20
 72 48 72 48 72 76 c 0,21,22
 72 100 72 100 79 131 c 2,23,-1
 145 441 l 1,24,-1
 61 441 l 1,25,-1
 72 496 l 1,26,-1
 157 496 l 1,27,-1
 184 620 l 1,28,-1
 252 620 l 1,29,-1
 225 496 l 1,30,-1
 327 496 l 1,31,-1
 315 441 l 1,32,-1
 213 441 l 1,33,-1
 148 132 l 2,34,35
 143 109 143 109 143 96 c 0,36,37
 143 76 143 76 156 68 c 128,-1,38
 169 60 169 60 204 60 c 2,39,-1
 234 60 l 1,40,-1
 221 0 l 1,41,-1
 197 0 l 2,42,43
 171 0 171 0 158 1 c 1,44,-1
 118 -45 l 1,45,-1
 138 -43 l 2,46,47
 167 -43 167 -43 184.5 -58 c 128,-1,48
 202 -73 202 -73 202 -98 c 0,49,50
 202 -134 202 -134 174.5 -157 c 128,-1,51
 147 -180 147 -180 107 -180 c 0,52,0
 64 -180 64 -180 19 -150 c 1,1,-1
EndSplineSet
Substitution2: "'locl' Localized Forms in Latin lookup 4 subtable" uni021B
AlternateSubs2: "'aalt' Access All Alternates in Latin lookup 0 subtable" uni021B
EndChar
StartChar: Uring
Encoding: 366 366 95
Width: 681
GlyphClass: 2
Flags: W
AnchorPoint: "Anchor-3" 756 668 basechar 0
AnchorPoint: "Anchor-2" 487 10 basechar 0
AnchorPoint: "Anchor-1" 475 879 basechar 0
AnchorPoint: "Anchor-0" 287 0 basechar 0
LayerCount: 2
Fore
SplineSet
78 198 m 0,1,2
 78 244 78 244 90 301 c 2,3,-1
 168 668 l 1,4,-1
 242 668 l 1,5,-1
 161 286 l 2,6,7
 151 236 151 236 151 205 c 0,8,9
 151 52 151 52 327 52 c 0,10,11
 409 52 409 52 458.5 100.5 c 128,-1,12
 508 149 508 149 529 250 c 2,13,-1
 618 668 l 1,14,-1
 692 668 l 1,15,-1
 602 248 l 2,16,17
 573 115 573 115 507.5 51.5 c 128,-1,18
 442 -12 442 -12 328 -12 c 0,19,0
 78 -12 78 -12 78 198 c 0,1,2
359.5 703.5 m 128,-1,21
 329 734 329 734 329 776 c 256,22,23
 329 818 329 818 359.5 848.5 c 128,-1,24
 390 879 390 879 432 879 c 256,25,26
 474 879 474 879 504.5 848.5 c 128,-1,27
 535 818 535 818 535 776 c 256,28,29
 535 734 535 734 504.5 703.5 c 128,-1,30
 474 673 474 673 432 673 c 256,31,20
 390 673 390 673 359.5 703.5 c 128,-1,21
471 738.5 m 128,-1,33
 487 754 487 754 487 776 c 256,34,35
 487 798 487 798 471 813.5 c 128,-1,36
 455 829 455 829 432 829 c 256,37,38
 409 829 409 829 393 813.5 c 128,-1,39
 377 798 377 798 377 776 c 256,40,41
 377 754 377 754 393 738.5 c 128,-1,42
 409 723 409 723 432 723 c 256,43,32
 455 723 455 723 471 738.5 c 128,-1,33
EndSplineSet
EndChar
StartChar: Uogonek
Encoding: 370 370 94
Width: 681
GlyphClass: 2
Flags: W
AnchorPoint: "Anchor-3" 756 668 basechar 0
AnchorPoint: "Anchor-1" 430 668 basechar 0
AnchorPoint: "Anchor-0" 287 0 basechar 0
LayerCount: 2
Fore
SplineSet
346 -152 m 128,-1,1
 322 -134 322 -134 322 -102 c 0,2,3
 322 -78 322 -78 335.5 -53.5 c 128,-1,4
 349 -29 349 -29 371 -9 c 1,5,6
 341 -11 341 -11 320 -11 c 0,7,8
 221 -11 221 -11 149.5 33.5 c 128,-1,9
 78 78 78 78 78 199 c 0,10,11
 78 244 78 244 90 301 c 2,12,-1
 168 668 l 1,13,-1
 242 668 l 1,14,-1
 161 286 l 2,15,16
 151 236 151 236 151 205 c 0,17,18
 151 52 151 52 327 52 c 0,19,20
 409 52 409 52 458.5 100.5 c 128,-1,21
 508 149 508 149 529 250 c 2,22,-1
 618 668 l 1,23,-1
 692 668 l 1,24,-1
 602 248 l 2,25,26
 582 157 582 157 547 101 c 128,-1,27
 512 45 512 45 459 16 c 0,28,29
 427 -1 427 -1 404.5 -28 c 128,-1,30
 382 -55 382 -55 382 -81 c 0,31,32
 382 -102 382 -102 396 -111.5 c 128,-1,33
 410 -121 410 -121 432 -121 c 0,34,35
 448 -121 448 -121 461 -117 c 1,36,-1
 450 -165 l 1,37,38
 430 -170 430 -170 409 -170 c 0,39,0
 370 -170 370 -170 346 -152 c 128,-1,1
EndSplineSet
EndChar
StartChar: uogonek
Encoding: 371 371 205
Width: 533
GlyphClass: 2
Flags: W
AnchorPoint: "Anchor-3" 550 496 basechar 0
AnchorPoint: "Anchor-1" 309 496 basechar 0
AnchorPoint: "Anchor-0" 203 0 basechar 0
LayerCount: 2
Fore
SplineSet
92 24 m 128,-1,1
 53 60 53 60 53 129 c 0,2,3
 53 150 53 150 60 187 c 2,4,-1
 126 496 l 1,5,-1
 194 496 l 1,6,-1
 130 199 l 2,7,8
 125 177 125 177 125 148 c 0,9,10
 125 100 125 100 148 74 c 128,-1,11
 171 48 171 48 216 48 c 0,12,13
 278 48 278 48 323.5 96 c 128,-1,14
 369 144 369 144 386 226 c 2,15,-1
 443 496 l 1,16,-1
 511 496 l 1,17,-1
 406 0 l 1,18,19
 365 -13 365 -13 333.5 -35.5 c 128,-1,20
 302 -58 302 -58 302 -86 c 0,21,22
 302 -105 302 -105 317 -113 c 128,-1,23
 332 -121 332 -121 353 -121 c 0,24,25
 369 -121 369 -121 381 -117 c 1,26,-1
 370 -165 l 1,27,28
 353 -170 353 -170 327 -170 c 0,29,30
 290 -170 290 -170 266.5 -152 c 128,-1,31
 243 -134 243 -134 243 -103 c 0,32,33
 243 -64 243 -64 273.5 -34.5 c 128,-1,34
 304 -5 304 -5 353 14 c 1,35,-1
 357 77 l 1,36,37
 330 38 330 38 286.5 13 c 128,-1,38
 243 -12 243 -12 190 -12 c 0,39,0
 131 -12 131 -12 92 24 c 128,-1,1
EndSplineSet
EndChar
StartChar: florin
Encoding: 402 402 295
Width: 309
GlyphClass: 1
Flags: W
LayerCount: 2
Fore
SplineSet
-61 -166 m 1,1,-1
 -49 -106 l 1,2,3
 -37 -112 -37 -112 -21 -112 c 0,4,5
 38 -112 38 -112 52 -40 c 2,6,-1
 155 443 l 1,7,-1
 71 443 l 1,8,-1
 82 496 l 1,9,-1
 167 496 l 1,10,-1
 182 567 l 2,11,12
 194 621 194 621 207.5 648 c 128,-1,13
 221 675 221 675 248 687.5 c 128,-1,14
 275 700 275 700 327 700 c 2,15,-1
 376 700 l 1,16,-1
 364 642 l 1,17,-1
 309 642 l 2,18,19
 280 642 280 642 268.5 628.5 c 128,-1,20
 257 615 257 615 248 573 c 2,21,-1
 232 496 l 1,22,-1
 333 496 l 1,23,-1
 322 443 l 1,24,-1
 220 443 l 1,25,-1
 118 -40 l 2,26,27
 102 -116 102 -116 64.5 -144 c 128,-1,28
 27 -172 27 -172 -23 -172 c 0,29,0
 -43 -172 -43 -172 -61 -166 c 1,1,-1
EndSplineSet
EndChar
StartChar: uni0237
Encoding: 567 567 159
Width: 229
GlyphClass: 2
Flags: W
AnchorPoint: "Anchor-1" 172 496 basechar 0
AnchorPoint: "Anchor-0" 3 -251 basechar 0
LayerCount: 2
Fore
SplineSet
-130 -102 m 1,0,-1
 -69 -102 l 2,1,2
 -33 -102 -33 -102 -16 -96 c 128,-1,3
 1 -90 1 -90 10.5 -72 c 128,-1,4
 20 -54 20 -54 28 -13 c 2,5,-1
 138 496 l 1,6,-1
 206 496 l 1,7,-1
 95 -24 l 2,8,9
 83 -82 83 -82 67 -110.5 c 128,-1,10
 51 -139 51 -139 22.5 -150.5 c 128,-1,11
 -6 -162 -6 -162 -58 -162 c 2,12,-1
 -143 -162 l 1,13,-1
 -130 -102 l 1,0,-1
EndSplineSet
EndChar
StartChar: uni02C9
Encoding: 713 713 374
Width: 344
GlyphClass: 1
Flags: W
LayerCount: 2
Fore
SplineSet
128 674 m 1,0,-1
 397 674 l 1,1,-1
 385 615 l 1,2,-1
 116 615 l 1,3,-1
 128 674 l 1,0,-1
EndSplineSet
EndChar
StartChar: gravecomb
Encoding: 768 768 349
Width: 0
GlyphClass: 4
Flags: W
AnchorPoint: "Anchor-5" 256 701 basemark 0
AnchorPoint: "Anchor-5" 212 496 mark 0
AnchorPoint: "Anchor-1" 212 496 mark 0
LayerCount: 2
Fore
SplineSet
132 644 m 128,-1,1
 126 654 126 654 126 664 c 0,2,3
 126 678 126 678 135.5 689.5 c 128,-1,4
 145 701 145 701 161 701 c 0,5,6
 171 701 171 701 178 694 c 128,-1,7
 185 687 185 687 194 670 c 2,8,-1
 250 570 l 1,9,-1
 199 570 l 1,10,-1
 153 618 l 2,11,0
 138 634 138 634 132 644 c 128,-1,1
EndSplineSet
Substitution2: "Single Substitution lookup 13 subtable" gravecomb.case
Substitution2: "'case' Case-Sensitive Forms in Latin lookup 11 subtable" gravecomb.case
AlternateSubs2: "'aalt' Access All Alternates in Latin lookup 0 subtable" gravecomb.case
EndChar
StartChar: acutecomb
Encoding: 769 769 351
Width: 0
GlyphClass: 4
Flags: W
AnchorPoint: "Anchor-5" 160 701 basemark 0
AnchorPoint: "Anchor-5" 117 496 mark 0
AnchorPoint: "Anchor-1" 117 496 mark 0
LayerCount: 2
Fore
SplineSet
230.5 693.5 m 128,-1,1
 242 701 242 701 255 701 c 0,2,3
 267 701 267 701 275 694 c 128,-1,4
 283 687 283 687 283 676 c 0,5,6
 283 661 283 661 271.5 649.5 c 128,-1,7
 260 638 260 638 233 618 c 2,8,-1
 168 570 l 1,9,-1
 105 570 l 1,10,-1
 203 670 l 2,11,0
 219 686 219 686 230.5 693.5 c 128,-1,1
EndSplineSet
Substitution2: "Single Substitution lookup 13 subtable" acutecomb.case
Substitution2: "'case' Case-Sensitive Forms in Latin lookup 11 subtable" acutecomb.case
AlternateSubs2: "'aalt' Access All Alternates in Latin lookup 0 subtable" acutecomb.case
EndChar
StartChar: tildecomb
Encoding: 771 771 364
Width: 0
GlyphClass: 4
Flags: W
AnchorPoint: "Anchor-5" 278 670 basemark 0
AnchorPoint: "Anchor-5" 241 496 mark 0
AnchorPoint: "Anchor-1" 241 496 mark 0
LayerCount: 2
Fore
SplineSet
289.5 582 m 128,-1,1
 275 588 275 588 257 599 c 0,2,3
 241 608 241 608 231.5 612.5 c 128,-1,4
 222 617 222 617 210 617 c 0,5,6
 193 617 193 617 179 606.5 c 128,-1,7
 165 596 165 596 159 577 c 1,8,-1
 107 577 l 1,9,10
 143 668 143 668 221 668 c 0,11,12
 240 668 240 668 254 662 c 128,-1,13
 268 656 268 656 285 645 c 0,14,15
 302 635 302 635 311 631 c 128,-1,16
 320 627 320 627 332 627 c 0,17,18
 347 627 347 627 357 633.5 c 128,-1,19
 367 640 367 640 377 653 c 0,20,21
 390 669 390 669 405 669 c 0,22,23
 413 669 413 669 418.5 664 c 128,-1,24
 424 659 424 659 424 650 c 0,25,26
 424 637 424 637 410 619.5 c 128,-1,27
 396 602 396 602 373 589 c 128,-1,28
 350 576 350 576 323 576 c 0,29,0
 304 576 304 576 289.5 582 c 128,-1,1
EndSplineSet
Substitution2: "Single Substitution lookup 13 subtable" tildecomb.case
Substitution2: "'case' Case-Sensitive Forms in Latin lookup 11 subtable" tildecomb.case
AlternateSubs2: "'aalt' Access All Alternates in Latin lookup 0 subtable" tildecomb.case
EndChar
StartChar: uni0306
Encoding: 774 774 360
Width: 0
GlyphClass: 4
Flags: W
AnchorPoint: "Anchor-5" 258 682 basemark 0
AnchorPoint: "Anchor-5" 218 496 mark 0
AnchorPoint: "Anchor-1" 218 496 mark 0
LayerCount: 2
Fore
SplineSet
165 601.5 m 128,-1,1
 133 632 133 632 129 679 c 1,2,-1
 182 679 l 1,3,4
 186 654 186 654 205 639 c 128,-1,5
 224 624 224 624 252 624 c 256,6,7
 280 624 280 624 302.5 640 c 128,-1,8
 325 656 325 656 335 679 c 1,9,-1
 388 679 l 1,10,11
 374 631 374 631 334.5 601 c 128,-1,12
 295 571 295 571 245 571 c 0,13,0
 197 571 197 571 165 601.5 c 128,-1,1
EndSplineSet
Substitution2: "Single Substitution lookup 13 subtable" uni0306.case
Substitution2: "'case' Case-Sensitive Forms in Latin lookup 11 subtable" uni0306.case
AlternateSubs2: "'aalt' Access All Alternates in Latin lookup 0 subtable" uni0306.case
EndChar
StartChar: uni0307
Encoding: 775 775 346
Width: 0
GlyphClass: 4
Flags: W
AnchorPoint: "Anchor-5" 181 691 basemark 0
AnchorPoint: "Anchor-5" 139 496 mark 0
AnchorPoint: "Anchor-1" 139 496 mark 0
LayerCount: 2
Fore
SplineSet
136 609 m 128,-1,1
 122 623 122 623 122 643 c 256,2,3
 122 663 122 663 136 677 c 128,-1,4
 150 691 150 691 170 691 c 256,5,6
 190 691 190 691 204 677 c 128,-1,7
 218 663 218 663 218 643 c 256,8,9
 218 623 218 623 204 609 c 128,-1,10
 190 595 190 595 170 595 c 256,11,0
 150 595 150 595 136 609 c 128,-1,1
EndSplineSet
Substitution2: "Single Substitution lookup 13 subtable" uni0307.case
Substitution2: "'case' Case-Sensitive Forms in Latin lookup 11 subtable" uni0307.case
AlternateSubs2: "'aalt' Access All Alternates in Latin lookup 0 subtable" uni0307.case
EndChar
StartChar: uni0308
Encoding: 776 776 344
Width: 0
GlyphClass: 4
Flags: W
AnchorPoint: "Anchor-5" 264 691 basemark 0
AnchorPoint: "Anchor-5" 222 496 mark 0
AnchorPoint: "Anchor-1" 222 496 mark 0
LayerCount: 2
Fore
SplineSet
304 610 m 128,-1,1
 290 624 290 624 290 643 c 0,2,3
 290 663 290 663 304 677 c 128,-1,4
 318 691 318 691 338 691 c 256,5,6
 358 691 358 691 372 677 c 128,-1,7
 386 663 386 663 386 643 c 0,8,9
 386 624 386 624 372 610 c 128,-1,10
 358 596 358 596 338 596 c 256,11,0
 318 596 318 596 304 610 c 128,-1,1
136 609.5 m 128,-1,13
 122 623 122 623 122 643 c 256,14,15
 122 663 122 663 136 677 c 128,-1,16
 150 691 150 691 170 691 c 256,17,18
 190 691 190 691 203.5 677 c 128,-1,19
 217 663 217 663 217 643 c 0,20,21
 217 624 217 624 203.5 610 c 128,-1,22
 190 596 190 596 170 596 c 256,23,12
 150 596 150 596 136 609.5 c 128,-1,13
EndSplineSet
Substitution2: "Single Substitution lookup 13 subtable" uni0308.case
Substitution2: "'case' Case-Sensitive Forms in Latin lookup 11 subtable" uni0308.case
AlternateSubs2: "'aalt' Access All Alternates in Latin lookup 0 subtable" uni0308.case
EndChar
StartChar: uni030A
Encoding: 778 778 362
Width: 0
GlyphClass: 4
Flags: W
AnchorPoint: "Anchor-5" 262 768 basemark 0
AnchorPoint: "Anchor-5" 204 496 mark 0
AnchorPoint: "Anchor-1" 204 496 mark 0
LayerCount: 2
Fore
SplineSet
158 596 m 128,-1,1
 128 626 128 626 128 668 c 256,2,3
 128 710 128 710 158 740 c 128,-1,4
 188 770 188 770 230 770 c 256,5,6
 272 770 272 770 302 740 c 128,-1,7
 332 710 332 710 332 668 c 256,8,9
 332 626 332 626 302 596 c 128,-1,10
 272 566 272 566 230 566 c 256,11,0
 188 566 188 566 158 596 c 128,-1,1
268.5 630 m 128,-1,13
 284 646 284 646 284 668 c 0,14,15
 284 691 284 691 268.5 706.5 c 128,-1,16
 253 722 253 722 230 722 c 0,17,18
 208 722 208 722 192 706 c 128,-1,19
 176 690 176 690 176 668 c 256,20,21
 176 646 176 646 192 630 c 128,-1,22
 208 614 208 614 230 614 c 0,23,12
 253 614 253 614 268.5 630 c 128,-1,13
EndSplineSet
Substitution2: "Single Substitution lookup 13 subtable" uni030A.case
Substitution2: "'case' Case-Sensitive Forms in Latin lookup 11 subtable" uni030A.case
AlternateSubs2: "'aalt' Access All Alternates in Latin lookup 0 subtable" uni030A.case
EndChar
StartChar: uni030B
Encoding: 779 779 353
Width: 0
GlyphClass: 4
Flags: W
AnchorPoint: "Anchor-5" 325 700 basemark 0
AnchorPoint: "Anchor-5" 195 496 mark 0
AnchorPoint: "Anchor-1" 195 496 mark 0
LayerCount: 2
Fore
SplineSet
254 700 m 0,1,2
 265 700 265 700 272.5 694 c 128,-1,3
 280 688 280 688 280 678 c 0,4,5
 280 663 280 663 268 650 c 128,-1,6
 256 637 256 637 230 619 c 2,7,-1
 164 570 l 1,8,-1
 105 570 l 1,9,-1
 203 670 l 2,10,0
 232 700 232 700 254 700 c 0,1,2
371 693 m 128,-1,12
 383 700 383 700 396 700 c 0,13,14
 407 700 407 700 414 694 c 128,-1,15
 421 688 421 688 421 678 c 0,16,17
 421 664 421 664 409.5 651.5 c 128,-1,18
 398 639 398 639 372 619 c 2,19,-1
 306 570 l 1,20,-1
 247 570 l 1,21,-1
 344 670 l 2,22,11
 359 686 359 686 371 693 c 128,-1,12
EndSplineSet
Substitution2: "Single Substitution lookup 13 subtable" uni030B.case
Substitution2: "'case' Case-Sensitive Forms in Latin lookup 11 subtable" uni030B.case
AlternateSubs2: "'aalt' Access All Alternates in Latin lookup 0 subtable" uni030B.case
EndChar
StartChar: uni0312
Encoding: 786 786 368
Width: 0
GlyphClass: 4
Flags: W
AnchorPoint: "Anchor-5" 218 763 basemark 0
AnchorPoint: "Anchor-5" 141 496 mark 0
AnchorPoint: "Anchor-1" 141 496 mark 0
LayerCount: 2
Fore
SplineSet
124 648 m 0,1,2
 124 681 124 681 143.5 708.5 c 128,-1,3
 163 736 163 736 193.5 750.5 c 128,-1,4
 224 765 224 765 257 762 c 1,5,-1
 288 728 l 1,6,7
 283 729 283 729 272 729 c 0,8,9
 234 729 234 729 206.5 708 c 128,-1,10
 179 687 179 687 179 650 c 0,11,12
 179 619 179 619 207 598 c 1,13,-1
 157 578 l 1,14,0
 124 607 124 607 124 648 c 0,1,2
EndSplineSet
EndChar
StartChar: uni0326
Encoding: 806 806 369
Width: 0
GlyphClass: 4
Flags: W
AnchorPoint: "Anchor-4" 14 -242 basemark 0
AnchorPoint: "Anchor-4" 66 0 mark 0
AnchorPoint: "Anchor-0" 66 0 mark 0
LayerCount: 2
Fore
SplineSet
-44 -207 m 0,1,2
 -6 -207 -6 -207 21.5 -185.5 c 128,-1,3
 49 -164 49 -164 49 -126 c 0,4,5
 49 -96 49 -96 21 -75 c 1,6,-1
 71 -54 l 1,7,8
 104 -84 104 -84 104 -124 c 0,9,10
 104 -157 104 -157 84.5 -185 c 128,-1,11
 65 -213 65 -213 34 -228 c 128,-1,12
 3 -243 3 -243 -29 -239 c 1,13,-1
 -59 -206 l 1,14,0
 -54 -207 -54 -207 -44 -207 c 0,1,2
EndSplineSet
EndChar
StartChar: uni0327
Encoding: 807 807 370
Width: 0
GlyphClass: 4
Flags: W
AnchorPoint: "Anchor-4" 34 -179 basemark 0
AnchorPoint: "Anchor-4" 73 0 mark 0
AnchorPoint: "Anchor-0" 73 0 mark 0
LayerCount: 2
Fore
SplineSet
-4.5 -172.5 m 128,-1,1
 -25 -165 -25 -165 -47 -150 c 1,2,-1
 -28 -122 l 1,3,4
 7 -144 7 -144 34 -144 c 0,5,6
 56 -144 56 -144 70 -133 c 128,-1,7
 84 -122 84 -122 84 -106 c 0,8,9
 84 -91 84 -91 72 -84 c 128,-1,10
 60 -77 60 -77 41 -77 c 0,11,12
 29 -78 29 -78 17 -79 c 2,13,-1
 14 -79 l 2,14,15
 -1 -79 -1 -79 -1 -66 c 0,16,17
 -1 -57 -1 -57 5 -51 c 2,18,-1
 67 23 l 1,19,-1
 96 6 l 1,20,-1
 52 -45 l 1,21,-1
 72 -43 l 2,22,23
 101 -43 101 -43 118.5 -58 c 128,-1,24
 136 -73 136 -73 136 -98 c 0,25,26
 136 -134 136 -134 108.5 -157 c 128,-1,27
 81 -180 81 -180 41 -180 c 0,28,0
 16 -180 16 -180 -4.5 -172.5 c 128,-1,1
EndSplineSet
EndChar
StartChar: uni0328
Encoding: 808 808 371
Width: 0
GlyphClass: 4
Flags: W
AnchorPoint: "Anchor-2" 130 10 mark 0
LayerCount: 2
Fore
SplineSet
-12 -152 m 128,-1,1
 -36 -134 -36 -134 -36 -103 c 0,2,3
 -36 -61 -36 -61 -2 -31 c 128,-1,4
 32 -1 32 -1 85 17 c 1,5,-1
 128 0 l 1,6,7
 87 -13 87 -13 55.5 -35.5 c 128,-1,8
 24 -58 24 -58 24 -86 c 0,9,10
 24 -105 24 -105 39 -113 c 128,-1,11
 54 -121 54 -121 75 -121 c 0,12,13
 91 -121 91 -121 103 -117 c 1,14,-1
 92 -165 l 1,15,16
 73 -170 73 -170 49 -170 c 0,17,0
 12 -170 12 -170 -12 -152 c 128,-1,1
EndSplineSet
Substitution2: "Single Substitution lookup 13 subtable" uni0328.case
Substitution2: "'case' Case-Sensitive Forms in Latin lookup 11 subtable" uni0328.case
AlternateSubs2: "'aalt' Access All Alternates in Latin lookup 0 subtable" uni0328.case
EndChar
StartChar: uni03A9
Encoding: 937 937 226
Width: 680
GlyphClass: 1
Flags: W
LayerCount: 2
Fore
SplineSet
7 64 m 1,0,-1
 173 64 l 1,1,-1
 185 123 l 1,2,3
 134 152 134 152 103.5 216.5 c 128,-1,4
 73 281 73 281 73 354 c 0,5,6
 73 440 73 440 116.5 515 c 128,-1,7
 160 590 160 590 234.5 635 c 128,-1,8
 309 680 309 680 397 680 c 0,9,10
 474 680 474 680 535 644 c 128,-1,11
 596 608 596 608 630.5 547 c 128,-1,12
 665 486 665 486 665 414 c 0,13,14
 665 314 665 314 604.5 236.5 c 128,-1,15
 544 159 544 159 444 119 c 1,16,-1
 431 64 l 1,17,-1
 595 64 l 1,18,-1
 582 0 l 1,19,-1
 355 0 l 1,20,-1
 388 161 l 1,21,22
 484 187 484 187 544.5 254 c 128,-1,23
 605 321 605 321 605 411 c 0,24,25
 605 468 605 468 578 516 c 128,-1,26
 551 564 551 564 503 592 c 128,-1,27
 455 620 455 620 394 620 c 0,28,29
 324 620 324 620 264.5 584 c 128,-1,30
 205 548 205 548 170 487.5 c 128,-1,31
 135 427 135 427 135 357 c 0,32,33
 135 289 135 289 168 234 c 128,-1,34
 201 179 201 179 256 161 c 1,35,-1
 222 0 l 1,36,-1
 -6 0 l 1,37,-1
 7 64 l 1,0,-1
EndSplineSet
EndChar
StartChar: uni03BC
Encoding: 956 956 227
Width: 541
GlyphClass: 1
Flags: W
LayerCount: 2
Fore
SplineSet
127 496 m 1,0,-1
 195 496 l 1,1,-1
 132 201 l 2,2,3
 126 173 126 173 126 149 c 0,4,5
 126 102 126 102 149.5 76 c 128,-1,6
 173 50 173 50 217 50 c 0,7,8
 281 50 281 50 327 96.5 c 128,-1,9
 373 143 373 143 390 226 c 2,10,-1
 447 496 l 1,11,-1
 516 498 l 1,12,-1
 434 111 l 2,13,14
 430 89 430 89 430 84 c 0,15,16
 430 70 430 70 438.5 64.5 c 128,-1,17
 447 59 447 59 468 59 c 2,18,-1
 479 59 l 1,19,-1
 467 0 l 1,20,-1
 444 0 l 2,21,22
 397 0 397 0 378.5 14 c 128,-1,23
 360 28 360 28 360 57 c 0,24,25
 360 69 360 69 361 76 c 1,26,27
 334 37 334 37 291 13.5 c 128,-1,28
 248 -10 248 -10 196 -10 c 0,29,30
 167 -10 167 -10 140.5 0.5 c 128,-1,31
 114 11 114 11 96 33 c 1,32,-1
 55 -162 l 1,33,-1
 -13 -162 l 1,34,-1
 127 496 l 1,0,-1
EndSplineSet
EndChar
StartChar: pi
Encoding: 960 960 228
Width: 541
GlyphClass: 1
Flags: W
LayerCount: 2
Fore
SplineSet
133 434 m 1,0,-1
 59 434 l 1,1,-1
 72 496 l 1,2,-1
 560 496 l 1,3,-1
 546 434 l 1,4,-1
 464 434 l 1,5,-1
 399 130 l 2,6,7
 393 105 393 105 393 90 c 0,8,9
 393 73 393 73 402.5 66.5 c 128,-1,10
 412 60 412 60 435 60 c 2,11,-1
 467 60 l 1,12,-1
 454 0 l 1,13,-1
 437 0 l 2,14,15
 373 0 373 0 348.5 13.5 c 128,-1,16
 324 27 324 27 324 65 c 0,17,18
 324 86 324 86 332 124 c 2,19,-1
 398 434 l 1,20,-1
 197 434 l 1,21,-1
 105 0 l 1,22,-1
 40 0 l 1,23,-1
 133 434 l 1,0,-1
EndSplineSet
EndChar
StartChar: uni1E9E
Encoding: 7838 7838 82
Width: 644
GlyphClass: 1
Flags: W
LayerCount: 2
Fore
SplineSet
285.5 18.5 m 128,-1,1
 245 49 245 49 234 104 c 1,2,-1
 295 125 l 1,3,4
 301 89 301 89 327 69.5 c 128,-1,5
 353 50 353 50 395 50 c 0,6,7
 433 50 433 50 462.5 70.5 c 128,-1,8
 492 91 492 91 508 125 c 128,-1,9
 524 159 524 159 524 198 c 0,10,11
 524 246 524 246 495 271 c 128,-1,12
 466 296 466 296 422 296 c 0,13,14
 405 296 405 296 386 292 c 1,15,-1
 366 344 l 1,16,-1
 591 592 l 1,17,18
 471 620 471 620 379 620 c 0,19,20
 301 620 301 620 258.5 581 c 128,-1,21
 216 542 216 542 198 460 c 2,22,-1
 100 0 l 1,23,-1
 26 0 l 1,24,-1
 126 473 l 2,25,26
 148 576 148 576 208.5 628 c 128,-1,27
 269 680 269 680 379 680 c 0,28,29
 437 680 437 680 506 669 c 128,-1,30
 575 658 575 658 666 634 c 1,31,-1
 653 572 l 1,32,-1
 455 352 l 1,33,34
 515 348 515 348 555 307.5 c 128,-1,35
 595 267 595 267 595 201 c 0,36,37
 595 143 595 143 569 94.5 c 128,-1,38
 543 46 543 46 496 17 c 128,-1,39
 449 -12 449 -12 390 -12 c 0,40,0
 326 -12 326 -12 285.5 18.5 c 128,-1,1
EndSplineSet
EndChar
StartChar: endash
Encoding: 8211 8211 274
Width: 504
GlyphClass: 1
Flags: W
LayerCount: 2
Fore
SplineSet
64 280 m 1,0,-1
 454 280 l 1,1,-1
 439 214 l 1,2,-1
 49 214 l 1,3,-1
 64 280 l 1,0,-1
EndSplineSet
EndChar
StartChar: emdash
Encoding: 8212 8212 275
Width: 819
GlyphClass: 1
Flags: W
LayerCount: 2
Fore
SplineSet
64 280 m 1,0,-1
 769 280 l 1,1,-1
 755 214 l 1,2,-1
 49 214 l 1,3,-1
 64 280 l 1,0,-1
EndSplineSet
EndChar
StartChar: quoteleft
Encoding: 8216 8216 287
Width: 209
GlyphClass: 1
Flags: W
LayerCount: 2
Fore
SplineSet
118 456 m 128,-1,1
 102 472 102 472 102 494 c 0,2,3
 102 514 102 514 115 533 c 2,4,-1
 198 668 l 1,5,-1
 244 668 l 1,6,-1
 174 550 l 1,7,8
 212 537 212 537 212 496 c 0,9,10
 212 473 212 473 196 456.5 c 128,-1,11
 180 440 180 440 158 440 c 0,12,0
 134 440 134 440 118 456 c 128,-1,1
EndSplineSet
EndChar
StartChar: quoteright
Encoding: 8217 8217 288
Width: 210
GlyphClass: 1
Flags: W
LayerCount: 2
Fore
SplineSet
139 591 m 128,-1,1
 129 605 129 605 129 624 c 0,2,3
 129 647 129 647 145.5 663.5 c 128,-1,4
 162 680 162 680 183 680 c 0,5,6
 208 680 208 680 224 664 c 128,-1,7
 240 648 240 648 240 626 c 0,8,9
 240 608 240 608 227 586 c 2,10,-1
 144 452 l 1,11,-1
 98 452 l 1,12,-1
 168 570 l 1,13,0
 149 577 149 577 139 591 c 128,-1,1
EndSplineSet
EndChar
StartChar: quotesinglbase
Encoding: 8218 8218 283
Width: 210
GlyphClass: 1
Flags: W
LayerCount: 2
Fore
SplineSet
16 10 m 128,-1,1
 6 24 6 24 6 43 c 0,2,3
 6 66 6 66 22 82.5 c 128,-1,4
 38 99 38 99 60 99 c 0,5,6
 85 99 85 99 101 83 c 128,-1,7
 117 67 117 67 117 45 c 0,8,9
 117 28 117 28 104 6 c 2,10,-1
 21 -129 l 1,11,-1
 -25 -129 l 1,12,-1
 44 -11 l 1,13,0
 26 -4 26 -4 16 10 c 128,-1,1
EndSplineSet
EndChar
StartChar: quotedblleft
Encoding: 8220 8220 285
Width: 356
GlyphClass: 1
Flags: W
LayerCount: 2
Fore
SplineSet
264.5 456 m 128,-1,1
 249 472 249 472 249 494 c 0,2,3
 249 513 249 513 261 533 c 2,4,-1
 344 668 l 1,5,-1
 390 668 l 1,6,-1
 321 550 l 1,7,8
 339 543 339 543 349 529 c 128,-1,9
 359 515 359 515 359 496 c 0,10,11
 359 473 359 473 343 456.5 c 128,-1,12
 327 440 327 440 305 440 c 0,13,0
 280 440 280 440 264.5 456 c 128,-1,1
118 456 m 128,-1,15
 102 472 102 472 102 494 c 0,16,17
 102 514 102 514 115 533 c 2,18,-1
 198 668 l 1,19,-1
 244 668 l 1,20,-1
 174 550 l 1,21,22
 212 537 212 537 212 496 c 0,23,24
 212 473 212 473 196 456.5 c 128,-1,25
 180 440 180 440 158 440 c 0,26,14
 134 440 134 440 118 456 c 128,-1,15
EndSplineSet
EndChar
StartChar: quotedblright
Encoding: 8221 8221 286
Width: 356
GlyphClass: 1
Flags: W
LayerCount: 2
Fore
SplineSet
286 591 m 128,-1,1
 276 605 276 605 276 624 c 0,2,3
 276 647 276 647 292 663.5 c 128,-1,4
 308 680 308 680 330 680 c 0,5,6
 355 680 355 680 370.5 664 c 128,-1,7
 386 648 386 648 386 626 c 0,8,9
 386 607 386 607 374 587 c 2,10,-1
 291 452 l 1,11,-1
 245 452 l 1,12,-1
 314 570 l 1,13,0
 296 577 296 577 286 591 c 128,-1,1
139 591 m 128,-1,15
 129 605 129 605 129 624 c 0,16,17
 129 647 129 647 145.5 663.5 c 128,-1,18
 162 680 162 680 183 680 c 0,19,20
 208 680 208 680 224 664 c 128,-1,21
 240 648 240 648 240 626 c 0,22,23
 240 609 240 609 227 587 c 2,24,-1
 144 452 l 1,25,-1
 98 452 l 1,26,-1
 168 570 l 1,27,14
 149 577 149 577 139 591 c 128,-1,15
EndSplineSet
EndChar
StartChar: quotedblbase
Encoding: 8222 8222 284
Width: 356
GlyphClass: 1
Flags: W
LayerCount: 2
Fore
SplineSet
163 10 m 128,-1,1
 153 24 153 24 153 43 c 0,2,3
 153 66 153 66 169 82.5 c 128,-1,4
 185 99 185 99 207 99 c 0,5,6
 232 99 232 99 247.5 83 c 128,-1,7
 263 67 263 67 263 45 c 0,8,9
 263 26 263 26 250 6 c 2,10,-1
 168 -129 l 1,11,-1
 122 -129 l 1,12,-1
 191 -11 l 1,13,0
 173 -4 173 -4 163 10 c 128,-1,1
16 10 m 128,-1,15
 6 24 6 24 6 43 c 0,16,17
 6 66 6 66 22 82.5 c 128,-1,18
 38 99 38 99 60 99 c 0,19,20
 85 99 85 99 101 83 c 128,-1,21
 117 67 117 67 117 45 c 0,22,23
 117 28 117 28 104 6 c 2,24,-1
 21 -129 l 1,25,-1
 -25 -129 l 1,26,-1
 44 -11 l 1,27,14
 26 -4 26 -4 16 10 c 128,-1,15
EndSplineSet
EndChar
StartChar: dagger
Encoding: 8224 8224 307
Width: 525
GlyphClass: 1
Flags: W
LayerCount: 2
Fore
SplineSet
269 431 m 1,0,-1
 80 431 l 1,1,-1
 93 496 l 1,2,-1
 282 496 l 1,3,-1
 319 668 l 1,4,-1
 386 668 l 1,5,-1
 349 496 l 1,6,-1
 538 496 l 1,7,-1
 524 431 l 1,8,-1
 335 431 l 1,9,-1
 244 0 l 1,10,-1
 177 0 l 1,11,-1
 269 431 l 1,0,-1
EndSplineSet
EndChar
StartChar: daggerdbl
Encoding: 8225 8225 309
Width: 526
GlyphClass: 1
Flags: W
LayerCount: 2
Fore
SplineSet
216 171 m 1,0,-1
 24 171 l 1,1,-1
 38 240 l 1,2,-1
 230 240 l 1,3,-1
 270 426 l 1,4,-1
 78 426 l 1,5,-1
 92 496 l 1,6,-1
 285 496 l 1,7,-1
 322 668 l 1,8,-1
 385 668 l 1,9,-1
 348 496 l 1,10,-1
 539 496 l 1,11,-1
 524 426 l 1,12,-1
 333 426 l 1,13,-1
 293 240 l 1,14,-1
 485 240 l 1,15,-1
 471 171 l 1,16,-1
 279 171 l 1,17,-1
 243 0 l 1,18,-1
 180 0 l 1,19,-1
 216 171 l 1,0,-1
EndSplineSet
EndChar
StartChar: perthousand
Encoding: 8240 8240 342
Width: 1336
GlyphClass: 1
Flags: W
LayerCount: 2
Fore
SplineSet
754 668 m 1,0,-1
 832 668 l 1,1,-1
 220 0 l 1,2,-1
 142 0 l 1,3,-1
 754 668 l 1,0,-1
184 349.5 m 128,-1,5
 143 373 143 373 119.5 413.5 c 128,-1,6
 96 454 96 454 96 503 c 0,7,8
 96 551 96 551 120 591.5 c 128,-1,9
 144 632 144 632 184.5 656 c 128,-1,10
 225 680 225 680 273 680 c 0,11,12
 322 680 322 680 362.5 656 c 128,-1,13
 403 632 403 632 427 591.5 c 128,-1,14
 451 551 451 551 451 503 c 0,15,16
 451 454 451 454 427 413.5 c 128,-1,17
 403 373 403 373 362.5 349.5 c 128,-1,18
 322 326 322 326 273 326 c 0,19,4
 225 326 225 326 184 349.5 c 128,-1,5
356 421 m 128,-1,21
 390 455 390 455 390 503 c 256,22,23
 390 551 390 551 356 585 c 128,-1,24
 322 619 322 619 273 619 c 0,25,26
 225 619 225 619 191 585 c 128,-1,27
 157 551 157 551 157 503 c 256,28,29
 157 455 157 455 191 421 c 128,-1,30
 225 387 225 387 273 387 c 0,31,20
 322 387 322 387 356 421 c 128,-1,21
612.5 12 m 128,-1,33
 572 36 572 36 548 76.5 c 128,-1,34
 524 117 524 117 524 165 c 0,35,36
 524 214 524 214 548 254.5 c 128,-1,37
 572 295 572 295 612.5 318.5 c 128,-1,38
 653 342 653 342 702 342 c 0,39,40
 750 342 750 342 791 318.5 c 128,-1,41
 832 295 832 295 855.5 254.5 c 128,-1,42
 879 214 879 214 879 165 c 0,43,44
 879 117 879 117 855 76.5 c 128,-1,45
 831 36 831 36 790.5 12 c 128,-1,46
 750 -12 750 -12 702 -12 c 0,47,32
 653 -12 653 -12 612.5 12 c 128,-1,33
784 83 m 128,-1,49
 818 117 818 117 818 165 c 256,50,51
 818 213 818 213 784 247 c 128,-1,52
 750 281 750 281 702 281 c 0,53,54
 653 281 653 281 619 247 c 128,-1,55
 585 213 585 213 585 165 c 256,56,57
 585 117 585 117 619 83 c 128,-1,58
 653 49 653 49 702 49 c 0,59,48
 750 49 750 49 784 83 c 128,-1,49
1010 12 m 128,-1,61
 969 36 969 36 945 76.5 c 128,-1,62
 921 117 921 117 921 165 c 0,63,64
 921 214 921 214 945 254.5 c 128,-1,65
 969 295 969 295 1010 318.5 c 128,-1,66
 1051 342 1051 342 1099 342 c 256,67,68
 1147 342 1147 342 1188 318.5 c 128,-1,69
 1229 295 1229 295 1253 254.5 c 128,-1,70
 1277 214 1277 214 1277 165 c 0,71,72
 1277 117 1277 117 1253 76.5 c 128,-1,73
 1229 36 1229 36 1188 12 c 128,-1,74
 1147 -12 1147 -12 1099 -12 c 256,75,60
 1051 -12 1051 -12 1010 12 c 128,-1,61
1181.5 83 m 128,-1,77
 1215 117 1215 117 1215 165 c 256,78,79
 1215 213 1215 213 1181.5 247 c 128,-1,80
 1148 281 1148 281 1099 281 c 256,81,82
 1050 281 1050 281 1016 247 c 128,-1,83
 982 213 982 213 982 165 c 256,84,85
 982 117 982 117 1016 83 c 128,-1,86
 1050 49 1050 49 1099 49 c 256,87,76
 1148 49 1148 49 1181.5 83 c 128,-1,77
EndSplineSet
EndChar
StartChar: guilsinglleft
Encoding: 8249 8249 291
Width: 339
GlyphClass: 1
Flags: W
LayerCount: 2
Fore
SplineSet
57 250 m 1,0,-1
 247 460 l 1,1,-1
 327 460 l 1,2,-1
 131 245 l 1,3,-1
 237 40 l 1,4,-1
 166 40 l 1,5,-1
 57 250 l 1,0,-1
EndSplineSet
EndChar
StartChar: guilsinglright
Encoding: 8250 8250 292
Width: 339
GlyphClass: 1
Flags: W
LayerCount: 2
Fore
SplineSet
209 255 m 1,0,-1
 103 460 l 1,1,-1
 173 460 l 1,2,-1
 282 250 l 1,3,-1
 92 40 l 1,4,-1
 13 40 l 1,5,-1
 209 255 l 1,0,-1
EndSplineSet
EndChar
StartChar: Euro
Encoding: 8364 8364 314
Width: 665
GlyphClass: 1
Flags: W
LayerCount: 2
Fore
SplineSet
180 57 m 128,-1,1
 119 127 119 127 117 243 c 1,2,-1
 22 243 l 1,3,-1
 55 287 l 1,4,-1
 118 287 l 1,5,6
 124 345 124 345 134 380 c 1,7,-1
 51 380 l 1,8,-1
 84 425 l 1,9,-1
 147 425 l 1,10,11
 185 537 185 537 262.5 609.5 c 128,-1,12
 340 682 340 682 452 682 c 0,13,14
 529 682 529 682 588.5 642 c 128,-1,15
 648 602 648 602 670 526 c 1,16,-1
 607 504 l 1,17,18
 572 619 572 619 440 619 c 0,19,20
 358 619 358 619 302 564.5 c 128,-1,21
 246 510 246 510 216 425 c 1,22,-1
 491 425 l 1,23,-1
 458 380 l 1,24,-1
 203 380 l 1,25,26
 191 333 191 333 188 287 c 1,27,-1
 395 287 l 1,28,-1
 362 243 l 1,29,-1
 187 243 l 1,30,31
 191 156 191 156 235 103 c 128,-1,32
 279 50 279 50 362 50 c 0,33,34
 420 50 420 50 468.5 75.5 c 128,-1,35
 517 101 517 101 550 158 c 1,36,-1
 611 133 l 1,37,38
 564 55 564 55 498 21 c 128,-1,39
 432 -13 432 -13 358 -13 c 0,40,0
 241 -13 241 -13 180 57 c 128,-1,1
EndSplineSet
EndChar
StartChar: uni20B9
Encoding: 8377 8377 315
Width: 530
GlyphClass: 1
Flags: W
LayerCount: 2
Fore
SplineSet
83 291 m 1,0,-1
 93 339 l 1,1,-1
 184 339 l 2,2,3
 339 339 339 339 358 450 c 1,4,-1
 116 450 l 1,5,-1
 126 495 l 1,6,-1
 361 495 l 1,7,8
 357 546 357 546 310.5 576.5 c 128,-1,9
 264 607 264 607 186 607 c 2,10,-1
 150 607 l 1,11,-1
 163 668 l 1,12,-1
 567 668 l 1,13,-1
 558 623 l 1,14,-1
 350 623 l 1,15,16
 430 577 430 577 433 495 c 1,17,-1
 531 495 l 1,18,-1
 521 450 l 1,19,-1
 430 450 l 1,20,21
 416 368 416 368 350.5 323.5 c 128,-1,22
 285 279 285 279 181 280 c 1,23,-1
 424 0 l 1,24,-1
 336 0 l 1,25,-1
 83 291 l 1,0,-1
EndSplineSet
EndChar
StartChar: uni2113
Encoding: 8467 8467 308
Width: 435
GlyphClass: 1
Flags: W
LayerCount: 2
Fore
SplineSet
125.5 15.5 m 128,-1,1
 97 43 97 43 97 95 c 0,2,3
 97 123 97 123 107 166 c 2,4,-1
 113 197 l 1,5,-1
 35 146 l 1,6,-1
 49 212 l 1,7,-1
 127 265 l 1,8,-1
 183 528 l 2,9,10
 199 600 199 600 233.5 640 c 128,-1,11
 268 680 268 680 324 680 c 0,12,13
 374 680 374 680 401 651 c 128,-1,14
 428 622 428 622 428 571 c 0,15,16
 428 474 428 474 363 395.5 c 128,-1,17
 298 317 298 317 187 243 c 1,18,-1
 169 151 l 2,19,20
 165 127 165 127 165 113 c 0,21,22
 165 47 165 47 225 47 c 0,23,24
 267 47 267 47 314 79 c 1,25,-1
 335 27 l 1,26,27
 310 8 310 8 276.5 -2 c 128,-1,28
 243 -12 243 -12 218 -12 c 0,29,0
 154 -12 154 -12 125.5 15.5 c 128,-1,1
324.5 432.5 m 128,-1,31
 370 499 370 499 370 566 c 0,32,33
 370 594 370 594 357.5 609 c 128,-1,34
 345 624 345 624 323 624 c 0,35,36
 268 624 268 624 248 528 c 2,37,-1
 203 315 l 1,38,30
 279 366 279 366 324.5 432.5 c 128,-1,31
EndSplineSet
EndChar
StartChar: trademark
Encoding: 8482 8482 303
Width: 838
GlyphClass: 1
Flags: W
LayerCount: 2
Fore
SplineSet
468 668 m 1,0,-1
 556 668 l 1,1,-1
 594 374 l 1,2,-1
 757 668 l 1,3,-1
 847 668 l 1,4,-1
 770 305 l 1,5,-1
 716 305 l 1,6,-1
 779 603 l 1,7,-1
 611 305 l 1,8,-1
 551 305 l 1,9,-1
 510 603 l 1,10,-1
 447 305 l 1,11,-1
 391 305 l 1,12,-1
 468 668 l 1,0,-1
240 618 m 1,13,-1
 122 618 l 1,14,-1
 133 668 l 1,15,-1
 423 668 l 1,16,-1
 412 618 l 1,17,-1
 294 618 l 1,18,-1
 228 305 l 1,19,-1
 173 305 l 1,20,-1
 240 618 l 1,13,-1
EndSplineSet
EndChar
StartChar: estimated
Encoding: 8494 8494 310
Width: 628
GlyphClass: 1
Flags: W
LayerCount: 2
Fore
SplineSet
194 18 m 128,-1,1
 135 48 135 48 96.5 109 c 128,-1,2
 58 170 58 170 58 258 c 0,3,4
 58 315 58 315 90.5 372 c 128,-1,5
 123 429 123 429 181.5 465.5 c 128,-1,6
 240 502 240 502 315 502 c 0,7,8
 385 502 385 502 444 467.5 c 128,-1,9
 503 433 503 433 538 374.5 c 128,-1,10
 573 316 573 316 573 247 c 1,11,-1
 156 247 l 1,12,-1
 156 71 l 1,13,14
 188 41 188 41 228.5 25 c 128,-1,15
 269 9 269 9 315 9 c 0,16,17
 367 9 367 9 413 30.5 c 128,-1,18
 459 52 459 52 491 89 c 1,19,-1
 515 83 l 1,20,21
 479 39 479 39 427 13.5 c 128,-1,22
 375 -12 375 -12 315 -12 c 0,23,0
 253 -12 253 -12 194 18 c 128,-1,1
476 269 m 1,24,-1
 476 418 l 1,25,26
 443 448 443 448 402 464.5 c 128,-1,27
 361 481 361 481 315 481 c 0,28,29
 270 481 270 481 229 464.5 c 128,-1,30
 188 448 188 448 156 418 c 1,31,-1
 156 269 l 1,32,-1
 476 269 l 1,24,-1
EndSplineSet
EndChar
StartChar: partialdiff
Encoding: 8706 8706 340
Width: 581
GlyphClass: 1
Flags: W
LayerCount: 2
Fore
SplineSet
153 14.5 m 128,-1,1
 106 41 106 41 80 89 c 128,-1,2
 54 137 54 137 54 200 c 0,3,4
 54 276 54 276 86.5 343 c 128,-1,5
 119 410 119 410 178 451 c 128,-1,6
 237 492 237 492 313 492 c 0,7,8
 377 492 377 492 422.5 461.5 c 128,-1,9
 468 431 468 431 480 374 c 1,10,11
 483 447 483 447 448.5 501.5 c 128,-1,12
 414 556 414 556 352.5 585.5 c 128,-1,13
 291 615 291 615 213 617 c 1,14,-1
 226 680 l 1,15,16
 391 663 391 663 465.5 585.5 c 128,-1,17
 540 508 540 508 540 384 c 0,18,19
 540 293 540 293 513 202.5 c 128,-1,20
 486 112 486 112 423.5 50 c 128,-1,21
 361 -12 361 -12 261 -12 c 0,22,0
 200 -12 200 -12 153 14.5 c 128,-1,1
370.5 86 m 128,-1,24
 413 124 413 124 432.5 178 c 128,-1,25
 452 232 452 232 452 281 c 0,26,27
 452 347 452 347 416 389 c 128,-1,28
 380 431 380 431 313 431 c 0,29,30
 252 431 252 431 209.5 395 c 128,-1,31
 167 359 167 359 146 305.5 c 128,-1,32
 125 252 125 252 125 200 c 0,33,34
 125 133 125 133 161.5 90.5 c 128,-1,35
 198 48 198 48 264 48 c 0,36,23
 328 48 328 48 370.5 86 c 128,-1,24
EndSplineSet
EndChar
StartChar: summation
Encoding: 8721 8721 338
Width: 579
GlyphClass: 1
Flags: W
LayerCount: 2
Fore
SplineSet
-16 -94 m 1,0,-1
 308 261 l 1,1,-1
 131 600 l 1,2,-1
 145 668 l 1,3,-1
 611 668 l 1,4,-1
 597 600 l 1,5,-1
 207 600 l 1,6,-1
 387 253 l 1,7,-1
 72 -94 l 1,8,-1
 450 -94 l 1,9,-1
 435 -162 l 1,10,-1
 -31 -162 l 1,11,-1
 -16 -94 l 1,0,-1
EndSplineSet
EndChar
StartChar: infinity
Encoding: 8734 8734 335
Width: 780
GlyphClass: 1
Flags: W
LayerCount: 2
Fore
SplineSet
98.5 144.5 m 128,-1,1
 58 182 58 182 58 239 c 0,2,3
 58 283 58 283 80 321 c 128,-1,4
 102 359 102 359 141.5 382 c 128,-1,5
 181 405 181 405 231 405 c 0,6,7
 284 405 284 405 324.5 379 c 128,-1,8
 365 353 365 353 398 302 c 1,9,10
 450 356 450 356 494 380.5 c 128,-1,11
 538 405 538 405 585 405 c 0,12,13
 645 405 645 405 685.5 367 c 128,-1,14
 726 329 726 329 726 272 c 0,15,16
 726 229 726 229 704 191 c 128,-1,17
 682 153 682 153 642.5 130 c 128,-1,18
 603 107 603 107 553 107 c 0,19,20
 500 107 500 107 459.5 133 c 128,-1,21
 419 159 419 159 387 210 c 1,22,23
 335 156 335 156 290.5 131.5 c 128,-1,24
 246 107 246 107 199 107 c 0,25,0
 139 107 139 107 98.5 144.5 c 128,-1,1
274.5 189 m 128,-1,27
 308 209 308 209 355 258 c 1,28,29
 329 298 329 298 300.5 320.5 c 128,-1,30
 272 343 272 343 234 343 c 0,31,32
 186 343 186 343 154.5 314.5 c 128,-1,33
 123 286 123 286 123 245 c 0,34,35
 123 211 123 211 146.5 190 c 128,-1,36
 170 169 170 169 205 169 c 0,37,26
 241 169 241 169 274.5 189 c 128,-1,27
630 196.5 m 128,-1,39
 662 225 662 225 662 267 c 0,40,41
 662 301 662 301 638 322 c 128,-1,42
 614 343 614 343 580 343 c 0,43,44
 544 343 544 343 510 323 c 128,-1,45
 476 303 476 303 429 254 c 1,46,47
 455 213 455 213 484 190.5 c 128,-1,48
 513 168 513 168 550 168 c 0,49,38
 598 168 598 168 630 196.5 c 128,-1,39
EndSplineSet
EndChar
StartChar: integral
Encoding: 8747 8747 336
Width: 450
GlyphClass: 1
Flags: W
LayerCount: 2
Fore
SplineSet
2 -158 m 128,-1,1
 -22 -144 -22 -144 -22 -116 c 0,2,3
 -22 -97 -22 -97 -7 -82 c 128,-1,4
 8 -67 8 -67 30 -67 c 0,5,6
 50 -67 50 -67 63 -79 c 128,-1,7
 76 -91 76 -91 76 -110 c 0,8,9
 76 -123 76 -123 70 -135 c 1,10,11
 107 -130 107 -130 125 -42 c 2,12,-1
 246 502 l 2,13,14
 268 603 268 603 305.5 642.5 c 128,-1,15
 343 682 343 682 395 682 c 0,16,17
 427 682 427 682 451 668 c 128,-1,18
 475 654 475 654 475 625 c 0,19,20
 475 606 475 606 460.5 591.5 c 128,-1,21
 446 577 446 577 423 577 c 0,22,23
 403 577 403 577 390 589 c 128,-1,24
 377 601 377 601 377 620 c 0,25,26
 377 632 377 632 383 644 c 1,27,28
 346 639 346 639 327 551 c 2,29,-1
 207 7 l 2,30,31
 185 -94 185 -94 147.5 -133 c 128,-1,32
 110 -172 110 -172 58 -172 c 0,33,0
 26 -172 26 -172 2 -158 c 128,-1,1
EndSplineSet
EndChar
StartChar: approxequal
Encoding: 8776 8776 331
Width: 561
GlyphClass: 1
Flags: W
LayerCount: 2
Fore
SplineSet
66 195.5 m 128,-1,1
 102 227 102 227 156 227 c 0,2,3
 185 227 185 227 211.5 218.5 c 128,-1,4
 238 210 238 210 273 193 c 0,5,6
 308 177 308 177 328.5 170 c 128,-1,7
 349 163 349 163 371 163 c 0,8,9
 404 163 404 163 425 180 c 128,-1,10
 446 197 446 197 457 232 c 1,11,-1
 512 217 l 1,12,13
 495 162 495 162 459 130.5 c 128,-1,14
 423 99 423 99 369 99 c 0,15,16
 340 99 340 99 313.5 107.5 c 128,-1,17
 287 116 287 116 252 133 c 0,18,19
 217 149 217 149 197 156 c 128,-1,20
 177 163 177 163 154 163 c 0,21,22
 121 163 121 163 100 146 c 128,-1,23
 79 129 79 129 68 94 c 1,24,-1
 13 109 l 1,25,0
 30 164 30 164 66 195.5 c 128,-1,1
106 384.5 m 128,-1,27
 142 416 142 416 196 416 c 0,28,29
 226 416 226 416 252 407 c 128,-1,30
 278 398 278 398 312 382 c 0,31,32
 349 366 349 366 369 359 c 128,-1,33
 389 352 389 352 412 352 c 0,34,35
 445 352 445 352 465.5 369.5 c 128,-1,36
 486 387 486 387 497 422 c 1,37,-1
 553 406 l 1,38,39
 536 352 536 352 499.5 320 c 128,-1,40
 463 288 463 288 410 288 c 0,41,42
 381 288 381 288 354.5 297 c 128,-1,43
 328 306 328 306 294 322 c 0,44,45
 257 338 257 338 237 345 c 128,-1,46
 217 352 217 352 194 352 c 0,47,48
 161 352 161 352 140.5 335 c 128,-1,49
 120 318 120 318 109 283 c 1,50,-1
 53 298 l 1,51,26
 70 353 70 353 106 384.5 c 128,-1,27
EndSplineSet
EndChar
StartChar: lessequal
Encoding: 8804 8804 329
Width: 575
GlyphClass: 1
Flags: W
LayerCount: 2
Fore
SplineSet
60 265 m 1,0,-1
 74 328 l 1,1,-1
 569 487 l 1,2,-1
 552 411 l 1,3,-1
 161 293 l 1,4,-1
 503 175 l 1,5,-1
 488 107 l 1,6,-1
 60 265 l 1,0,-1
18 66 m 1,7,-1
 479 66 l 1,8,-1
 466 0 l 1,9,-1
 4 0 l 1,10,-1
 18 66 l 1,7,-1
EndSplineSet
EndChar
StartChar: greaterequal
Encoding: 8805 8805 328
Width: 575
GlyphClass: 1
Flags: W
LayerCount: 2
Fore
SplineSet
43 182 m 1,0,-1
 434 300 l 1,1,-1
 93 418 l 1,2,-1
 107 487 l 1,3,-1
 535 328 l 1,4,-1
 522 265 l 1,5,-1
 27 107 l 1,6,-1
 43 182 l 1,0,-1
18 66 m 1,7,-1
 479 66 l 1,8,-1
 466 0 l 1,9,-1
 4 0 l 1,10,-1
 18 66 l 1,7,-1
EndSplineSet
EndChar
StartChar: lozenge
Encoding: 9674 9674 343
Width: 549
GlyphClass: 1
Flags: W
LayerCount: 2
Fore
SplineSet
71 316 m 1,0,-1
 371 700 l 1,1,-1
 506 316 l 1,2,-1
 207 -68 l 1,3,-1
 71 316 l 1,0,-1
434 323 m 1,4,-1
 347 567 l 1,5,-1
 143 308 l 1,6,-1
 232 64 l 1,7,-1
 434 323 l 1,4,-1
EndSplineSet
EndChar
StartChar: acutecomb.case
Encoding: 65553 -1 352
Width: 0
GlyphClass: 4
Flags: W
AnchorPoint: "Anchor-5" 199 859 basemark 0
AnchorPoint: "Anchor-5" 158 668 mark 0
AnchorPoint: "Anchor-1" 158 668 mark 0
LayerCount: 2
Fore
SplineSet
297 850 m 0,1,2
 310 850 310 850 318 844 c 128,-1,3
 326 838 326 838 326 827 c 0,4,5
 326 812 326 812 314 801.5 c 128,-1,6
 302 791 302 791 274 776 c 2,7,-1
 209 741 l 1,8,-1
 141 741 l 1,9,-1
 247 826 l 2,10,0
 278 850 278 850 297 850 c 0,1,2
EndSplineSet
EndChar
StartChar: gravecomb.case
Encoding: 65552 -1 350
Width: 0
GlyphClass: 4
Flags: W
AnchorPoint: "Anchor-5" 296 859 basemark 0
AnchorPoint: "Anchor-5" 255 668 mark 0
AnchorPoint: "Anchor-1" 255 668 mark 0
LayerCount: 2
Fore
SplineSet
166.5 798.5 m 128,-1,1
 159 808 159 808 159 819 c 0,2,3
 159 832 159 832 168.5 841 c 128,-1,4
 178 850 178 850 191 850 c 0,5,6
 200 850 200 850 209 844 c 128,-1,7
 218 838 218 838 230 824 c 2,8,-1
 297 741 l 1,9,-1
 242 741 l 1,10,-1
 192 776 l 2,11,0
 174 789 174 789 166.5 798.5 c 128,-1,1
EndSplineSet
EndChar
StartChar: one.tf
Encoding: 65540 -1 240
Width: 632
GlyphClass: 1
Flags: W
LayerCount: 2
Fore
SplineSet
77 62 m 1,0,-1
 255 62 l 1,1,-1
 353 520 l 1,2,-1
 173 520 l 1,3,-1
 184 572 l 1,4,-1
 219 572 l 2,5,6
 279 572 279 572 311.5 579.5 c 128,-1,7
 344 587 344 587 364.5 606.5 c 128,-1,8
 385 626 385 626 408 668 c 1,9,-1
 453 668 l 1,10,-1
 323 62 l 1,11,-1
 487 62 l 1,12,-1
 474 0 l 1,13,-1
 64 0 l 1,14,-1
 77 62 l 1,0,-1
EndSplineSet
Substitution2: "'pnum' Proportional Numbers in Latin lookup 9 subtable" one
AlternateSubs2: "'aalt' Access All Alternates in Latin lookup 0 subtable" one
EndChar
StartChar: uni0307.case
Encoding: 65550 -1 347
Width: 0
GlyphClass: 4
Flags: W
AnchorPoint: "Anchor-5" 211 836 basemark 0
AnchorPoint: "Anchor-5" 176 668 mark 0
AnchorPoint: "Anchor-1" 176 668 mark 0
LayerCount: 2
Fore
SplineSet
166.5 753.5 m 128,-1,1
 152 768 152 768 152 788 c 256,2,3
 152 808 152 808 166.5 822 c 128,-1,4
 181 836 181 836 201 836 c 256,5,6
 221 836 221 836 235 822 c 128,-1,7
 249 808 249 808 249 788 c 256,8,9
 249 768 249 768 235 753.5 c 128,-1,10
 221 739 221 739 201 739 c 256,11,0
 181 739 181 739 166.5 753.5 c 128,-1,1
EndSplineSet
EndChar
StartChar: uni0307.large
Encoding: 65551 -1 348
Width: 0
GlyphClass: 4
Flags: W
AnchorPoint: "Anchor-5" 188 703 basemark 0
AnchorPoint: "Anchor-5" 144 496 mark 0
AnchorPoint: "Anchor-1" 144 496 mark 0
LayerCount: 2
Fore
SplineSet
138.5 611.5 m 128,-1,1
 123 627 123 627 123 649 c 256,2,3
 123 671 123 671 138.5 686.5 c 128,-1,4
 154 702 154 702 176 702 c 0,5,6
 199 702 199 702 214 687 c 128,-1,7
 229 672 229 672 229 649 c 0,8,9
 229 627 229 627 213.5 611.5 c 128,-1,10
 198 596 198 596 176 596 c 256,11,0
 154 596 154 596 138.5 611.5 c 128,-1,1
EndSplineSet
EndChar
StartChar: uni030A.case
Encoding: 65559 -1 363
Width: 0
GlyphClass: 4
Flags: W
AnchorPoint: "Anchor-5" 266 836 basemark 0
AnchorPoint: "Anchor-5" 231 668 mark 0
AnchorPoint: "Anchor-1" 231 668 mark 0
LayerCount: 2
Fore
SplineSet
173 663 m 128,-1,1
 143 693 143 693 143 735 c 256,2,3
 143 777 143 777 173 806.5 c 128,-1,4
 203 836 203 836 245 836 c 256,5,6
 287 836 287 836 316.5 806 c 128,-1,7
 346 776 346 776 346 735 c 0,8,9
 346 693 346 693 316.5 663 c 128,-1,10
 287 633 287 633 245 633 c 256,11,0
 203 633 203 633 173 663 c 128,-1,1
283 697.5 m 128,-1,13
 298 713 298 713 298 735 c 256,14,15
 298 757 298 757 282.5 772.5 c 128,-1,16
 267 788 267 788 245 788 c 256,17,18
 223 788 223 788 207 772.5 c 128,-1,19
 191 757 191 757 191 735 c 256,20,21
 191 713 191 713 206.5 697.5 c 128,-1,22
 222 682 222 682 245 682 c 256,23,12
 268 682 268 682 283 697.5 c 128,-1,13
EndSplineSet
EndChar
StartChar: uni030C.alt
Encoding: 65555 -1 355
Width: 0
GlyphClass: 4
Flags: W
AnchorPoint: "Anchor-3" 73 496 mark 0
LayerCount: 2
Fore
SplineSet
199 718 m 0,1,2
 213 718 213 718 221 711.5 c 128,-1,3
 229 705 229 705 229 695 c 0,4,5
 229 687 229 687 222.5 673.5 c 128,-1,6
 216 660 216 660 208 647 c 2,7,-1
 145 538 l 1,8,-1
 99 538 l 1,9,-1
 150 675 l 2,10,0
 165 718 165 718 199 718 c 0,1,2
EndSplineSet
EndChar
StartChar: uni0328.alt
Encoding: 65562 -1 372
Width: 0
GlyphClass: 4
Flags: W
AnchorPoint: "Anchor-2" 130 10 mark 0
LayerCount: 2
Fore
SplineSet
-11.5 -152 m 128,-1,1
 -36 -134 -36 -134 -36 -102 c 0,2,3
 -36 -64 -36 -64 -4 -27.5 c 128,-1,4
 28 9 28 9 70 27 c 1,5,-1
 116 25 l 1,6,7
 84 9 84 9 54.5 -21 c 128,-1,8
 25 -51 25 -51 25 -81 c 0,9,10
 25 -102 25 -102 39 -111.5 c 128,-1,11
 53 -121 53 -121 75 -121 c 0,12,13
 91 -121 91 -121 104 -117 c 1,14,-1
 93 -165 l 1,15,16
 73 -170 73 -170 52 -170 c 0,17,0
 13 -170 13 -170 -11.5 -152 c 128,-1,1
EndSplineSet
EndChar
StartChar: uni0328.case
Encoding: 65563 -1 373
Width: 0
GlyphClass: 4
Flags: W
AnchorPoint: "Anchor-2" 129 10 mark 0
LayerCount: 2
Fore
SplineSet
-11 -152 m 128,-1,1
 -36 -134 -36 -134 -36 -101 c 0,2,3
 -36 -63 -36 -63 -7 -34.5 c 128,-1,4
 22 -6 22 -6 65 11 c 1,5,-1
 127 0 l 1,6,7
 82 -14 82 -14 53 -35.5 c 128,-1,8
 24 -57 24 -57 24 -86 c 0,9,10
 24 -121 24 -121 73 -121 c 0,11,12
 86 -121 86 -121 102 -117 c 1,13,-1
 92 -165 l 1,14,15
 73 -170 73 -170 52 -170 c 0,16,0
 14 -170 14 -170 -11 -152 c 128,-1,1
EndSplineSet
EndChar
